<?xml version="1.0" encoding="utf-8"?>
<!-- Generator: Adobe Illustrator 23.0.5, SVG Export Plug-In . SVG Version: 6.00 Build 0)  -->
<svg version="1.0" id="Layer_1" xmlns="http://www.w3.org/2000/svg" xmlns:xlink="http://www.w3.org/1999/xlink" x="0px" y="0px"
	 viewBox="-0.5 -0.5 500 500" enable-background="new -0.5 -0.5 500 500" xml:space="preserve">
<g id="Layer_2_copy_3">
	<path d="M423.511,338.931l-0.121-0.968c-0.122-0.605-0.242-1.453-0.484-2.179c-0.242-0.728-0.485-1.333-0.726-2.059
		c-0.364-0.605-0.605-1.21-1.091-1.815c-1.573-2.421-3.631-4.237-5.932-5.69c-2.299-1.453-4.72-2.542-7.142-3.512
		c-1.21-0.483-2.542-0.846-3.753-1.21c-0.12,0-0.241-0.121-0.363-0.121c0.363-0.12,0.605-0.242,0.969-0.362h0.121l0.243-0.122
		c0.604-0.241,1.088-0.968,1.088-1.694c0-0.727-0.362-1.452-1.088-1.695c-0.122-0.12-0.364-0.12-0.485-0.12c-0.12,0-0.12,0-0.242,0
		l0,0h-0.242h-0.363c-0.483,0-1.089,0-1.573-0.122c-0.968-0.12-2.058-0.241-3.026-0.362c-2.058-0.363-3.994-0.848-6.053-1.331
		c-3.994-1.09-7.868-2.543-11.62-4.359c-0.97-0.362-1.816-0.846-2.785-1.331c-2.784-1.331-5.567-2.905-8.109-4.6
		c-0.848-0.604-1.695-1.09-2.421-1.815c-0.364-0.363-0.727-0.605-1.09-0.968c-0.363-0.364-0.605-0.605-0.969-1.091
		c-1.21-1.452-2.421-3.146-3.026-4.842c-0.242-0.848-0.484-1.695-0.362-2.421c0-0.363,0.12-0.726,0.362-1.09
		c0.121-0.241,0.363-0.605,0.605-0.847c1.089-1.09,2.904-1.332,4.237-0.727c1.452,0.727,2.904,2.179,4.114,3.753
		c1.211,1.573,2.301,3.39,3.148,5.205c0.968,1.816,1.815,3.752,2.542,5.568l0.604,1.452l0.122,0.242l0,0
		c0,0.121,0.121,0.243,0.241,0.363c0.122,0.242,0.364,0.363,0.605,0.605c0.122,0,0.122,0.12,0.242,0.12
		c0.727,0.242,1.453,0,1.938-0.483c0.241-0.242,0.363-0.605,0.363-0.605l0.12-0.242c0.122-0.12,0.122-0.242,0.122-0.362
		c0.605-1.211,0.847-2.421,0.968-3.512c0.242-1.815,0.121-3.631,0-5.447c0.121,0.363,0.242,0.728,0.363,1.211
		c0.242,0.968,0.362,1.938,0.362,3.026v0.122v0.12c0.122,0.484,0.485,1.09,1.091,1.331c0.483,0.242,1.088,0.242,1.693-0.12
		c0.242-0.121,0.485-0.363,0.605-0.605c0.122-0.121,0.122-0.242,0.242-0.363v-0.122l0.122-0.362c0.12-0.363,0.363-0.848,0.483-1.211
		c0.242-0.968,0.484-1.815,0.727-2.783c0.363-1.816,0.484-3.753,0.241-5.69c-0.12-1.21-0.483-2.421-0.846-3.51
		c0.241,0.241,0.362,0.363,0.604,0.605c0.484,0.605,0.969,1.331,1.452,2.057l0,0v0.122c0.364,0.606,1.211,0.848,1.815,0.726
		c0.605-0.12,1.211-0.726,1.333-1.452c0-0.121,0-0.121,0-0.241v-0.122v-0.121v-0.242v-0.362c0-0.605-0.122-1.211-0.122-1.816
		c-0.121-1.21-0.363-2.3-0.847-3.511c-0.364-1.21-0.969-2.299-1.695-3.268c-0.726-0.968-1.573-1.937-2.541-2.662
		c-1.938-1.574-3.996-2.543-6.053-3.511c-0.364-0.121-0.728-0.363-1.211-0.485c0.363,0,0.727,0,1.089,0
		c1.09,0.122,2.059,0.243,3.026,0.485c0.484,0.12,0.968,0.242,1.453,0.484c0.484,0.121,0.968,0.363,1.453,0.483l0.12,0.122l0,0
		c0.484,0.12,1.211,0.12,1.695-0.242c0.483-0.242,0.848-0.728,1.089-1.333c0.242-0.483,0.242-1.21-0.121-1.693
		c0-0.122-0.12-0.242-0.242-0.363c0-0.122,0-0.122-0.12-0.242l0,0l-0.243-0.242l-0.968-1.09c-0.363-0.363-0.727-0.727-1.09-1.089
		c-0.363-0.363-0.726-0.605-1.211-0.969c-0.362-0.363-0.725-0.604-1.21-0.969l-1.211-0.847l-1.331-0.727
		c-0.848-0.483-1.815-0.969-2.784-1.211c-0.969-0.363-1.938-0.605-2.905-0.968c-0.968-0.242-1.936-0.485-2.905-0.605
		c-0.969-0.121-1.937-0.242-2.905-0.363c-0.484,0-0.968-0.121-1.452-0.121c0.362-4.237,0-7.747-1.816-9.926
		c-1.09-1.453-2.663-2.301-4.6-2.421c-7.263-0.606-18.885,8.837-24.452,13.679c0.968-7.99,2.058-21.79-1.936-27.358
		c-1.09-1.453-2.421-2.3-3.996-2.543c-3.51-0.484-8.109,2.3-12.588,6.174c-0.848-0.484-1.816-0.848-2.664-1.21
		c-0.484-0.121-0.968-0.363-1.573-0.484c-0.242,0-0.483-0.121-0.848-0.121h-0.484h-0.241h-0.242c0,0-0.122,0-0.242,0h-0.121l0,0
		c-0.122-0.121-0.242-0.364-0.364-0.484c-0.726-0.969-1.573-1.937-2.299-2.906c-0.728-0.968-1.695-1.815-2.663-2.663l-1.453-1.21
		l-1.453-1.21c-0.968-0.727-2.057-1.453-3.146-2.058c-1.09-0.605-2.301-1.21-3.512-1.574c-1.21-0.484-2.421-0.848-3.631-1.089
		c-0.605-0.121-1.211-0.242-1.937-0.363l-0.968-0.121h-0.243h-0.12l0,0l0,0h-0.122l0,0c-0.12,0-0.242,0-0.362,0
		c-0.121,0-0.363,0.121-0.485,0.242c-0.241,0.242-0.483,0.484-0.605,0.848c-0.12,0.363-0.12,0.605,0,0.968
		c0.122,0.363,0.364,0.605,0.605,0.726l0.364,0.242c0.241,0.242,0.483,0.363,0.726,0.484c0.485,0.363,0.969,0.726,1.331,1.089
		c0.848,0.727,1.695,1.331,2.422,2.058c-0.605-0.242-1.211-0.363-1.694-0.484c-3.148-0.726-6.537-1.089-9.806-0.242
		c-0.847,0.242-1.574,0.484-2.422,0.847l-0.604,0.242l-0.121,0.121h-0.12l0,0l-0.122,0.121l0,0l-0.12,0.121
		c-0.122,0.121-0.122,0.242-0.243,0.242c-0.12,0.242-0.242,0.363-0.242,0.605c-0.12,0.484,0,0.847,0.242,1.21
		c0.243,0.363,0.727,0.605,1.091,0.726h0.726c0.848,0,1.453,0.122,2.179,0.242c0.242,0,0.484,0.121,0.605,0.121
		c-2.179,0.242-4.237,0.726-6.295,1.574c-0.363,0.121-0.727,0.242-0.969,0.484l-0.483,0.242l0,0l-0.122,0.121l-0.12,0.121
		c-0.242,0.121-0.363,0.363-0.484,0.484c-0.243,0.363-0.243,0.726-0.243,1.21c0.122,0.363,0.243,0.726,0.605,0.969
		c0.122,0.121,0.364,0.242,0.605,0.242c0.122,0,0.242,0,0.242,0l0,0h0.484c0.363,0,0.605,0.121,0.969,0.121
		c1.21,0.242,2.541,0.605,3.874,0.968c1.331,0.363,2.663,0.726,3.994,1.211c-0.605,0.242-1.09,0.484-1.695,0.727
		c-1.815,0.847-3.51,1.815-5.083,3.026c-1.574,1.211-3.148,2.542-4.358,4.117c-0.605,0.846-1.211,1.573-1.694,2.541
		c-0.243,0.485-0.484,0.848-0.727,1.331l-0.363,0.727l0,0v0.122v0.12c0,0.12,0,0.241-0.12,0.363c0,0.362,0,0.605,0.12,0.968
		c0.242,0.484,0.726,0.848,1.331,0.97c0.364,0,0.605,0,0.848-0.122c0.122,0,0.122,0,0.242-0.122l0,0h0.121l0.364-0.12l0.604-0.363
		l1.211-0.727l2.421-1.331c1.694-0.847,3.39-1.695,5.083-2.421c1.695-0.727,3.391-1.452,5.085-1.816
		c0.848-0.241,1.695-0.362,2.3-0.241c0.363,0,0.483,0.121,0.605,0.121c0,0,0,0,0,0.12c-0.484,1.937-1.09,3.752-1.937,5.447
		c-0.968,1.816-2.179,3.391-3.632,4.479c-1.573,1.21-3.389,1.815-5.205,2.179c-1.936,0.242-3.994,0.12-5.931-0.363
		c-3.995-0.848-7.747-2.784-11.259-5.084c-3.51-2.301-6.778-5.083-9.563-8.11c-0.727-0.727-1.332-1.574-2.058-2.421l-1.937-2.542
		c-1.453-1.815-3.027-3.269-4.721-4.842c-1.695-1.453-3.511-2.785-5.326-3.995c-1.937-1.21-3.874-2.179-6.053-3.026
		c-2.179-0.726-4.479-1.21-6.9-1.21c-2.421,0.121-4.842,0.848-6.9,2.058l-0.242,0.121l-0.121,0.121l0,0l-0.121,0.121
		c-0.726,0.605-0.847,1.332-0.726,1.937c0.121,0.605,0.726,1.331,1.452,1.453l0.364,0.121c0.605,0.121,1.21,0.242,1.694,0.242
		c1.089,0.121,2.058,0.363,3.026,0.606c0.605,0.121,1.089,0.363,1.574,0.605c-1.089,0-2.179,0.121-3.147,0.242
		c-1.211,0.122-2.421,0.363-3.632,0.727c-1.21,0.363-2.421,0.605-3.51,1.089c-0.605,0.242-1.21,0.484-1.695,0.727
		c-0.605,0.242-1.089,0.484-1.694,0.847l-0.848,0.484l-0.121,0.121h-0.121l-0.242,0.121l-0.363,0.242
		c-0.242,0.242-0.605,0.363-0.848,0.727c-0.242,0.242-0.605,0.605-0.847,1.211c0,0.121-0.121,0.242-0.121,0.363
		c-7.263-3.147-18.158-7.263-18.763-7.505l-8.716-3.026c-6.053-2.058-12.953-2.542-20.337-1.695
		c0.968-2.179,3.026-6.899,5.81-13.073l1.089-2.3c2.421-5.327,4.842-10.29,7.021-15.011l0,0l0.363-0.726
		c1.21-2.542,2.542-5.206,3.874-7.868c0.605-1.21,1.21-2.301,1.815-3.39c0.484-0.726,0.847-1.452,1.331-2.057
		c0.242-0.364,0.484-0.605,0.726-0.969c0.484-0.727,0.969-1.332,1.453-1.937c2.542-3.268,5.568-5.932,8.958-8.11
		c6.295-3.995,14.042-6.174,23.605-6.416l0,0c1.695,0,3.389,0,4.842,0c10.168,0.242,21.668,8.837,29.294,14.526
		c3.632,2.663,6.173,4.6,7.868,5.206c2.059,0.605,4.963,0.121,7.869-1.574c5.931-3.147,17.067-12.952,25.663-42.852l0,0
		c8.714-30.263-4.602-63.068-33.29-82.92h0.241l-4.236-2.663l0,0c-8.352-5.206-17.673-9.2-27.72-11.984
		c-2.906-0.847-5.932-1.453-8.958-2.058c-1.816-0.364-3.632-0.605-5.448-0.848l0,0c-7.626-1.089-15.252-1.211-23-0.606l0,0h-0.242
		c-20.457,1.574-40.552,8.837-57.258,20.579l0.121-0.242l-3.873,3.026l-0.364,0.242c-11.136,8.595-20.215,19.127-26.51,30.505
		c-4.963,9.079-8.473,18.763-10.652,29.779v0.121c-3.269,16.1-3.269,32.805-2.663,48.784v-0.121l0.242,6.295
		c0.121,2.057,0.121,3.994,0.242,6.052c0.485,10.169,0.848,19.732,0.726,29.053v0.363c0,0.605,0,1.332,0,1.937
		c-0.242,5.689-0.605,12.226-1.21,19.731c-0.727,8.595-1.695,18.037-2.905,28.326v0.242c-2.421,20.457-5.326,38.737-6.416,45.152
		c-4.478,14.526-5.81,29.537-3.873,43.821c4.237,31.473,20.941,43.336,34.257,47.693c1.331,0.364,2.542,0.727,3.752,1.09
		c3.147,0.726,5.811,1.09,7.747,1.21c1.574,0.121,2.785,0.121,3.511,0.121c3.874,3.753,8.474,7.021,13.558,9.928l0,0
		c4.963,2.782,10.652,5.083,16.705,6.898l0,0l2.906,0.848l0,0c3.51,0.848,7.02,1.574,10.773,2.179l0.847,0.121
		c1.695,0.243,3.39,0.484,5.084,0.605c1.695,0.121,3.39,0.363,5.084,0.363l0,0l1.21,0.121l0,0c4.963,0.242,8.352,0,9.563,0
		l6.658,4.842l5.81,4.237l0,0c0.484,0.363,0.969,0.726,1.453,1.09c0.968,0.726,1.816,1.331,2.663,1.815
		c1.09,0.726,2.179,1.452,3.268,2.057c0.727,0.364,1.21,0.728,1.573,0.85c0,0,0.121,0,0.121,0.12c0,0,0,0,0.121,0l0.968,0.605
		l0.969,0.605l0,0c0.847,0.362,1.574,0.846,2.421,1.21c7.384,3.39,14.889,5.083,22.516,5.083c4.357,0,8.716-0.604,13.074-1.693
		l0.242-0.122c0.12,0,0.242,0,0.362-0.12c0.363-0.121,0.726-0.241,1.09-0.363c0.363-0.122,0.727-0.242,1.089-0.363
		c0.485-0.12,0.848-0.242,1.333-0.364c0.362-0.12,0.726-0.241,1.088-0.361c1.091-0.364,2.179-0.849,3.148-1.211
		c0.968-0.363,2.057-0.849,2.904-1.332c0.969-0.483,1.816-0.968,2.664-1.332c0.726-0.361,1.573-0.847,2.179-1.211
		c0.242-0.12,0.604-0.361,0.847-0.483c0.485-0.362,0.969-0.604,1.332-0.848c0.363-0.241,0.605-0.362,0.849-0.604
		c0.361-0.241,0.726-0.485,1.089-0.727c0.242-0.242,0.605-0.364,0.848-0.604c0.362-0.243,0.604-0.485,0.968-0.727
		c0.122-0.121,0.122-0.121,0.242-0.243l0.121-0.121c0.242-0.241,0.484-0.362,0.604-0.484c0,0,0,0,0.121,0l0,0
		c1.695,0.728,3.511,1.454,5.206,2.06c26.146,8.474,53.141-6.296,58.468-9.443c0.12,0.242,0.242,0.364,0.483,0.485
		c1.21,1.331,2.543,2.541,4.236,3.389c0.122,0.122,0.242,0.122,0.485,0.242c4.236,2.662,8.716,3.752,8.958,3.873h0.12
		c3.39,0.364,6.658,0.605,9.685,0.605c0.484,0,0.848,0,1.21,0c0,0,0,0,0.121,0c23.727-0.605,32.2-13.8,35.227-24.815
		c0.121-0.362,0.242-0.847,0.363-1.211v-0.241l0,0c3.147-13.8-0.485-27.236-0.485-27.479c-0.846-3.026-4.358-15.737-5.689-20.579
		c0.605-0.727,1.211-1.573,1.694-2.299c2.784-3.996,4.479-8.596,4.964-13.195c0.121,0,0.241,0,0.241,0
		c0.122,0,0.364,0.12,0.605,0.484c0.484,0.483,0.848,1.452,0.969,2.421c0.121,0.483,0.241,0.967,0.241,1.572l0.122,0.849l0.12,0.968
		c0,0,0.122,0.727,0.363,0.969c0.242,0.363,0.484,0.605,0.848,0.726c0.605,0.364,1.453,0.364,2.179,0.121
		c0.364-0.121,0.728-0.483,0.848-0.726l0.122-0.241c0,0,0,0,0.12-0.122l0,0l0.121-0.242l0.363-0.726
		c0.241-0.605,0.484-1.211,0.605-1.816c0.121-0.605,0.241-1.21,0.363-1.815c0.242-1.211,0.362-2.301,0.362-3.511
		c0-0.727,0-1.452,0-2.179c0.485,0.483,0.969,0.848,1.574,1.332c0.242,0.12,0.604,0.361,1.09,0.483
		c0.483,0.122,1.089,0.242,1.815-0.122c0.726-0.361,1.089-0.846,1.211-1.331c0.242-0.484,0.242-0.846,0.362-1.09
		c0-0.241,0-0.241,0.121-0.605v-0.361c0-0.243,0-0.727,0-0.97c0-0.604-0.121-1.21-0.241-1.815c-0.484-2.301-1.332-4.236-2.301-6.173
		c-0.242-0.485-0.484-0.97-0.726-1.453c0.241,0.122,0.483,0.242,0.726,0.363c0.726,0.484,1.573,0.969,2.179,1.452
		c0.363,0.243,0.605,0.483,0.969,0.848c0.363,0.241,0.484,0.605,0.727,0.847l0.121,0.243l0.121,0.121
		c0.605,0.605,1.694,0.605,2.3,0.12c0.362-0.241,0.604-0.604,0.727-0.968c0.121-0.242,0.121-0.483,0.121-0.605V338.931z"/>
	<path fill="none" d="M279.701,242.453L279.701,242.453L279.701,242.453L279.701,242.453z"/>
	<path d="M353.663,291.963c-0.242-1.09-0.483-2.058-0.848-3.148c-0.726-2.179-2.057-4.236-3.994-6.052
		c-0.363-0.363-0.848-0.605-1.211-0.969c-0.726-0.483-1.573-0.848-2.421-1.21c-0.604-0.242-1.21-0.363-1.936-0.483
		c-1.453-0.364-3.026-0.364-4.48-0.243l0,0c-0.484,0-1.09,0.121-1.573,0.121c-5.811,0.848-10.895,3.632-11.258,3.874l-5.327,3.026
		l6.053-0.848c0.121,0,16.342-2.179,19.126,7.143c1.453,4.962,2.179,8.352,2.543,10.409c0.363,2.059,0.363,2.906,0.363,3.026v5.085
		l2.299-4.479c0.242-0.363,3.026-6.173,2.785-12.831C353.905,293.536,353.905,292.811,353.663,291.963z M350.637,301.768
		c-0.483-2.179-1.21-5.205-2.299-9.199c-2.059-7.021-9.685-8.837-15.253-9.079c3.874-1.332,9.078-2.179,13.073,0.121
		c0.484,0.242,0.848,0.604,1.332,0.968c1.694,1.695,2.784,3.511,3.39,5.447C352.09,294.142,351.484,298.621,350.637,301.768z"/>
	<path fill="#BC4589" d="M348.821,262.91c0.968-0.362,2.059-0.727,3.148-1.09c0.12,0,0.241,0,0.362-0.12
		c4.843-2.906,9.685-5.085,11.983-4.6c0.848,0.12,1.211,0.605,1.453,0.968c0.727,1.089,0.122,2.542-0.968,4.115
		c0.12,0.242,0.242,0.364,0.242,0.605c0.12,0.605,0,1.332-0.485,1.938c-0.242,0.242-0.483,0.483-0.726,0.605
		c0.726-0.122,1.331-0.122,2.059-0.243c0.604,0,1.331-0.12,1.936-0.12c0.363-3.753,0-6.779-1.331-8.474
		c-0.727-0.848-1.694-1.332-2.905-1.453c-4.6-0.362-12.225,4.6-18.158,9.321c0.121,0,0.243-0.121,0.363-0.121
		C346.885,263.758,347.853,263.273,348.821,262.91z"/>
	<path d="M337.321,391.951c-1.453,0.121-3.269,0.121-5.205,0.242c-2.3,0.12-4.962,0-7.868,0c-1.453,0-2.905-0.121-4.479-0.121
		c-1.573-0.121-3.146-0.121-4.72-0.242c-1.695-0.121-3.268-0.242-4.964-0.362c-1.211-0.122-2.542-0.242-3.874-0.485
		c-0.483,0-0.847-0.12-1.331-0.12c-0.605-0.122-1.331-0.242-1.936-0.242c-1.09-0.122-2.3-0.363-3.391-0.485
		c-0.12,0-0.362,0-0.483-0.12c-1.573-0.363-3.269-0.605-4.964-0.968c-1.815-0.364-3.631-0.848-5.447-1.211
		c-1.815-0.484-3.631-0.97-5.447-1.453c-1.089-0.362-2.299-0.605-3.389-0.968c-0.848-0.242-1.694-0.484-2.421-0.848
		c-0.605-0.242-1.331-0.484-1.937-0.605c-0.969-0.362-1.938-0.727-3.026-1.09c-3.511-1.331-6.9-2.784-10.047-4.236
		c-3.148-1.574-6.295-3.147-9.079-4.721c-2.785-1.695-5.448-3.268-7.748-4.842c-4.721-3.148-8.474-6.175-10.895-8.474
		c-2.3-2.059-3.631-3.391-3.752-3.632c0,0.121,0.363,0.483,0.848,1.089c0.605,0.727,1.452,1.695,2.663,2.905
		c1.211,1.211,2.663,2.664,4.358,4.237c1.695,1.573,3.753,3.269,6.053,4.963c2.3,1.815,4.842,3.511,7.626,5.326
		c2.784,1.816,5.811,3.51,9.079,5.085c3.269,1.573,6.657,3.146,10.167,4.6c0.364,0.12,0.605,0.242,0.97,0.362
		c0.483,0.243,0.968,0.363,1.452,0.605c0.484,0.242,1.09,0.363,1.574,0.605c2.299,0.848,4.6,1.573,6.898,2.179
		c1.816,0.605,3.754,0.968,5.569,1.453c1.816,0.362,3.752,0.848,5.568,1.21c1.815,0.363,3.753,0.605,5.568,0.969
		c1.816,0.242,3.632,0.484,5.448,0.727h0.12c0.968,0.121,1.937,0.121,2.784,0.241c0.727,0.122,1.573,0.122,2.3,0.242
		c0.121,0,0.243,0,0.363,0c1.573,0.122,3.147,0.122,4.722,0.242c1.694,0.121,3.268,0,4.842,0c1.573,0,3.026,0,4.478-0.12
		c2.905-0.122,5.447-0.242,7.868-0.484c1.695-0.121,3.147-0.243,4.478-0.485c0.605-0.12,1.09-0.12,1.574-0.241
		c3.269-0.484,5.206-0.727,5.206-0.727s-1.938,0.121-5.206,0.362C337.927,391.951,337.563,391.951,337.321,391.951z"/>
	<path fill="#440338" d="M343.011,295.595c-4.478-5.205-14.768-7.02-20.216-3.754c2.543-0.726,5.205-0.968,7.506-0.726
		c2.905,0.363,5.567,1.453,7.626,2.906c2.058,1.451,3.632,3.146,4.842,4.842c1.211,1.693,1.816,3.389,2.301,4.842
		c0.242,0.726,0.362,1.331,0.483,1.936c0.122,0.605,0.242,1.09,0.242,1.453c0,0.848,0.122,1.21,0.122,1.21l0,0c0,0,0,0.363,0,1.211
		c0,0.362,0,0.848-0.122,1.453c0,0.604-0.242,1.21-0.363,1.936c-0.362,1.211-0.847,2.664-1.694,4.237
		c1.815-1.936,4.116-7.143,3.026-13.195C346.037,301.404,345.069,298.499,343.011,295.595z"/>
	<path d="M345.553,311.089c0.122-0.605,0.122-1.09,0.122-1.453c0-0.725,0-1.21,0-1.21l0,0c0,0,0-0.483-0.122-1.211
		c0-0.363-0.121-0.848-0.241-1.453c-0.122-0.605-0.242-1.21-0.484-1.936c-0.485-1.453-1.09-3.147-2.301-4.843
		c-1.089-1.695-2.662-3.389-4.842-4.842c-2.058-1.453-4.721-2.542-7.626-2.905c-2.421-0.241-4.963-0.121-7.506,0.727
		c-0.483,0.121-0.968,0.363-1.451,0.606c-1.453,0.605-2.906,1.453-4.237,2.541c-1.332,1.091-2.421,2.301-3.391,3.632
		c-0.241,0.363-0.483,0.728-0.726,1.09c-0.605,1.089-1.21,2.3-1.573,3.51c-0.484,1.575-0.848,3.511-0.848,5.085
		c0,0.727,0,1.452,0.121,2.058c0,0.605,0.121,1.09,0.242,1.573c0.121,0.485,0.242,1.09,0.362,1.574v0.121
		c0.485,1.573,1.211,3.147,2.18,4.6c0.969,1.453,2.058,2.784,3.39,3.874c1.331,1.089,2.784,1.936,4.237,2.664
		c1.573,0.604,3.025,1.088,4.72,1.331c0.848,0.12,1.575,0.12,2.301,0.12c0.848,0,1.573-0.12,2.3-0.12l0,0
		c0.605-0.121,1.211-0.243,1.694-0.363c0.484-0.122,1.09-0.242,1.573-0.484c1.695-0.605,3.148-1.331,4.479-2.3
		c2.179-1.453,3.753-3.391,4.842-5.084c0.122-0.242,0.363-0.485,0.485-0.728c0.847-1.451,1.331-3.026,1.693-4.236
		C345.311,312.3,345.432,311.694,345.553,311.089z M344.585,309.516c0,0.362-0.121,0.848-0.243,1.331
		c-0.12,0.484-0.241,1.09-0.362,1.815c-0.121,0.242-0.121,0.484-0.242,0.848c-0.363,1.09-0.969,2.421-1.816,3.632
		c-1.089,1.573-2.662,3.147-4.6,4.479c-1.694,1.089-3.632,1.816-5.931,2.179c-0.364,0.121-0.727,0.121-1.211,0.121
		c-0.242,0-0.484,0-0.727,0l0,0c-0.363,0-0.848,0-1.211,0c-0.362,0-0.726,0-1.088-0.121c-0.364,0-0.728-0.12-0.97-0.12
		c-1.331-0.122-2.662-0.605-3.994-1.211c-2.664-1.21-4.963-3.147-6.658-5.568c-0.242-0.363-0.483-0.727-0.605-1.089
		c-0.362-0.728-0.726-1.332-0.968-2.059c-0.121-0.362-0.242-0.605-0.363-0.968c-0.122-0.242-0.122-0.605-0.242-0.848
		c-0.363-1.211-0.484-2.421-0.484-3.632c0-1.695,0.121-3.148,0.605-4.6c0.485-1.453,1.091-2.905,1.938-4.236
		c0.848-1.333,1.816-2.422,3.026-3.512c1.211-0.968,2.422-1.815,3.753-2.421c2.179-1.09,4.6-1.573,6.899-1.573
		c0.485,0,0.969,0,1.574,0.121c2.663,0.242,5.204,1.21,7.263,2.542c2.058,1.331,3.511,3.026,4.6,4.6
		c1.09,1.694,1.695,3.27,2.059,4.601c0.121,0.726,0.362,1.331,0.362,1.815c0.122,0.605,0.122,0.968,0.122,1.331
		c0,0.605,0,0.97,0,1.09C344.585,308.305,344.585,308.788,344.585,309.516z"/>
	<path d="M322.675,256.495L322.675,256.495L322.675,256.495L322.675,256.495z"/>
	<path d="M302.338,293.899c2.206,0,3.995,1.788,3.995,3.994c0,2.206-1.789,3.996-3.995,3.996c-2.205,0-3.995-1.79-3.995-3.996
		C298.343,295.688,300.133,293.899,302.338,293.899z"/>
	<path d="M312.628,299.469c0.726-1.333,1.21-2.543,1.451-3.632c0-0.122,0.122-0.364,0.122-0.484c0.12-0.485,0.242-0.969,0.242-1.453
		c0.121-0.605,0.121-1.089,0.121-1.453c0-0.726,0-1.21,0-1.21l0,0c0,0,0-0.363-0.121-1.211c0-0.363-0.122-0.847-0.242-1.451
		c-0.122-0.605-0.242-1.211-0.484-1.816c-0.484-1.332-1.211-2.905-2.422-4.601c-1.21-1.573-2.783-3.147-4.842-4.357
		c-2.058-1.211-4.6-2.179-7.384-2.542c-2.783-0.364-5.81,0-8.716,1.089c-1.453,0.605-2.784,1.332-4.116,2.179
		c-0.12,0.122-0.241,0.122-0.362,0.242c-1.211,0.848-2.179,1.938-3.148,3.148c-0.968,1.331-1.815,2.784-2.421,4.357
		c-0.484,1.21-0.727,2.663-0.848,3.994c0,0.363,0,0.605-0.12,0.969c0,0.121,0,0.242,0,0.484c0,0.484,0,0.968,0.12,1.453
		c0.121,1.089,0.363,2.058,0.605,3.147c0.605,1.573,1.331,3.148,2.301,4.479c0.968,1.331,2.179,2.541,3.51,3.631
		c1.332,0.969,2.783,1.816,4.236,2.421c0.727,0.243,1.453,0.485,2.301,0.727c0.726,0.242,1.573,0.364,2.299,0.484
		c0.848,0.121,1.453,0.121,2.18,0.121c0.847,0,1.574,0,2.3-0.121c0.848-0.12,1.695-0.242,2.543-0.484
		c0.483-0.121,1.089-0.241,1.573-0.483c0.483-0.122,0.968-0.363,1.331-0.605c0.848-0.363,1.573-0.728,2.3-1.211
		c2.18-1.332,3.753-3.026,4.843-4.722C312.143,300.194,312.386,299.831,312.628,299.469z M305.97,303.826
		c-1.09,0.604-2.18,1.09-3.391,1.452c-0.483,0.121-1.089,0.242-1.573,0.363c-0.605,0.12-1.21,0.242-1.815,0.242l0,0
		c-0.605,0-1.331,0-1.936,0c-0.727,0-1.453,0-2.059-0.242c-1.21-0.121-2.663-0.605-3.873-1.09c-1.331-0.605-2.542-1.211-3.753-2.057
		c-1.09-0.848-2.179-1.939-3.025-3.026c-0.848-1.211-1.574-2.422-2.059-3.874c-0.12-0.242-0.242-0.605-0.242-0.848
		c-0.121-0.484-0.242-1.09-0.363-1.695c-0.12-0.483-0.12-1.089-0.12-1.573c0-0.121,0-0.121,0-0.242c0-1.574,0.241-3.026,0.605-4.478
		c0.483-1.453,1.088-2.785,1.936-3.995c0.848-1.211,1.937-2.3,3.026-3.268c1.211-0.97,2.421-1.695,3.752-2.301
		c0.97-0.363,1.938-0.726,3.026-0.968c1.816-0.363,3.632-0.485,5.327-0.363c2.663,0.241,5.205,1.089,7.143,2.3
		c2.057,1.21,3.632,2.783,4.72,4.358c1.091,1.573,1.695,3.146,2.059,4.477c0.12,0.605,0.363,1.211,0.363,1.816
		c0.121,0.485,0.121,0.97,0.121,1.333c0,0.725,0,1.089,0,1.089l0,0c0,0,0,0.242-0.121,0.605c0,0.122,0,0.364,0,0.485
		c0,0.362-0.121,0.848-0.243,1.331c-0.12,0.484-0.241,1.09-0.483,1.695c-0.484,1.21-1.09,2.783-2.179,4.236
		C309.602,301.284,308.026,302.615,305.97,303.826z"/>
	<g>
		<path fill="#DFCF6F" d="M344.464,305.884c0-0.606-0.122-1.21-0.363-1.815c-0.363-1.333-0.969-3.026-2.058-4.6
			c-1.09-1.575-2.543-3.269-4.6-4.602c-2.059-1.331-4.601-2.299-7.264-2.541c-0.484,0-0.969-0.121-1.574-0.121
			c-2.299,0-4.721,0.483-6.899,1.573c-1.332,0.605-2.542,1.453-3.753,2.422c-1.089,0.968-2.179,2.179-3.026,3.51
			c-0.848,1.332-1.453,2.785-1.937,4.236c-0.362,1.574-0.605,2.905-0.605,4.601c0,1.211,0.242,2.422,0.483,3.632
			c0,0.241,0.121,0.605,0.242,0.847c0.121,0.364,0.242,0.605,0.362,0.969c0.243,0.727,0.605,1.452,0.97,2.058
			c0.241,0.364,0.363,0.726,0.605,1.09c1.694,2.541,4.115,4.479,6.657,5.567c1.331,0.605,2.663,1.09,3.995,1.211
			c0.362,0.122,0.605,0.122,0.968,0.122c0.363,0,0.726,0,1.09,0.12c0.363,0,0.847,0,1.211,0l0,0c0.241,0,0.483,0,0.726,0
			c0.363,0,0.726-0.12,1.211-0.12c2.179-0.363,4.236-1.211,5.932-2.179c1.936-1.211,3.51-2.785,4.6-4.479
			c0.848-1.211,1.453-2.543,1.816-3.632c0.12-0.242,0.242-0.605,0.242-0.848c0.241-0.726,0.362-1.331,0.362-1.815
			c0.121-0.484,0.242-0.968,0.242-1.331c0-0.728,0.121-1.211,0.121-1.211c0-0.121,0-0.484,0-1.09
			C344.585,306.852,344.585,306.367,344.464,305.884z"/>
		<path fill="#DFCF6F" d="M313.353,293.778c0.12-0.484,0.242-0.968,0.242-1.332c0-0.241,0-0.362,0-0.483
			c0-0.363,0.121-0.605,0.121-0.605l0,0c0,0,0-0.362,0-1.09c0-0.362,0-0.848-0.121-1.331c0-0.484-0.242-1.09-0.363-1.815
			c-0.363-1.332-0.969-2.906-2.058-4.479c-1.09-1.573-2.663-3.146-4.722-4.357c-2.058-1.21-4.479-2.058-7.142-2.3
			c-1.694-0.121-3.511,0-5.326,0.362c-0.968,0.242-1.937,0.484-3.026,0.969c-1.331,0.604-2.542,1.332-3.752,2.3
			c-1.09,0.969-2.18,2.059-3.026,3.269c-0.848,1.211-1.453,2.664-1.938,3.995c-0.363,1.452-0.605,2.905-0.605,4.478
			c0,0.121,0,0.121,0,0.242c0,0.484,0.122,1.089,0.122,1.574c0.12,0.605,0.241,1.089,0.362,1.693
			c0.121,0.364,0.121,0.605,0.243,0.848c0.483,1.332,1.21,2.664,2.057,3.874c0.848,1.211,1.938,2.179,3.026,3.026
			c1.21,0.848,2.421,1.573,3.753,2.059c1.331,0.483,2.663,0.847,3.874,1.088c0.605,0.122,1.331,0.122,2.057,0.243
			c0.605,0,1.333,0,1.938,0l0,0c0.605,0,1.211-0.121,1.816-0.243c0.483-0.12,1.089-0.241,1.573-0.362
			c1.21-0.363,2.421-0.848,3.389-1.453c1.938-1.089,3.512-2.542,4.722-3.994c1.089-1.453,1.816-3.026,2.179-4.237
			C313.111,294.867,313.353,294.263,313.353,293.778z"/>
	</g>
	<path d="M294.591,337.235c1.09,0.122,2.179,0.122,3.147-0.12c0.484-0.121,1.09-0.242,1.574-0.363
		c0.484-0.242,1.089-0.363,1.574-0.727c0.362-0.241,0.726-0.484,1.089-0.969c0.121-0.242,0.242-0.362,0.363-0.725
		c0.121-0.122,0.121-0.363,0.121-0.484c0-0.363,0-0.848-0.121-1.089c0,0,0-0.122-0.121-0.122c-0.242-0.363-0.483-0.605-0.727-0.848
		h-0.121l0,0l-0.725-0.363c-0.243-0.12-0.485-0.242-0.727-0.362c-0.243-0.121-0.484-0.242-0.849-0.242c-0.12,0-0.12,0-0.241,0
		c-0.242,0-0.484,0-0.725,0l-0.849,0.121c0,0-0.121,0-0.241,0c-0.242,0-0.364,0.121-0.605,0.121c-0.242,0.12-0.484,0.12-0.726,0.242
		c0,0,0,0-0.122,0c-0.242,0.12-0.483,0.242-0.727,0.363c-0.362,0.242-0.847,0.604-1.211,0.968c-0.361,0.363-0.726,0.728-0.967,1.09
		c-0.605,0.726-1.09,1.573-1.454,2.421c0.727-0.606,1.454-1.09,2.18-1.573c0.363-0.242,0.726-0.484,1.09-0.727
		c0.362-0.243,0.726-0.363,1.089-0.483c0.242,0,0.363-0.122,0.605-0.243c0.122,0,0.363-0.121,0.483-0.121l0.484-0.121l0,0h0.485
		c0.12,0,0.12,0,0.241,0s0.121,0,0.243,0c0.12,0,0.361,0.121,0.483,0.121c0.363,0.121,0.605,0.242,0.848,0.484l0,0
		c0,0.12-0.242,0.242-0.484,0.484c-0.605,0.483-1.452,0.847-2.301,1.211c-0.847,0.362-1.815,0.605-2.783,0.847
		c-0.484,0.121-0.969,0.121-1.454,0.121c-0.483,0-0.967,0-1.451-0.121c0.363,0.363,0.847,0.605,1.331,0.848
		C293.622,336.994,294.105,337.115,294.591,337.235z"/>
	<g>
		<path fill="#490859" d="M347.248,284.578c-0.484-0.363-0.848-0.605-1.331-0.968c-3.996-2.3-9.079-1.453-13.074-0.121
			c5.689,0.363,13.315,2.059,15.253,9.079c1.21,4.115,1.936,7.02,2.299,9.199c0.848-3.147,1.575-7.626,0.122-11.862
			C350.032,288.089,348.943,286.152,347.248,284.578z"/>
		<path fill="#490859" d="M314.807,271.384c1.331,1.694,2.179,3.874,2.783,5.69c0.969-2.059,1.816-5.085,0.848-7.628
			c0-0.12-0.121-0.241-0.121-0.362c-0.121-0.363-0.363-0.727-0.605-0.969c-0.483-0.604-1.089-1.21-1.937-1.573
			c-1.331-0.727-3.026-1.21-5.084-1.453c-1.331-0.12-2.664-0.242-3.874-0.242c-1.331,0-2.542,0.122-3.752,0.363
			c-0.605,0.122-1.211,0.242-1.816,0.364c-4.6,1.21-7.988,3.51-10.289,5.567c3.874-1.331,9.685-2.905,14.768-2.905
			C309.359,268.357,312.748,269.084,314.807,271.384z"/>
	</g>
	<path d="M316.138,347.647c-0.242-0.362-0.605-0.606-0.969-0.968c-0.362-0.364-0.848-0.728-1.331-0.97
		c-0.484-0.363-1.09-0.605-1.695-0.968c-0.604-0.242-1.21-0.483-1.936-0.727c-0.605-0.121-1.333-0.362-2.059-0.484
		c-0.727-0.12-1.332-0.242-2.058-0.242c-0.727,0-1.331,0-1.936,0s-1.211,0.122-1.816,0.242c-0.604,0-1.09,0.242-1.574,0.242
		c-1.937,0.485-3.268,1.09-3.268,1.09s1.331,0.121,3.268,0.241c0.97,0.122,2.059,0.122,3.268,0.244c0.605,0,1.211,0.12,1.815,0.241
		c0.605,0,1.211,0.242,1.816,0.242c0.605,0.121,1.21,0.242,1.815,0.362c0.605,0.121,1.211,0.243,1.695,0.485
		c0.483,0.241,1.089,0.362,1.573,0.484c0.484,0.241,0.969,0.361,1.453,0.605c0.363,0.241,0.848,0.361,1.21,0.605
		c0.363,0.12,0.605,0.361,0.848,0.483c0.484,0.242,0.727,0.362,0.847,0.483c0,0-0.241-0.362-0.483-0.847
		C316.622,348.252,316.5,347.889,316.138,347.647z"/>
	<path d="M310.811,352.126c-0.363-0.364-0.727-0.605-1.21-0.848c-0.484-0.363-0.97-0.605-1.453-0.848
		c-0.484-0.242-1.09-0.484-1.695-0.726c-0.605-0.242-1.21-0.364-1.815-0.485c-1.211-0.242-2.421-0.484-3.632-0.604
		c-1.21-0.121-2.179,0-3.146,0c-1.816,0.12-3.026,0.604-3.026,0.604s1.21,0.363,2.904,0.727c1.695,0.363,3.996,0.969,6.295,1.452
		c0.605,0.122,1.09,0.242,1.695,0.363c0.483,0.242,1.089,0.242,1.573,0.484c0.484,0.242,0.969,0.242,1.453,0.485
		c0.483,0.12,0.968,0.241,1.331,0.483c0.363,0.121,0.848,0.242,1.09,0.362c0.363,0.122,0.605,0.242,0.848,0.364
		c0.483,0.121,0.725,0.241,0.847,0.241c0,0-0.241-0.363-0.483-0.605C312.143,353.215,311.538,352.731,310.811,352.126z"/>
	<path d="M303.549,358.662c-0.122-0.363-0.364-0.605-0.605-0.969c-0.484-0.604-1.09-1.21-1.815-1.695
		c-0.728-0.483-1.453-0.846-2.18-1.088c-0.727-0.243-1.452-0.363-2.058-0.485c-1.21-0.12-2.058,0-2.058,0s0.605,0.605,1.573,1.211
		c0.968,0.727,2.179,1.453,3.269,2.3c0.363,0.243,0.605,0.363,0.848,0.605c0.241,0.242,0.483,0.363,0.725,0.606
		c0.242,0.242,0.485,0.363,0.727,0.605c0.242,0.242,0.484,0.362,0.605,0.605c0.122,0.242,0.364,0.362,0.485,0.605
		c0.12,0.121,0.242,0.363,0.362,0.483c0.242,0.243,0.363,0.485,0.363,0.485s0.122-0.242,0.122-0.605c0-0.242,0.12-0.484,0-0.726
		c0-0.242-0.122-0.605-0.122-0.848C303.912,359.389,303.79,359.024,303.549,358.662z"/>
	<g>
		<path fill="#BC4589" d="M325.821,246.689c1.333,1.574,2.301,3.511,3.026,5.447c0.122,0.484,0.363,0.968,0.484,1.453
			c0.121-7.143,0.243-10.29,1.453-11.5c0.363-0.363,0.847-0.484,1.331-0.484c4.237,0.121,3.874,15.979,3.752,19.126
			c0,1.211-0.241,4.479-0.604,7.869c0.484,0,1.09-0.122,1.574-0.243c1.211-8.23,2.421-22.999-1.09-27.962
			c-0.605-0.969-1.453-1.453-2.421-1.574c-2.663-0.363-6.295,1.816-10.169,5.206C324.006,244.753,324.974,245.721,325.821,246.689z"
			/>
		<g>
			<path fill="#BC4589" d="M418.91,334.815c-1.21-1.937-3.025-3.51-4.963-4.842c-2.058-1.331-4.237-2.3-6.536-3.268
				c-1.091-0.364-2.301-0.728-3.512-1.09c-0.604-0.121-1.21-0.363-1.815-0.485c-0.606-0.12-1.211-0.24-1.815-0.362l-3.147-0.483
				l2.3-2.059c0.242-0.242,0.364-0.362,0.604-0.484l0.485-0.363c-0.485-0.12-0.969-0.12-1.453-0.242
				c-2.179-0.362-4.236-0.848-6.415-1.453c-4.116-1.21-8.231-2.662-12.105-4.478c-3.874-1.815-7.748-3.753-11.379-6.175
				c-0.969-0.604-1.816-1.21-2.663-1.936c-0.484-0.363-0.847-0.727-1.332-1.09c-0.483-0.363-0.848-0.848-1.21-1.211
				c-1.453-1.694-2.784-3.51-3.632-5.811c-0.121-0.362-0.242-0.604-0.242-0.968l0,0c-0.241-0.848-0.241-1.695-0.121-2.663
				c0-0.121,0-0.121,0-0.243c0.121-0.726,0.363-1.331,0.605-1.936c0.121-0.363,0.363-0.727,0.605-0.969
				c0.242-0.242,0.362-0.484,0.605-0.727c0.362-0.363,0.848-0.727,1.331-0.969c1.938-1.09,4.236-1.21,6.295-0.242
				c2.3,1.211,3.874,2.906,5.205,4.6c1.332,1.816,2.421,3.632,3.511,5.569c0.726,1.453,1.453,2.904,2.058,4.357v-0.12
				c0.242-1.938,0.121-3.874-0.242-5.933c-0.362-1.936-0.725-3.994-1.331-5.931l-1.332-3.996l3.511,2.181
				c0.363,0.241,0.605,0.362,0.848,0.604c0.241,0.241,0.483,0.363,0.725,0.605c0.485,0.483,0.848,0.847,1.211,1.331
				c0.362,0.485,0.726,0.969,0.968,1.573c0.363,0.485,0.605,1.091,0.848,1.574c0.242,0.484,0.363,0.969,0.605,1.452
				c0.12-1.21,0.12-2.421,0-3.631c-0.363-3.148-2.059-5.931-4.357-8.111c-0.606-0.483-1.211-1.089-1.938-1.451
				c-0.363-0.242-0.726-0.485-0.968-0.605l-0.243-0.122h-0.12l0,0h-0.122l0,0l-0.12-0.12l0,0c0,0-0.121-0.122-0.242-0.122
				c-0.483-0.483-0.605-0.968-0.483-1.451c0.12-0.485,0.362-0.848,0.846-1.09c0.242-0.121,0.605-0.243,0.848-0.121
				c0.242,0,0.363,0.121,0.485,0.121h0.12l0.363,0.12c1.695,0.727,3.39,1.574,4.964,2.543c1.573,0.968,3.026,2.179,4.357,3.51
				c0.362,0.364,0.604,0.605,0.968,0.97c-0.121-0.364-0.241-0.848-0.363-1.211c-0.604-1.815-1.815-3.511-3.268-4.722
				c-1.573-1.21-3.389-2.3-5.447-3.146c-1.693-0.728-3.51-1.575-5.205-2.301c-0.242-0.12-0.483-0.242-0.848-0.363l-3.631-1.573
				l3.874-1.09c0.362-0.12,0.604-0.12,0.968-0.242l0.848-0.12c0.605-0.122,1.21-0.122,1.815-0.243c1.211-0.12,2.421-0.12,3.511,0
				c1.211,0.121,2.422,0.243,3.51,0.605c0.485,0.121,0.97,0.242,1.453,0.484l-0.968-0.847c-0.363-0.363-0.605-0.605-0.969-0.848
				c-0.362-0.243-0.727-0.605-1.09-0.848l-1.089-0.727l-1.21-0.605c-0.848-0.363-1.575-0.848-2.421-1.09
				c-0.848-0.363-1.695-0.605-2.543-0.848c-0.848-0.241-1.815-0.484-2.663-0.605c-0.847-0.121-1.816-0.241-2.662-0.363
				c-0.485,0-1.091-0.12-1.575-0.12c-0.363,0-0.726,0-1.089,0h-0.121c-0.363,0-0.847,0-1.211,0c-0.483,0-0.968,0-1.452,0
				c-1.815,0.12-3.631,0.362-5.568,0.726c-0.969,0.242-1.937,0.363-2.905,0.605c-0.847,0.242-1.694,0.484-2.421,0.605
				c-0.242,0.121-0.364,0.121-0.604,0.242c-0.728,0.242-1.333,0.362-2.059,0.604c-0.727,0.243-1.453,0.485-2.179,0.848
				c-0.122,0.121-0.242,0.121-0.364,0.121l-6.173,2.663l4.722-4.842c0.12-0.121,0.241-0.242,0.362-0.363
				c0.363-0.362,0.605-0.605,0.969-0.848c0.484-0.362,0.968-0.604,1.452-0.968c0.969-0.605,1.936-1.09,2.905-1.573
				c1.938-0.97,3.995-1.695,6.053-2.301h0.121h0.121h-0.121c-1.573-0.12-3.269,0-4.842,0.242c-0.968,0.121-1.938,0.363-2.784,0.605
				h-0.121c-0.969,0.242-1.936,0.605-2.905,0.968c-0.604,0.243-1.21,0.485-1.815,0.848c-0.364,0.121-0.605,0.243-0.97,0.363
				c-0.483,0.242-0.968,0.484-1.331,0.726l-0.362,0.122l-0.122,0.12l-0.121,0.122l-0.725,0.363c-0.727,0.483-1.574,0.848-2.421,1.21
				c-0.122,0.121-0.364,0.121-0.484,0.242c-0.726,0.363-1.453,0.605-2.301,0.847c-0.12,0-0.12,0-0.241,0.122
				c-0.242,0.12-0.484,0.12-0.727,0.242c-0.121,0-0.242,0-0.363,0.12c-0.12,0-0.242,0-0.242,0.121
				c-0.363,0.122-0.726,0.122-1.089,0.242c-0.605,0.122-1.09,0.122-1.695,0.122c0,0,0,0-0.12,0c-0.364,0-0.728,0-1.09-0.122
				c-0.243,0-0.485-0.12-0.727-0.12c-0.121,0-0.363-0.122-0.484-0.122l0,0c-0.12-0.121-0.363-0.121-0.484-0.121
				c-0.363-0.12-0.483-0.242-0.969-0.484l0,0l0,0c-0.362-0.241-0.483-0.362-0.726-0.605c-0.122-0.12-0.122-0.12-0.242-0.241
				c-0.121-0.121-0.242-0.242-0.242-0.242c-0.121,0-0.121-0.121-0.121-0.242c-0.362-0.484-0.605-0.968-0.848-1.453
				c0,0,0-0.12-0.12-0.12c-0.242-0.484-0.364-0.968-0.484-1.453c-0.121-0.484-0.243-0.968-0.363-1.573
				c-0.242-1.09-0.242-2.058-0.363-3.026c0-0.484,0-0.968,0-1.573v-1.453l0,0c-0.364-3.632-1.452-7.143-3.631-9.805
				c-0.848-0.969-1.695-1.816-2.785-2.542c-0.363-0.243-0.727-0.484-1.089-0.727c-0.122-0.121-0.242-0.121-0.242-0.242
				c-0.243-0.121-0.605-0.364-0.848-0.485c-0.483-0.242-0.969-0.484-1.574-0.605c0.243,0.363,0.485,0.848,0.605,1.21
				c0,0.121,0,0.121,0.121,0.121c0.242,0.363,0.364,0.848,0.605,1.21c0.242,0.364,0.363,0.727,0.604,1.089
				c0.242,0.485,0.364,0.848,0.605,1.332c1.09,2.542,2.059,5.084,2.785,7.747l0,0l0,0l0,0l0,0l0,0
				c-1.574-2.299-3.026-4.6-4.358-7.02l-0.363-0.605l-0.605-1.089l-0.604-1.089l-0.485-0.727l-0.968-1.695
				c-0.363-0.605-0.726-1.09-1.089-1.574l-0.122-0.121v-0.121v-0.121c-0.242-0.364-0.604-0.605-0.848-0.969
				c-0.726-0.968-1.573-1.815-2.421-2.663c-0.846-0.848-1.693-1.694-2.541-2.421l-1.331-1.089l-1.453-0.969
				c-0.968-0.605-1.937-1.211-3.026-1.816c-1.09-0.484-2.058-0.968-3.148-1.452c-0.968-0.364-2.057-0.605-3.146-0.848
				c0.968,0.727,1.815,1.573,2.784,2.3c1.815,1.574,3.51,3.147,5.205,4.721c0,0,0.12,0.122,0.242,0.122l8.231,7.747l-9.805-5.81
				c-0.121,0-0.121-0.122-0.242-0.122c-0.484-0.363-1.089-0.605-1.694-0.847c-0.728-0.364-1.332-0.605-2.06-0.969
				c-1.331-0.606-2.782-1.089-4.236-1.332c-2.422-0.605-5.084-0.847-7.505-0.484c0.485,0.121,0.847,0.121,1.331,0.242
				c1.575,0.363,3.147,0.847,4.602,1.452c0.726,0.243,1.451,0.605,2.177,0.969c0.605,0.363,1.211,0.605,1.938,1.09
				c0.122,0,0.243,0.121,0.243,0.121l9.441,5.81l-10.531-3.51c-0.121,0-0.241,0-0.241-0.121c-0.485-0.122-1.091-0.363-1.575-0.363
				c-0.605-0.121-1.331-0.242-1.937-0.363c-1.331-0.242-2.541-0.363-3.874-0.363c-1.938,0-3.994,0.242-5.81,0.847
				c0.847,0.242,1.573,0.363,2.421,0.605c2.421,0.726,4.842,1.452,7.263,2.3c0.241,0.121,0.485,0.121,0.727,0.242l4.236,1.453
				l-4.357,1.089c-0.848,0.242-1.695,0.484-2.542,0.848c-0.849,0.363-1.694,0.726-2.542,1.089c-1.694,0.726-3.269,1.694-4.721,2.784
				c-1.454,1.09-2.785,2.301-3.875,3.632c-0.241,0.242-0.361,0.484-0.605,0.727l1.454-0.848c1.694-0.968,3.389-1.815,5.204-2.543
				c1.815-0.846,3.632-1.573,5.569-2.057c0.968-0.242,2.058-0.484,3.268-0.363c0.604,0.121,1.331,0.242,2.057,0.727
				c0.727,0.605,1.09,1.452,1.211,2.179v0.242v0.242c-0.484,2.179-1.211,4.357-2.3,6.416c-1.089,2.058-2.543,3.994-4.479,5.447
				c-0.484,0.362-0.968,0.726-1.573,0.968c-1.573,0.968-3.389,1.453-5.084,1.695c-2.301,0.362-4.722,0.12-6.899-0.364
				c-4.48-0.968-8.595-3.026-12.349-5.447c-1.815-1.211-3.631-2.542-5.325-3.994c-1.694-1.453-3.268-3.026-4.842-4.6
				c-0.727-0.848-1.453-1.695-2.179-2.542l-1.937-2.543c-1.332-1.573-2.785-3.026-4.359-4.479c-1.573-1.332-3.147-2.663-4.963-3.753
				c-1.816-1.089-3.632-2.058-5.448-2.784c-1.937-0.726-3.873-1.09-5.81-0.969c-0.727,0-1.574,0.121-2.3,0.364
				c0.484,0.12,0.968,0.242,1.452,0.363c1.089,0.363,2.3,0.726,3.39,1.453c1.089,0.726,2.057,1.695,2.784,2.784l1.573,2.542
				l-3.026-0.242c-0.484,0-1.089,0-1.574-0.121c-0.605,0-1.089,0-1.694,0c-1.089,0-2.3,0.121-3.39,0.242
				c-1.089,0.121-2.179,0.363-3.268,0.605c-1.089,0.242-2.179,0.605-3.147,0.968c-0.484,0.243-1.089,0.364-1.573,0.605
				c-0.485,0.242-0.969,0.485-1.453,0.727l-0.727,0.363l0,0h-0.121l-0.121,0.121c0.121,0,0.363,0,0.484,0
				c0.968,0,1.937,0,2.905-0.121c0.121,0,0.242,0,0.363,0l10.532-1.09l-9.805,3.874c-0.484,0.242-0.968,0.484-1.452,0.726
				c-0.122,0-0.122,0.122-0.243,0.122c-0.363,0.242-0.726,0.362-0.968,0.605l-0.122,0.12c-0.363,0.242-0.726,0.484-1.089,0.727
				c-0.121,0.121-0.363,0.241-0.484,0.363c-0.242,0.242-0.484,0.483-0.847,0.726c-1.574,1.453-2.785,3.026-3.752,4.964
				c-0.968,1.816-1.574,3.873-1.937,5.931c0,0.243-0.122,0.485-0.122,0.848c2.664-4.116,6.174-7.505,10.411-10.047
				c0.121-0.121,0.364-0.242,0.484-0.242c0.363-0.242,0.848-0.484,1.21-0.605l1.21-0.604c2.3-1.091,4.6-1.816,6.9-2.301
				c7.505-2.179,14.284-1.574,19.973,1.938c2.421,1.453,4.6,3.389,6.536,5.689c4.48,5.326,7.99,13.073,10.533,23.12
				c0.12,0.605,0.241,1.09,0.361,1.695c0.122,0.605,0.244,1.089,0.364,1.694c0.12,0.363,0.12,0.605,0.241,0.968
				c2.18,10.653,7.868,17.069,13.56,20.943c2.782-0.848,6.414-0.728,10.409,0.362c0.847,0.243,1.695,0.484,2.542,0.848
				c7.748,2.905,15.374,8.595,18.884,14.526c7.264,3.026,13.558,4.237,19.489,4.479l0,0c0.727,0,1.574,0,2.301,0
				c0.726,0,1.452,0,2.179,0c5.69-0.241,11.258-1.211,17.311-2.3c6.052-1.09,12.226-2.179,19.488-2.784
				c11.259-0.848,19.732,2.784,25.301,10.652c3.511,4.963,5.084,10.895,4.962,16.947c0.243,0,0.485,0,0.728,0.121
				c0.968,0.242,1.694,0.848,2.179,1.452c0.484,0.605,0.848,1.211,1.09,1.816c0.241,0.605,0.363,1.21,0.605,1.815
				c0.12,0.363,0.12,0.605,0.241,0.969l0,0c0.121-0.484,0.242-0.969,0.364-1.574c0.12-0.968,0.24-2.058,0.362-3.146
				c0-1.09,0-2.18,0-3.268c0-0.484,0-1.09-0.122-1.573c0-0.364,0-0.605-0.12-0.97c0-0.241,0-0.483-0.12-0.605l-0.848-6.293
				l3.631,5.204c0.121,0.121,0.242,0.363,0.363,0.484c0.483,0.605,0.968,1.21,1.453,1.816c0.605,0.726,1.21,1.453,1.815,1.815
				c0-0.12,0-0.12,0-0.12v-0.363c0-0.242,0-0.362,0-0.606c0-0.362-0.122-0.848-0.122-1.332c-0.362-1.815-1.21-3.632-2.058-5.447
				c-0.483-0.847-0.969-1.815-1.452-2.662c-0.484-0.848-1.09-1.695-1.574-2.543l-2.542-3.632l4.237,1.333
				c0.484,0.12,0.968,0.362,1.452,0.483c0.484,0.242,0.969,0.362,1.331,0.605c0.969,0.362,1.816,0.848,2.784,1.332
				c0.728,0.362,1.333,0.726,1.938,1.21c-0.121-0.242-0.121-0.484-0.242-0.604C419.516,335.784,419.273,335.299,418.91,334.815z
				 M285.754,273.32c0.121-0.242,2.3-3.389,6.416-6.173c2.783-1.938,6.537-3.753,11.257-4.479c0.605-0.12,1.09-0.12,1.695-0.242
				c0.483,0,1.089-0.12,1.573-0.12c1.453,0,2.906,0,4.48,0.242c4.479,0.605,7.506,2.179,9.079,4.72
				c0.12,0.243,0.242,0.485,0.362,0.728c0.121,0.241,0.121,0.362,0.243,0.605c0.12,0.362,0.242,0.846,0.362,1.331
				c0.969,5.084-2.663,10.773-2.784,11.015l-1.573,2.421l-0.605-2.904c0,0-0.969-4.842-3.147-7.626
				c-3.51-3.874-13.073-2.058-19.974,0.121c-2.421,0.726-4.479,1.573-5.811,2.179l-3.874,1.573L285.754,273.32z M306.938,305.399
				c-0.727,0.484-1.452,0.848-2.3,1.21c-0.483,0.242-0.848,0.363-1.331,0.605c-0.484,0.122-0.969,0.363-1.573,0.484
				c-0.848,0.243-1.695,0.363-2.543,0.484c-0.726,0.121-1.453,0.121-2.3,0.121c-0.727,0-1.332,0-2.18-0.121
				c-0.847-0.121-1.573-0.241-2.299-0.484c-0.727-0.242-1.453-0.484-2.301-0.727c-1.453-0.605-2.904-1.452-4.236-2.421
				c-1.331-0.969-2.542-2.179-3.51-3.632c-0.97-1.331-1.695-2.904-2.301-4.477c-0.363-0.97-0.484-2.059-0.605-3.148
				c0-0.483-0.12-0.968-0.12-1.453c0-0.12,0-0.241,0-0.483c0-0.362,0-0.605,0.12-0.968c0.121-1.332,0.363-2.785,0.848-3.996
				c0.605-1.573,1.453-3.026,2.421-4.358c0.969-1.21,2.059-2.179,3.149-3.146c-0.244,0.12-0.364,0.241-0.485,0.363
				c1.452-2.301,4.478-4.237,7.748-5.205c4.599-1.453,10.046-1.575,13.678,0.362c10.169,6.778,8.958,18.4,7.143,21.063
				c0,0,0,0,0-0.12c0,0.12-0.121,0.362-0.121,0.484c-0.364,1.089-0.727,2.299-1.452,3.632c-0.243,0.362-0.485,0.726-0.727,1.088
				C310.69,302.373,309.117,303.946,306.938,305.399z M343.496,317.262c-0.122,0.242-0.242,0.485-0.485,0.728
				c-1.09,1.815-2.663,3.631-4.842,5.084c-1.331,0.969-2.905,1.694-4.479,2.3c-0.483,0.121-0.968,0.362-1.573,0.484
				c-0.605,0.12-1.09,0.242-1.695,0.363l0,0c-0.726,0.12-1.451,0.12-2.299,0.12c-0.728,0-1.453,0-2.301-0.12
				c-1.693-0.121-3.146-0.727-4.72-1.331c-1.575-0.605-2.906-1.575-4.237-2.664c-1.332-1.09-2.421-2.421-3.391-3.874
				c-0.968-1.452-1.693-3.026-2.179-4.6v-0.121c-0.12-0.484-0.242-1.089-0.362-1.574c-0.121-0.483-0.242-1.088-0.242-1.573
				c-0.121-0.726-0.121-1.331-0.121-2.058c0-1.574,0.363-3.51,0.848-5.085c0.363-1.21,0.969-2.421,1.573-3.51
				c0.242-0.362,0.483-0.727,0.727-1.09c0.968-1.453,2.179-2.663,3.389-3.632c1.332-0.968,2.785-1.936,4.237-2.541
				c0.484-0.242,0.969-0.363,1.452-0.606c5.569-3.269,15.737-1.453,20.216,3.752c2.059,2.906,3.026,5.689,3.512,8.474
				C347.49,310.121,345.311,315.325,343.496,317.262z M351.122,307.215l-2.301,4.479v-5.085c0,0,0-0.848-0.363-3.026
				c-0.362-2.058-1.09-5.447-2.541-10.409c-2.663-9.321-18.885-7.143-19.127-7.143l-6.053,0.848l5.326-3.026
				c0.363-0.242,5.447-3.147,11.258-3.874c0.484-0.121,1.09-0.121,1.573-0.121l0,0c1.453-0.121,3.026,0,4.479,0.243
				c0.605,0.12,1.332,0.362,1.938,0.483c0.847,0.362,1.694,0.727,2.421,1.21c0.483,0.242,0.847,0.605,1.211,0.969
				c1.936,1.938,3.146,3.995,3.994,6.052c0.363,1.091,0.605,2.058,0.848,3.148c0.12,0.848,0.241,1.573,0.241,2.421
				C354.269,301.042,351.364,306.852,351.122,307.215z"/>
			<path fill="#A42574" d="M278.733,313.39c-0.242,0.362-0.364,0.726-0.484,1.21c-4.479,11.378,6.415,22.03,7.626,23.241
				c4.478,2.301,14.163,4.236,20.941,1.21c1.453-0.605,2.785-1.451,3.753-2.541c0.363-0.363,0.605-0.726,0.969-1.09
				c0.242-0.363,0.484-0.726,0.726-1.089c0.484-0.848,0.848-1.695,1.09-2.663c0.484-1.816,0-3.995-1.09-6.174
				c-0.363-0.604-0.726-1.21-1.211-1.815c-0.483-0.728-1.089-1.453-1.815-2.18c-3.752-4.115-9.441-7.989-15.132-10.168
				c-1.693-0.605-5.567-1.938-9.078-1.573c-0.605,0-1.331,0.12-1.936,0.363c-0.485,0.12-0.969,0.242-1.331,0.483
				c-0.848,0.364-1.575,0.969-2.18,1.815C279.217,312.542,278.975,312.904,278.733,313.39L278.733,313.39z M293.138,333.604
				c0.242-0.362,0.605-0.726,0.968-1.088c0.364-0.363,0.728-0.605,1.211-0.969c0.242-0.122,0.484-0.242,0.727-0.364c0,0,0,0,0.121,0
				c0.242-0.12,0.484-0.241,0.727-0.241c0.241-0.121,0.363-0.121,0.605-0.121c0.121,0,0.121,0,0.241,0l0.848-0.121
				c0.242,0,0.484,0,0.727,0c0,0,0.121,0,0.241,0c0.243,0,0.605,0.121,0.848,0.242c0.243,0.121,0.605,0.121,0.728,0.363l0.726,0.363
				l0,0h0.121c0.243,0.242,0.484,0.484,0.727,0.848c0,0,0,0.12,0.122,0.12c0.12,0.363,0.241,0.728,0.12,1.09
				c0,0.121,0,0.363-0.12,0.483c-0.122,0.242-0.244,0.485-0.364,0.727c-0.363,0.483-0.726,0.726-1.09,0.968
				c-0.483,0.363-1.089,0.605-1.572,0.726c-0.485,0.243-1.09,0.364-1.575,0.364c-1.09,0.241-2.179,0.241-3.146,0.121
				c-0.484-0.121-1.09-0.121-1.574-0.363c-0.483-0.122-0.968-0.484-1.331-0.848C292.049,335.179,292.532,334.331,293.138,333.604z
				 M282.849,325.01c0-0.605,0.121-1.09,0.362-1.695c0.242-0.605,0.485-1.21,1.211-1.816c0.242-0.121,0.484-0.241,0.848-0.363
				c0.242,0,0.484-0.12,0.727,0c0.483,0.122,0.847,0.363,1.211,0.484h0.12l0,0l0.605,0.605c0.242,0.242,0.363,0.363,0.484,0.605
				c0.121,0.242,0.363,0.483,0.363,0.725c0.12,0.242,0.242,0.485,0.242,0.848v0.121l0.121,0.727c0,0.242,0,0.605,0,0.848
				c0,0.241-0.121,0.483-0.121,0.847c0,0.243-0.122,0.484-0.242,0.727c-0.122,0.483-0.363,0.969-0.605,1.333
				c-0.242,0.361-0.484,0.846-0.848,1.21c-0.604,0.726-1.21,1.452-2.058,1.937c-0.483-0.242-0.848-0.605-1.211-1.09
				c-0.362-0.484-0.605-0.969-0.726-1.452c-0.363-0.969-0.606-2.059-0.606-3.148C282.849,326.1,282.849,325.615,282.849,325.01z"/>
		</g>
	</g>
	<path d="M293.018,273.078c6.899-2.179,16.342-3.994,19.973-0.12c2.179,2.783,3.147,7.626,3.147,7.626l0.605,2.905l1.573-2.421
		c0.242-0.242,3.874-5.932,2.785-11.017c-0.122-0.483-0.242-0.847-0.364-1.331c-0.121-0.242-0.121-0.363-0.241-0.605
		c-0.122-0.242-0.242-0.484-0.364-0.726c-1.573-2.543-4.6-4.116-9.079-4.722c-1.573-0.242-3.026-0.242-4.478-0.242
		c-0.484,0-1.09,0-1.575,0.122c-0.605,0-1.088,0.12-1.693,0.241c-4.6,0.727-8.353,2.543-11.258,4.479
		c-4.116,2.784-6.295,5.933-6.417,6.175l-2.299,3.389l3.874-1.573C288.538,274.531,290.717,273.806,293.018,273.078z
		 M301.248,265.574c0.605-0.122,1.211-0.242,1.816-0.364c1.21-0.241,2.421-0.363,3.752-0.363c1.21,0,2.543,0,3.874,0.242
		c2.058,0.243,3.753,0.727,5.084,1.453c0.726,0.483,1.453,0.969,1.937,1.573c0.242,0.363,0.484,0.605,0.605,0.969
		c0.121,0.121,0.121,0.242,0.121,0.362c0.969,2.422,0.121,5.447-0.848,7.628c-0.604-1.816-1.452-3.996-2.783-5.69
		c-2.059-2.3-5.447-3.026-9.079-3.026c-5.084,0-10.774,1.574-14.768,2.905C293.26,269.084,296.648,266.784,301.248,265.574z"/>
	<path d="M283.575,329.731c0.241,0.483,0.483,0.968,0.726,1.451c0.243,0.485,0.727,0.848,1.211,1.09
		c-0.242-0.484-0.363-0.968-0.484-1.331c-0.121-0.484-0.121-0.969-0.241-1.452c0-0.969,0-1.938,0.12-2.784
		c0.121-0.97,0.242-1.815,0.605-2.543c0.12-0.242,0.242-0.483,0.363-0.605l0,0l0,0l0,0c0.242,0.242,0.484,0.485,0.604,0.728
		c0.122,0.12,0.243,0.241,0.243,0.362c0,0.121,0.12,0.243,0.242,0.483l0.12,0.485l0.122,0.484c0,0.121,0,0.363,0,0.605
		c0,0.241,0,0.363,0,0.605c0,0.362-0.122,0.726-0.242,1.21c-0.122,0.363-0.242,0.847-0.363,1.211
		c-0.242,0.847-0.727,1.693-1.09,2.541c0.726-0.604,1.453-1.21,2.058-1.936c0.363-0.364,0.605-0.728,0.848-1.211
		c0.241-0.364,0.483-0.848,0.605-1.332c0.121-0.242,0.121-0.483,0.241-0.726c0-0.243,0.122-0.485,0.122-0.848
		c0-0.243,0-0.605,0-0.848l-0.122-0.727v-0.12c0-0.241-0.12-0.485-0.241-0.847c-0.122-0.243-0.242-0.484-0.364-0.728
		c-0.12-0.242-0.361-0.483-0.483-0.604l-0.605-0.605l0,0h-0.121c-0.362-0.242-0.605-0.363-1.211-0.483c-0.241,0-0.483,0-0.726,0
		c-0.363,0-0.605,0.12-0.848,0.361c-0.848,0.605-1.089,1.211-1.211,1.816c-0.242,0.604-0.242,1.21-0.362,1.694
		c0,0.485-0.121,1.091,0,1.575C282.97,327.673,283.211,328.762,283.575,329.731z"/>
	<path fill="#440338" d="M290.596,276.469c2.905-1.09,5.932-1.332,8.716-1.09c2.784,0.362,5.326,1.331,7.384,2.541
		c2.059,1.211,3.753,2.785,4.843,4.359c1.21,1.573,1.936,3.147,2.421,4.6c0.242,0.726,0.362,1.331,0.484,1.815
		c0.121,0.605,0.241,0.968,0.241,1.453c0,0.725,0.122,1.21,0.122,1.21l0,0c0,0,0,0.363,0,1.211c0,0.362,0,0.848-0.122,1.453
		c0,0.483-0.12,0.968-0.241,1.451c0,0,0,0,0,0.122c1.815-2.784,3.026-14.284-7.143-21.063c-3.632-1.937-9.079-1.816-13.679-0.363
		c-3.389,1.09-6.295,2.906-7.747,5.205c0.121-0.12,0.362-0.242,0.484-0.363c0.12-0.12,0.242-0.12,0.363-0.242
		C287.69,277.8,289.144,277.074,290.596,276.469z"/>
	<g>
		<path fill="#600039" d="M294.591,336.025c0.968-0.241,1.815-0.484,2.783-0.847c0.848-0.364,1.695-0.728,2.301-1.211
			c0.242-0.121,0.363-0.364,0.483-0.484l0,0c-0.241-0.12-0.605-0.363-0.847-0.484c-0.121,0-0.363-0.121-0.484-0.121
			c-0.12,0-0.12,0-0.242,0c-0.12,0-0.12,0-0.242,0h-0.483l0,0l-0.485,0.121c-0.12,0-0.362,0.121-0.483,0.121
			c-0.242,0-0.363,0.121-0.604,0.243c-0.364,0.12-0.728,0.362-1.091,0.483c-0.362,0.242-0.726,0.484-1.09,0.727
			c-0.726,0.483-1.451,1.089-2.179,1.573c0.485,0.121,0.969,0.121,1.453,0.121C293.622,336.147,294.105,336.025,294.591,336.025z"/>
		<path fill="#600039" d="M286.843,328.521c0.122-0.364,0.242-0.848,0.242-1.21c0-0.242,0-0.364,0-0.605c0-0.242,0-0.364,0-0.605
			l-0.12-0.484l-0.122-0.485c0-0.12-0.12-0.24-0.241-0.483c0-0.121-0.122-0.242-0.242-0.362c-0.122-0.242-0.484-0.485-0.605-0.728
			l0,0l0,0l0,0c0,0.122-0.242,0.363-0.363,0.605c-0.363,0.728-0.484,1.695-0.604,2.543c-0.122,0.968-0.122,1.815-0.122,2.784
			c0,0.483,0.122,0.968,0.242,1.452c0.121,0.483,0.242,0.969,0.484,1.331c0.363-0.848,0.727-1.694,1.089-2.541
			C286.602,329.367,286.723,329.004,286.843,328.521z"/>
	</g>
	<path d="M262.27,317.747c0.363,0.362,0.727,0.726,1.09,1.09c0.363,0.362,0.848,0.846,1.211,1.331
		c0.483,0.484,0.848,0.968,1.331,1.573c0.484,0.484,0.968,1.09,1.452,1.573c0.485,0.605,1.091,1.09,1.574,1.695
		c1.09,1.09,2.179,2.179,3.147,3.268c0.969,0.968,2.058,1.937,2.904,2.663c1.574,1.452,2.784,2.422,3.026,2.422
		c-0.12-0.122-0.726-1.575-1.936-3.391c-0.605-0.969-1.453-2.058-2.301-3.268c-0.848-1.211-1.936-2.301-2.904-3.391
		c-1.09-1.089-2.181-2.179-3.269-3.147c-1.091-0.969-2.179-1.816-3.148-2.421c-0.483-0.363-0.968-0.605-1.452-0.848
		c-0.484-0.243-0.847-0.363-1.21-0.483c-0.605-0.243-0.97-0.243-0.97-0.364c0,0,0.364,0.364,0.727,0.726
		C261.664,317.142,261.906,317.504,262.27,317.747z"/>
	<path d="M257.912,336.63c0.242,0,0.606,0.243,0.968,0.243c0.363,0.121,0.727,0.242,1.211,0.362
		c0.363,0.122,0.848,0.242,1.331,0.364c0.848,0.241,1.815,0.605,2.785,0.847c1.937,0.484,3.994,0.969,5.447,1.21
		c1.573,0.242,2.662,0.242,2.662,0.242s-0.847-0.725-2.179-1.573c-1.331-0.848-3.269-1.695-5.325-2.3
		c-2.059-0.605-4.237-0.847-5.811-0.605c-0.363,0-0.726,0.121-1.089,0.242c-0.363,0.122-0.605,0.242-0.848,0.242
		c-0.484,0.242-0.605,0.363-0.605,0.363s0.242,0,0.726,0C257.307,336.51,257.549,336.63,257.912,336.63z"/>
	<path d="M258.154,327.915c0.363,0.121,0.726,0.363,1.211,0.484c0.483,0.242,0.846,0.484,1.451,0.727
		c0.485,0.241,0.97,0.483,1.575,0.726c1.089,0.605,2.179,1.211,3.268,1.695c1.09,0.605,2.3,1.211,3.39,1.816
		c1.089,0.604,2.058,1.088,2.905,1.573c1.573,0.848,2.905,1.331,3.025,1.452c-0.12-0.121-0.847-1.21-2.179-2.542
		c-0.726-0.727-1.573-1.453-2.663-2.179c-0.968-0.727-2.179-1.453-3.269-2.179c-1.21-0.606-2.421-1.211-3.632-1.574
		c-1.21-0.363-2.421-0.604-3.389-0.847c-0.483,0-0.969-0.122-1.331-0.122c-0.363,0-0.728,0-1.09,0c-0.605,0-0.969,0.122-0.969,0.122
		s0.363,0.12,0.848,0.362C257.428,327.673,257.79,327.794,258.154,327.915z"/>
	<g>
		<path fill="#E8E8E8" d="M373.153,352.367c0.121-0.363,0.241-0.847,0.363-1.211c0.242-1.089,0.483-2.057,0.726-2.904
			c0.122-0.484,0.122-0.968,0.242-1.332c0.121-0.483,0.121-0.969,0.121-1.331c0-0.605,0-0.969,0-1.09
			c-0.241-1.574-0.847-2.422-1.452-2.784c-0.727,1.09-1.453,2.179-2.18,3.269c-0.241,0.362-0.605,0.848-0.847,1.21
			c-0.242,0.363-0.606,0.848-0.969,1.211c-0.121,0.242-0.363,0.484-0.605,0.726c-0.241,0.364-0.483,0.605-0.727,0.97
			c-0.242,0.363-0.484,0.605-0.847,0.968c-0.727,0.848-1.453,1.694-2.3,2.421v15.615c3.994-4.963,6.416-10.168,7.868-14.284
			C372.911,353.094,373.031,352.731,373.153,352.367z"/>
		<path fill="#E8E8E8" d="M362.379,354.667c-3.146,2.906-6.778,5.568-10.773,7.869l-2.784,17.915
			c5.205-2.542,9.685-5.811,13.558-9.805V354.667L362.379,354.667z"/>
		<path fill="#E8E8E8" d="M328.242,386.021c6.658-0.728,12.59-2.181,18.037-4.359l2.784-17.794
			c-4.842,2.421-10.047,4.236-15.857,5.326L328.242,386.021z"/>
		<path fill="#E8E8E8" d="M311.175,369.678l-4.964,16.101c1.695,0.242,3.269,0.362,4.964,0.483c5.084,0.363,9.927,0.363,14.404,0
			l4.842-16.583C324.49,370.404,318.075,370.524,311.175,369.678z"/>
		<path fill="#E8E8E8" d="M282.243,380.209c7.021,2.421,14.163,4.236,21.547,5.206l4.964-16.1
			c-6.175-0.969-12.832-2.662-19.731-5.326L282.243,380.209z"/>
		<path fill="#E8E8E8" d="M267.839,354.063l-7.99,15.131c2.058,1.331,4.116,2.542,6.174,3.632c4.479,2.542,9.079,4.722,13.921,6.537
			l6.658-16.222c-4.116-1.695-8.474-3.631-12.832-5.932C271.711,356.241,269.654,355.152,267.839,354.063z"/>
		<path fill="#E8E8E8" d="M265.78,352.731c-5.69-3.512-10.289-7.264-14.163-11.38l-8.111,15.132
			c4.48,4.236,9.442,8.11,14.406,11.257L265.78,352.731z"/>
		<path fill="#E8E8E8" d="M249.801,339.536c-3.148-3.632-5.81-7.264-7.868-11.137l-10.652,13.315
			c2.905,4.722,6.415,9.079,10.29,13.073L249.801,339.536z"/>
		<path fill="#E8E8E8" d="M240.723,326.1c-2.3-4.722-3.995-9.321-5.084-13.921l-11.379,11.016c0.969,5.932,3.026,11.379,5.69,16.342
			L240.723,326.1z"/>
		<path fill="#E8E8E8" d="M223.533,315.325c0,1.695,0.121,3.27,0.242,4.843l11.258-10.774c-0.968-4.842-1.331-9.441-1.331-13.557
			l-9.805,7.504C223.049,309.999,223.533,315.205,223.533,315.325z"/>
		<path fill="#E8E8E8" d="M235.154,279.615c-6.415,5.205-9.321,13.195-10.652,20.216l9.2-7.143
			C233.822,286.999,234.549,282.399,235.154,279.615z"/>
	</g>
	<polygon points="137.102,424.151 137.95,424.635 137.95,423.304 137.95,422.214 137.95,423.425 	"/>
	<g>
		<path fill="#F6B7BF" d="M375.21,439.646c1.453-0.242,2.785-0.484,4.116-0.848c0.363-0.12,0.848-0.242,1.211-0.362
			c0.726-0.242,1.453-0.485,2.179-0.727c0.242-0.12,0.484-0.241,0.848-0.241c0.968-0.364,1.815-0.727,2.784-1.21
			c0.362-0.242,0.848-0.364,1.21-0.605c0.969-0.484,1.816-1.09,2.663-1.695c0.243-0.12,0.485-0.363,0.727-0.605
			c0.727-0.605,1.452-1.21,2.058-1.815c0.363-0.242,0.605-0.605,0.848-0.848c0.485-0.483,0.969-0.968,1.331-1.573
			c0.242-0.242,0.364-0.485,0.605-0.726c0.242-0.243,0.484-0.605,0.605-0.848c0.242-0.243,0.484-0.605,0.605-0.969
			c1.21-1.695,2.18-3.632,2.905-5.812c0.12-0.362,0.242-0.726,0.363-0.968c0.362-0.969,0.604-1.815,0.848-2.784
			c0.12-0.363,0.12-0.605,0.242-0.968l0,0c-1.573-7.385-3.632-12.711-5.933-15.616C396.153,409.02,395.306,431.655,375.21,439.646z"
			/>
		<g>
			<g>
				<path fill="#DB8FAD" d="M362.017,260.489l0.726,0.121c0.605-0.726,0.968-1.211,1.09-1.573c0,0,0,0-0.122,0
					c-0.726,0-2.179,0.362-4.357,1.331C360.2,260.368,361.169,260.368,362.017,260.489z"/>
				<path fill="#DB8FAD" d="M331.874,253.105c0,2.059-0.12,4.48-0.12,6.9c-0.122,2.059-0.243,4.116-0.243,5.932
					c0.121,0.243,0.363,0.483,0.485,0.727c0.12,0.121,0.241,0.242,0.362,0.362c0,0.122,0.243,0.242,0.243,0.242l0,0l0.241,0.122
					c0,0,0.121,0,0.242,0.121c0.242-2.179,0.484-4.722,0.604-7.626c0.363-8.474-0.604-13.921-1.21-15.858
					C331.996,245.963,331.874,249.715,331.874,253.105z"/>
			</g>
			<g>
				<path fill="#F6B7BF" d="M374.969,324.768c-7.143,0.605-13.315,1.695-19.247,2.784c-4.963,0.848-9.563,1.815-14.284,2.18
					c-0.605,0.12-1.332,0.12-1.938,0.12c-0.726,0-1.331,0.121-2.057,0.121c-6.779,0.242-13.801-0.605-21.789-3.752
					c0.604,1.936,0.726,3.752,0.241,5.447c-0.241,0.848-0.484,1.695-0.969,2.421c-0.242,0.362-0.362,0.726-0.605,1.09
					c-0.242,0.362-0.483,0.726-0.726,1.089c-1.332,1.815-3.269,3.268-5.569,4.236c-2.783,1.211-6.052,1.695-9.199,1.695
					c-4.963,0-9.805-1.21-13.073-2.663c-1.573,2.421-5.689,9.321-6.415,16.584l-0.605-0.122c40.915,20.096,70.572,9.565,86.43-8.351
					c0.242-0.362,0.485-0.606,0.848-0.968c0.242-0.242,0.484-0.485,0.605-0.848l0.12-0.122c0.243-0.363,0.605-0.726,0.848-1.089
					c0.363-0.362,0.605-0.848,0.969-1.21c1.21-1.574,2.3-3.269,3.269-4.964c-0.483-0.241-0.969-0.483-1.573-0.727
					c-1.211-0.484-2.301-0.968-3.268-1.331c-1.936-0.727-3.39-1.09-3.39-1.09s1.453-0.362,3.632-0.242
					c0.605,0,1.09,0.122,1.815,0.242c0.605,0.121,1.331,0.242,1.937,0.485c0.605,0.241,1.332,0.361,2.058,0.726
					c0.728,0.242,1.333,0.605,1.938,0.968c0.605,0.363,1.211,0.848,1.816,1.211c0.605,0.362,1.089,0.968,1.693,1.332
					c0.485,0.483,0.969,0.967,1.333,1.452c0.483,0.484,0.726,0.969,1.089,1.452c0.362,0.485,0.604,0.848,0.848,1.211
					c0.242,0.363,0.362,0.727,0.484,1.09c0.12,0.363,0.241,0.605,0.362,0.726c0,0.122,0,0.122,0,0.122s-0.121-0.122-0.242-0.122
					c-0.12-0.12-0.362-0.242-0.604-0.483c-0.243-0.242-0.485-0.484-0.848-0.727c-0.363-0.363-0.727-0.605-1.089-0.969
					c-0.364-0.362-0.848-0.726-1.333-1.09c-0.483-0.362-0.968-0.726-1.452-1.089c-0.121,0-0.121-0.121-0.241-0.121
					c0.12,0.484,0.241,0.969,0.362,1.574c0,0.241,0,0.968-0.121,1.815c0,0.363-0.121,0.847-0.241,1.331
					c0,0.363-0.122,0.848-0.242,1.331c-0.243,1.091-0.485,2.422-0.969,3.874c-0.121,0.363-0.242,0.848-0.364,1.211
					c-0.12,0.363-0.241,0.727-0.362,1.21c-1.694,4.964-4.721,10.896-9.685,16.464c-0.242,0.363-0.605,0.605-0.848,0.969
					c-10.652,11.137-25.904,16.704-45.757,16.704c-2.421,0-4.963-0.12-7.506-0.242c-4.115-0.242-8.23-0.726-12.226-1.573
					c-2.905-0.484-5.81-1.21-8.716-1.936h-0.12c-2.664-0.727-5.205-1.452-7.748-2.421c-6.053-2.058-11.863-4.722-17.431-7.748
					c-19.732-11.015-43.337-30.263-43.701-59.557c0-0.484-0.726-7.384,0.848-15.737c0-0.362,0.121-0.848,0.243-1.21
					c0.242-1.453,0.605-2.784,1.089-4.237c1.815-5.931,4.842-11.983,10.168-16.463c-0.484-0.121-0.968-0.242-1.453-0.242
					c-2.058-0.362-3.632-0.604-3.632-0.604s1.453-0.605,3.632-0.848c1.09-0.121,2.421-0.121,3.874,0
					c0.484,0,0.968,0.121,1.453,0.121c0.242,0,0.484,0.121,0.726,0.121c0.727,0.12,1.332,0.242,2.058,0.484h0.121
					c0.727,0.241,1.453,0.483,2.179,0.726c0.484,0.121,0.848,0.363,1.332,0.605c0.242,0.121,0.484,0.242,0.726,0.363
					c0.605,0.242,1.211,0.727,1.695,1.09c0.605,0.362,0.968,0.725,1.453,1.089c0.847,0.727,1.453,1.452,1.937,1.938
					c0.364,0.483,0.605,0.726,0.605,0.726c-0.121,0-0.363-0.12-0.968-0.363c-0.242-0.12-0.484-0.242-0.727-0.362
					c-0.121,0-0.242-0.122-0.242-0.122c-0.363-0.241-0.848-0.363-1.331-0.605c-0.484-0.241-0.969-0.483-1.574-0.726
					c-0.242-0.12-0.484-0.242-0.726-0.363c-0.364-0.121-0.727-0.242-1.09-0.362c-0.605-0.242-1.21-0.485-1.936-0.728
					c-0.121,0-0.243-0.12-0.485-0.12c-0.484-0.122-0.968-0.363-1.573-0.484c-0.605-0.243-1.21-0.363-1.816-0.484v0.121
					c-1.937,8.716-9.442,53.625,37.163,76.02c0.605,0.363,1.331,0.605,1.936,0.969c0.968-7.747,5.205-14.768,6.779-17.068
					c-2.905-2.905-12.71-14.163-7.263-26.146c0.12-0.121,0.12-0.364,0.241-0.484c0.121-0.242,0.242-0.484,0.364-0.726
					c0.24-0.364,0.483-0.728,0.726-1.09c0.484-0.605,1.09-1.211,1.815-1.574c-5.69-4.236-11.258-10.895-13.437-21.668
					c-0.242-1.089-0.484-2.3-0.727-3.39c-0.121-0.605-0.242-1.21-0.483-1.695c-0.122-0.605-0.364-1.21-0.484-1.693
					c-3.512-12.469-8.595-20.821-15.253-24.816c-5.084-3.025-11.258-3.631-18.158-1.694c-1.695,0.362-3.389,0.848-5.084,1.573
					c-0.485,0.121-0.848,0.364-1.331,0.606c-0.364,0.121-0.848,0.363-1.211,0.604c-0.484,0.243-1.089,0.606-1.574,0.848
					c0,0,0,0-0.121,0l0,0c0,0,0,0-0.121,0c-0.364,0.242-0.848,0.485-1.211,0.728c-0.364,0.241-0.727,0.483-1.089,0.847l0,0
					c-0.605,0.484-1.21,0.969-1.816,1.574c-3.026,2.662-5.568,6.053-7.384,9.684c-0.121,0.121-0.121,0.241-0.121,0.363
					c-0.121,0.242-0.242,0.483-0.363,0.848c0,0.12-0.121,0.241-0.121,0.363c-0.122,0.362-0.243,0.605-0.364,0.968
					c-0.121,0.242-0.121,0.363-0.242,0.605c-0.121,0.242-0.242,0.484-0.242,0.848c-0.726,1.937-1.21,3.874-1.453,5.931
					c-0.847,5.811-1.574,13.195-1.21,21.548c0,0.363,0,0.847,0,1.211c0,0.483,0,0.968,0.121,1.331
					c0.485,7.505,1.816,15.736,4.601,24.09c0.121,0.362,0.242,0.846,0.363,1.21c0.121,0.363,0.242,0.847,0.484,1.211
					c2.664,7.504,6.538,15.01,11.864,22.272c0.242,0.363,0.484,0.605,0.726,0.969c0.242,0.363,0.484,0.604,0.726,0.969
					c1.574,2.057,3.39,4.115,5.327,6.173c4.842,5.085,10.168,9.805,15.979,14.042c0.484,0.364,0.969,0.727,1.453,1.09
					c3.631,2.542,7.384,4.842,11.378,7.143c0.121,0,0.121,0.12,0.243,0.12c0.362,0.243,0.726,0.363,1.088,0.605
					c3.391,1.816,6.78,3.511,10.169,4.963c0.363,0.122,0.727,0.364,1.09,0.484c0.363,0.242,0.727,0.363,1.211,0.485
					c13.921,5.809,26.994,8.714,36.436,10.167c0.604,0.122,1.331,0.242,1.936,0.242c2.059,0.243,4.116,0.485,6.175,0.485
					c0.726,0,1.331,0,2.058,0c0.605,0,1.331,0,1.936,0c3.511,0,7.143-0.364,10.652-0.97c0.484-0.12,0.848-0.12,1.332-0.241
					c0.483-0.122,0.969-0.122,1.452-0.243c0.727-0.121,1.453-0.362,2.18-0.483c8.352-1.938,20.094-5.326,31.474-10.773
					c1.21-0.605,2.541-1.21,3.752-1.938c1.09-0.605,2.179-1.21,3.269-1.815c7.506-4.358,14.526-9.685,19.852-16.342
					c0.364-0.363,0.605-0.728,0.848-1.089c0.242-0.364,0.484-0.605,0.728-0.97c0.241-0.362,0.483-0.726,0.726-1.089
					c2.421-3.631,3.994-7.626,4.6-11.742c0-0.484,0.122-0.968,0.122-1.452c0-0.484,0.12-0.969,0.12-1.453
					c0.242-5.447-1.331-11.016-4.479-15.494C393.005,327.311,385.259,324.042,374.969,324.768z M304.154,360.72
					c0,0.363-0.122,0.605-0.122,0.605s-0.12-0.12-0.363-0.484c-0.12-0.121-0.242-0.363-0.362-0.483
					c-0.122-0.122-0.363-0.363-0.484-0.605c-0.243-0.242-0.363-0.363-0.605-0.605c-0.242-0.242-0.483-0.363-0.727-0.606
					c-0.242-0.242-0.484-0.362-0.727-0.605c-0.241-0.242-0.605-0.362-0.847-0.604c-1.09-0.848-2.3-1.574-3.269-2.301
					c-0.968-0.605-1.573-1.211-1.573-1.211s0.847-0.242,2.057,0c0.605,0.122,1.333,0.243,2.059,0.485
					c0.727,0.242,1.453,0.605,2.179,1.089c0.727,0.484,1.332,1.09,1.816,1.695c0.242,0.362,0.484,0.726,0.605,0.968
					c0.122,0.363,0.242,0.727,0.364,0.968c0.12,0.364,0.12,0.605,0.12,0.848C304.274,360.235,304.274,360.478,304.154,360.72z
					 M312.386,353.577c-0.243-0.12-0.485-0.241-0.848-0.362c-0.363-0.121-0.727-0.242-1.09-0.363
					c-0.363-0.12-0.847-0.242-1.331-0.484c-0.485-0.121-0.969-0.241-1.453-0.483c-0.483-0.122-1.089-0.243-1.573-0.485
					c-0.605-0.12-1.091-0.242-1.695-0.362c-2.3-0.485-4.6-1.09-6.294-1.453c-1.695-0.363-2.906-0.726-2.906-0.726
					s1.211-0.485,3.026-0.605c0.969-0.122,1.937-0.122,3.147,0c1.21,0.12,2.421,0.242,3.631,0.605
					c0.605,0.12,1.211,0.362,1.816,0.483c0.605,0.242,1.09,0.364,1.695,0.727c0.484,0.242,1.09,0.483,1.452,0.848
					c0.484,0.241,0.848,0.605,1.211,0.847c0.726,0.605,1.331,1.09,1.573,1.574c0.363,0.363,0.484,0.605,0.484,0.605
					C313.111,353.819,312.748,353.699,312.386,353.577z M316.622,348.252c-0.242-0.122-0.484-0.363-0.848-0.484
					c-0.363-0.121-0.726-0.363-1.21-0.605c-0.485-0.242-0.969-0.363-1.453-0.605c-0.483-0.242-1.089-0.363-1.573-0.483
					c-0.605-0.242-1.211-0.242-1.695-0.484c-0.605-0.121-1.211-0.243-1.816-0.363c-0.604-0.122-1.21-0.242-1.815-0.242
					c-0.605-0.121-1.211-0.121-1.815-0.242c-1.211-0.121-2.3-0.242-3.268-0.242c-1.938-0.121-3.268-0.241-3.268-0.241
					s1.21-0.605,3.268-1.09c0.483-0.121,1.089-0.243,1.573-0.243c0.605-0.12,1.211-0.12,1.815-0.242c0.605,0,1.331,0,1.936,0
					c0.728,0,1.332,0.122,2.059,0.242c0.726,0.122,1.331,0.243,2.058,0.485c0.605,0.242,1.331,0.483,1.937,0.725
					c0.605,0.242,1.211,0.605,1.695,0.968c0.483,0.364,0.968,0.605,1.331,0.97c0.363,0.363,0.727,0.726,0.968,0.968
					c0.243,0.363,0.485,0.606,0.605,0.848c0.242,0.483,0.484,0.727,0.484,0.847C317.348,348.735,317.105,348.615,316.622,348.252z
					 M261.786,316.052c0.363,0.121,0.726,0.242,1.21,0.484s0.847,0.484,1.452,0.848c0.97,0.605,2.058,1.453,3.148,2.421
					c1.088,0.969,2.299,2.059,3.269,3.146c1.089,1.091,2.057,2.301,2.904,3.39c0.848,1.09,1.695,2.18,2.301,3.269
					c1.21,1.815,1.815,3.148,1.936,3.39c-0.12-0.121-1.331-0.969-3.026-2.421c-0.847-0.727-1.815-1.694-2.904-2.663
					c-0.969-0.969-2.058-2.058-3.147-3.268c-0.483-0.605-1.089-1.09-1.574-1.695c-0.484-0.483-0.968-1.088-1.452-1.573
					c-0.483-0.484-0.969-1.09-1.331-1.573c-0.485-0.484-0.848-0.968-1.211-1.332c-0.363-0.363-0.727-0.847-1.09-1.089
					c-0.363-0.363-0.605-0.606-0.848-0.848c-0.483-0.363-0.726-0.605-0.726-0.726C260.816,315.689,261.181,315.811,261.786,316.052z
					 M257.428,326.463c0.362,0,0.727,0,1.09,0c0.362,0,0.848,0,1.331,0.12c0.968,0.122,2.179,0.363,3.389,0.848
					c1.211,0.363,2.422,0.969,3.632,1.573c1.211,0.605,2.301,1.333,3.269,2.179c0.969,0.728,1.938,1.575,2.663,2.181
					c1.332,1.331,2.059,2.421,2.179,2.541c-0.12,0-1.331-0.605-3.025-1.453c-0.848-0.483-1.937-0.968-2.905-1.573
					c-1.09-0.605-2.18-1.21-3.39-1.815c-1.089-0.605-2.3-1.211-3.268-1.695c-0.485-0.241-1.09-0.605-1.575-0.726
					c-0.483-0.242-0.968-0.485-1.451-0.727c-0.485-0.121-0.848-0.363-1.211-0.484c-0.364-0.12-0.727-0.242-0.969-0.362
					c-0.605-0.243-0.847-0.363-0.847-0.363S256.822,326.583,257.428,326.463z M257.185,335.42c0.242-0.121,0.484-0.241,0.848-0.241
					c0.362-0.122,0.727-0.122,1.09-0.242c1.693-0.242,3.873,0.12,5.81,0.604c2.059,0.606,3.995,1.453,5.327,2.3
					c1.331,0.848,2.179,1.574,2.179,1.574s-1.09,0-2.663-0.242c-1.574-0.242-3.512-0.727-5.447-1.21
					c-0.969-0.243-1.936-0.605-2.784-0.848c-0.485-0.121-0.848-0.242-1.333-0.363c-0.362-0.122-0.846-0.242-1.21-0.363
					c-0.363-0.121-0.726-0.242-0.968-0.242c-0.243,0-0.605-0.121-0.727-0.121c-0.484,0-0.726,0-0.726,0
					S256.701,335.662,257.185,335.42z M338.411,391.83c-0.484,0.121-1.09,0.121-1.573,0.242c-1.332,0.121-2.785,0.241-4.479,0.484
					c-2.3,0.242-4.964,0.362-7.868,0.484c-1.453,0.12-2.905,0.12-4.479,0.12c-1.574,0-3.147,0-4.843,0
					c-1.573-0.12-3.146-0.12-4.721-0.242c-0.121,0-0.241,0-0.363,0c-0.726-0.12-1.573-0.12-2.3-0.241
					c-0.969-0.121-1.815-0.121-2.785-0.242h-0.12c-1.815-0.242-3.632-0.484-5.447-0.727c-1.815-0.241-3.632-0.605-5.568-0.969
					c-1.815-0.362-3.753-0.848-5.568-1.21c-1.816-0.483-3.752-0.969-5.568-1.453c-2.3-0.726-4.6-1.452-6.9-2.179
					c-0.484-0.12-1.09-0.363-1.573-0.605c-0.484-0.12-0.968-0.362-1.453-0.605c-0.362-0.12-0.604-0.242-0.968-0.362
					c-3.511-1.331-6.9-2.906-10.169-4.6c-3.269-1.695-6.295-3.39-9.079-5.085c-2.784-1.695-5.447-3.511-7.626-5.326
					c-2.3-1.694-4.358-3.39-6.053-4.963c-1.694-1.573-3.147-3.026-4.358-4.237c-1.21-1.21-2.058-2.179-2.663-2.905
					c-0.485-0.605-0.848-0.968-0.848-1.089c0.121,0.121,1.453,1.573,3.752,3.632c2.421,2.179,6.174,5.205,10.895,8.474
					c2.421,1.573,4.963,3.268,7.747,4.842c2.784,1.694,5.933,3.146,9.079,4.721c3.269,1.574,6.537,3.026,10.047,4.236
					c0.969,0.364,1.938,0.728,3.026,1.09c0.605,0.242,1.333,0.485,1.938,0.605c0.847,0.242,1.573,0.484,2.421,0.848
					c1.089,0.363,2.3,0.726,3.39,0.968c1.815,0.485,3.632,0.969,5.447,1.453c1.815,0.363,3.632,0.848,5.447,1.211
					c1.694,0.362,3.39,0.605,4.963,0.968c0.121,0,0.362,0,0.484,0.121c1.089,0.121,2.3,0.363,3.39,0.484
					c0.604,0.12,1.331,0.242,1.936,0.242c0.485,0,0.848,0.12,1.333,0.12c1.331,0.122,2.663,0.243,3.874,0.485
					c1.693,0.12,3.389,0.242,4.962,0.362c1.574,0.121,3.269,0.121,4.722,0.243c1.573,0.12,3.026,0.12,4.478,0.12
					c2.905,0,5.447,0.122,7.868,0c1.938,0,3.631-0.12,5.206-0.242c0.241,0,0.605,0,0.847,0c3.39-0.241,5.206-0.363,5.206-0.363
					S341.68,391.346,338.411,391.83z"/>
				<g>
					<path fill="#F6B7BF" d="M352.332,396.915c-0.242,1.815-0.484,6.657,1.816,9.319c1.088,1.211,2.663,1.816,4.72,1.816l0,0
						c1.09-0.241,9.201-2.057,8.838-6.658l-2.543-3.389l1.09-0.727c0.121-0.121,3.269-2.3,2.059-6.657
						C362.864,393.161,357.417,395.22,352.332,396.915z"/>
					<path fill="#F6B7BF" d="M342.406,399.819c-0.243,2.179-0.243,8.596,7.021,12.59c0,0,0,0,0.122,0
						c0.968,0.242,5.688,1.211,7.746-2.059c-2.059-0.242-3.632-1.09-4.842-2.541c-2.542-2.906-2.784-7.506-2.542-10.169
						C347.248,398.488,344.706,399.214,342.406,399.819z"/>
					<path fill="#F6B7BF" d="M337.563,401.03c-1.21,0.242-2.421,0.484-3.511,0.727c0,0.241-0.12,0.605-0.12,0.847
						c-0.363,3.995,1.331,7.99,4.962,11.984c0.848,0.605,1.938,1.09,3.148,1.331c4.6,0.97,5.689,0,5.931-0.363
						c0.364-0.362,0.242-0.968,0.122-1.331c-7.385-4.116-8.231-10.652-8.111-13.921C339.137,400.667,338.29,400.909,337.563,401.03z
						"/>
					<path fill="#F6B7BF" d="M359.958,410.23c0,0.12-0.12,0.363-0.12,0.483c-1.09,2.543-3.269,3.994-6.295,4.358
						c-1.09,0.121-2.179,0.121-3.026,0c0,0.727-0.242,1.452-0.728,2.179c-0.846,1.089-2.299,1.573-4.478,1.573
						c-1.09,0-2.421-0.12-3.874-0.484c-0.605-0.12-1.21-0.241-1.815-0.483c0.362,1.694,0.726,3.146,0.968,3.51l0.121,0.122
						l0.121,0.242c0.848,2.541,7.142,4.115,14.404,2.179c11.985-3.026,23.242-14.284,19.853-36.8
						c-1.453,0.847-3.026,1.573-4.6,2.421c1.331,4.116-0.242,7.263-1.938,8.836l1.452,1.938v0.363
						C371.216,407.204,362.622,409.625,359.958,410.23z"/>
					<path fill="#F6B7BF" d="M314.807,420.761c0.242,0.242,0.726,0.485,1.21,0.605c0.848,0.242,1.816,0.364,2.784,0.122
						c1.937-0.363,3.752-1.453,5.084-3.026l0,0v-0.122c0.969-0.968,1.694-2.057,2.059-3.268c0.241-1.21,0.12-2.663-0.242-3.995
						c-0.848-2.662-2.664-5.205-4.6-7.384c-0.242-0.242-0.364-0.484-0.605-0.605l0,0c-2.059,0-3.996-0.12-6.053-0.242
						c2.3,2.421,4.842,6.174,3.873,11.137C317.47,417.372,316.138,419.43,314.807,420.761z"/>
					<path fill="#F6B7BF" d="M310.085,402.362c-0.363,0-0.848-0.122-1.211-0.122c-2.058-0.362-4.236-0.726-6.536-1.21
						c0.727,0.242,1.331,0.727,2.058,1.09c1.574,1.089,3.026,2.541,3.995,4.357c0.969,1.815,1.452,4.116,0.847,6.174
						c-0.241,0.969-0.726,1.936-1.211,2.662c-0.483,0.727-1.21,1.332-1.693,1.816c-0.122,0.121-0.242,0.242-0.485,0.363
						c1.09,1.694,1.816,2.422,2.664,2.784c0.605,0.242,1.331,0.242,2.058,0.121c0.363-0.121,0.726-0.243,1.089-0.363
						c0.122-0.12,0.364-0.12,0.484-0.242c0.121-0.121,0.363-0.242,0.485-0.363l1.573-1.331c0.726-0.969,1.453-2.421,1.936-4.601
						C316.985,407.445,311.175,403.088,310.085,402.362z"/>
					<path fill="#F6B7BF" d="M196.296,96.465c-5.084,10.29-7.626,20.336-7.626,29.778c0,6.295,1.089,12.226,3.389,17.794
						c4.963,12.348,15.374,22.032,29.295,27.116c1.694,0,3.269,0,4.842,0c10.895,0.242,22.758,9.079,30.748,15.01
						c3.146,2.3,5.931,4.358,7.141,4.721c1.09,0.363,3.268,0.121,6.053-1.332c4.479-2.421,15.737-11.258,24.453-41.4
						c1.695-5.931,2.541-12.105,2.541-18.158c0-24.936-14.162-49.268-38.614-64.52C254.401,65.355,212.396,63.901,196.296,96.465z"
						/>
					<path fill="#F6B7BF" d="M296.164,399.941c0.242,0,0.484,0,0.727,0c-7.385-1.695-15.858-4.237-24.574-7.748
						c0,0.363-0.12,0.726-0.12,1.09c-0.121,0.968-0.121,2.057-0.242,3.146c-0.121,0.969,0,2.059-0.121,3.147
						c0,0.969,0.121,2.058,0.121,3.026c0.121,0.969,0.121,2.058,0.362,3.026c0.122,0.969,0.242,2.058,0.484,3.026
						c0.243,0.969,0.485,1.938,0.727,2.905c0.364,0.968,0.605,1.936,1.09,2.784c0.242,0.484,0.362,0.968,0.605,1.332
						c0.242,0.363,0.484,0.847,0.725,1.331c0.484,0.848,1.09,1.695,1.695,2.421c0.605,0.848,1.331,1.573,2.058,2.179
						c0.727,0.728,1.453,1.332,2.3,1.816c0.848,0.604,1.695,1.09,2.543,1.452c0.847,0.485,1.816,0.848,2.783,1.09
						c0.727,0.241,1.453,0.363,2.179,0.483c0.122,0,0.242,0,0.363,0c0,0,0.122,0,0.122-0.12c0.12-0.122,0.362-0.242,0.483-0.363
						c0.363-0.242,0.605-0.604,0.969-0.848c0.605-0.605,1.331-1.332,1.816-2.058c0.604-0.726,1.089-1.453,1.572-2.179
						c0.121-0.122,0.243-0.363,0.363-0.484c0.121-0.243,0.241-0.363,0.363-0.605c-0.848-0.242-1.573-0.605-2.299-0.969
						c-0.605-0.362-1.09-0.604-1.575-1.09c-0.484-0.483-0.968-0.726-1.451-1.21c-0.485-0.483-0.849-0.969-1.211-1.452
						c-0.243-0.242-0.364-0.484-0.484-0.727c-0.242-0.242-0.364-0.483-0.484-0.848c-0.121-0.241-0.241-0.605-0.363-0.847
						c-0.122-0.242-0.242-0.605-0.363-0.848c-0.12-0.362-0.242-0.605-0.242-0.848l-0.122-0.848l0,0l0,0l0.364-0.483l0.121,0.362l0,0
						l0.12,0.363c0.122,0.363,0.244,0.605,0.364,0.847l0.605,1.211c0.362,0.484,0.605,1.09,0.968,1.574
						c0.122,0.121,0.363,0.363,0.483,0.484c0.364,0.362,0.849,0.727,1.211,1.089c0.364,0.363,0.97,0.605,1.454,0.969
						c0.483,0.242,0.967,0.484,1.572,0.726c0.969,0.364,2.18,0.605,3.147,0.728l1.211,0.121l0,0c0.122,0,0.363-0.121,0.483-0.121
						c0.849-0.122,1.575-0.363,2.421-0.728c0.244-0.12,0.605-0.241,0.849-0.361c0.241-0.122,0.605-0.364,0.968-0.605
						c0.363-0.244,0.849-0.605,1.332-1.09c0.362-0.364,0.848-0.848,1.21-1.453c0.363-0.605,0.605-1.089,0.728-1.815
						c0.12-0.605,0.12-1.333,0-2.059c-0.122-0.726-0.364-1.451-0.728-2.179c-0.604-1.453-1.815-2.663-2.904-3.632
						c-1.21-0.968-2.421-1.815-3.632-2.421c-0.604-0.242-1.09-0.604-1.694-0.727c-0.485-0.241-0.97-0.362-1.331-0.483
						c-0.85-0.242-1.211-0.363-1.211-0.363s0.12,0,0.361,0C295.439,399.941,295.801,399.941,296.164,399.941z"/>
					<path fill="#F6B7BF" d="M250.649,392.799c-0.243,0.12-0.364,0.362-0.605,0.484c-0.243,0.121-0.364,0.363-0.485,0.483
						c-1.694,1.453-3.026,2.543-3.995,3.148c-0.242,0.12-0.484,0.362-0.605,0.483l-0.121,0.122c-0.242,0.12-0.484,0.24-0.605,0.362
						c-0.363,0.242-0.727,0.363-0.968,0.483c-0.121,0.122-0.242,0.122-0.363,0.122c-0.121,0-0.242,0.12-0.363,0.12
						c-0.848,0.243-2.421,0.728-4.358,1.574c-4.115,25.058,9.685,42.005,18.642,50.115l0,0c0.122,0,0.122,0,0.242-0.12
						c0.605-0.122,1.09-0.364,1.573-0.485c0.485-0.12,1.09-0.362,1.573-0.484c2.181-0.726,4.237-1.573,6.175-2.542
						c0.363-0.12,0.605-0.362,0.968-0.484c4.48-2.179,7.748-4.478,9.565-5.931C252.828,430.082,248.954,409.625,250.649,392.799z"/>
					<path fill="#F6B7BF" d="M220.386,414.346c3.268-7.506,9.079-12.105,14.041-14.89c0.121,0,0.121-0.12,0.242-0.12
						c1.816-1.09,3.632-1.938,5.205-2.663c-0.121,0-0.121,0-0.242,0c-0.605-0.122-1.332-0.243-2.179-0.243
						c-0.726,0-1.574-0.12-2.421,0c-0.847,0-1.695,0-2.542,0.243c-0.363,0-0.848,0.12-1.331,0.12s-0.848,0.242-1.332,0.242
						c-0.848,0.121-1.695,0.485-2.542,0.725c-0.847,0.243-1.573,0.605-2.421,0.848c-0.727,0.363-1.573,0.605-2.179,0.969
						c-0.727,0.364-1.332,0.727-1.937,0.969c-0.605,0.363-1.089,0.727-1.694,0.969c-0.484,0.363-0.969,0.605-1.211,0.726
						c-0.605,0.363-0.969,0.605-1.089,0.728c0-0.122,0.242-0.485,0.726-1.09c0.485-0.605,1.331-1.574,2.421-2.542
						c0.485-0.484,1.09-0.97,1.816-1.453c0.605-0.484,1.453-0.968,2.179-1.453c0.847-0.362,1.574-0.968,2.542-1.21
						c0.484-0.242,0.847-0.363,1.331-0.605c0.484-0.242,0.969-0.242,1.453-0.484c0.968-0.363,1.937-0.483,2.905-0.605
						c0.969-0.241,1.937-0.241,2.785-0.241c0.968-0.122,1.815,0,2.663,0.121c0.848,0,1.694,0.242,2.421,0.362
						c0.727,0.122,1.453,0.242,1.937,0.484c0.605,0.243,1.089,0.363,1.453,0.484c0.242,0.121,0.484,0.121,0.605,0.242
						c5.932-5.085,9.927-8.716,12.226-10.895c-3.752-2.179-7.263-4.357-10.773-6.9c-38.131,5.569-41.763,45.153-41.884,58.469
						l4.842,3.51c0.605,0.483,1.331,0.968,1.936,1.453c0.484,0.362,1.089,0.726,1.695,1.09c0.605,0.483,1.211,0.846,1.816,1.21
						c0.484,0.362,0.969,0.605,1.574,0.968l0,0C214.454,431.172,216.755,421.488,220.386,414.346L220.386,414.346z"/>
					<path fill="#F6B7BF" d="M221.233,353.819c-5.205-7.141-9.079-14.525-11.742-21.789c-11.621,10.169-34.863,33.652-35.71,60.647
						c-0.484,19.005,0.242,30.021,0.968,36.073c0.121,0,0.242,0,0.484,0c0.364,0,0.605,0.121,0.969,0.121
						c0.847,0.121,1.573,0.242,2.421,0.242c0.605,0.12,1.211,0.12,1.694,0.12c0.122,0,0.242,0,0.242,0c0.243,0,0.605,0,0.848,0
						c0.363,0,0.727,0,0.968,0.122C182.981,414.951,187.218,373.551,221.233,353.819z"/>
					<path fill="#F6B7BF" d="M158.287,350.673L158.287,350.673c13.074-28.568,31.473-42.005,45.152-48.3
						c-0.485-8.957,0.242-16.825,1.21-22.878c0.242-1.695,0.605-3.391,1.089-4.964c-13.558,3.147-33.773,11.379-50.72,33.047
						c-11.258,14.526-18.521,32.684-20.942,52.294c-3.026,25.179,0.969,50.6,9.442,59.315l0,0c0.121,0.122,0.363,0.242,0.484,0.242
						c0.847,0.485,1.574,0.848,2.421,1.211c0.605,0.242,1.21,0.605,1.816,0.848c0.484,0.242,1.089,0.483,1.574,0.726
						c0.605,0.242,1.089,0.484,1.694,0.727c0.727,0.241,1.332,0.605,2.058,0.847c0.968,0.364,2.058,0.727,3.147,1.09
						C151.75,414.346,142.308,387.594,158.287,350.673z"/>
					<path fill="#F6B7BF" d="M142.187,160.501c20.82,24.573,38.01,26.268,44.91,25.663c2.179-2.663,4.721-5.084,7.505-7.021
						c-12.71-6.658-38.131-24.936-39.583-65.125c-1.211-34.137,19.247-53.626,34.378-63.431
						c-19.732,2.542-38.979,10.411-54.715,22.395C125.724,90.775,115.313,125.396,142.187,160.501z"/>
					<path fill="#F6B7BF" d="M168.939,220.784c2.542-5.689,5.083-10.773,7.384-15.736c-7.869-0.727-25.784-5.448-42.489-15.495
						c-14.769-8.958-32.442-24.574-37.284-49.51c-2.179,15.494-1.816,31.473-1.089,46.483
						C103.087,202.748,134.682,228.653,168.939,220.784z"/>
					<path fill="#F6B7BF" d="M160.224,270.536c12.71-9.199,39.584-16.342,53.747-19.61c-3.632-1.452-10.29-4.115-21.426-8.473
						c-0.848-0.121-1.816-0.121-2.785-0.121c-12.226,0-32.32,7.383-51.568,24.693c-15.495,14.043-41.52,45.031-40.794,95.025
						c2.421,23.122,10.41,42.49,18.521,44.911l0,0c0.242,0.12,0.484,0.12,0.727,0.12h0.242c0.726,0.243,1.573,0.485,2.421,0.605
						c2.421,0.484,5.084,0.728,7.263,0.848c-7.143-8.231-11.258-20.699-13.679-40.673
						C105.993,312.904,154.655,274.652,160.224,270.536z"/>
					<path fill="#F6B7BF" d="M91.951,275.984c-1.453,11.499-2.905,22.151-4.116,30.021c3.752-9.079,7.989-16.826,12.347-23.726
						C96.914,280.341,93.887,278.284,91.951,275.984z"/>
					<path fill="#F6B7BF" d="M96.429,225.869c-0.242,5.205-0.605,11.016-1.089,17.674c5.931,8.231,14.405,12.105,23.605,15.615
						c5.326-5.083,10.411-8.957,15.131-11.983C119.914,242.937,104.056,236.158,96.429,225.869z"/>
				</g>
			</g>
		</g>
	</g>
	<g>
		<path fill="#D7147D" d="M384.411,380.936c2.904,2.664,12.952,12.469,18.763,27.479c0.848-10.411-1.453-19.248-1.453-19.368
			c-0.726-2.785-3.631-13.316-5.205-19.006C393.005,374.156,388.89,377.788,384.411,380.936z"/>
		<path fill="#D7147D" d="M393.49,397.398l-0.363-2.421l0.241,0.121c-4.842-7.142-9.685-11.621-11.016-12.71
			c-1.573,1.089-3.146,2.057-4.722,3.026c4.117,24.693-8.352,37.041-21.425,40.431c-2.301,0.604-4.722,0.848-6.779,0.848
			c-3.026,0-5.689-0.605-7.626-1.574c0.605,1.694,1.453,3.51,2.541,5.205c0.243,0.363,0.485,0.605,0.605,0.969
			c0.122,0.242,0.364,0.362,0.484,0.605c0.363,0.484,0.727,0.847,1.091,1.21c0.846,0.848,1.936,1.573,3.026,2.301c0,0,0,0,0.12,0
			c0.12,0.12,0.242,0.12,0.363,0.242l0,0c3.753,2.299,7.747,3.389,8.353,3.632c1.694,0.241,3.39,0.362,5.085,0.362l3.389-0.605
			C398.332,433.956,393.61,398.852,393.49,397.398z"/>
		<path fill="#D7147D" d="M331.391,401.635c-2.543,0.363-4.964,0.605-7.506,0.728c1.816,2.179,3.39,4.6,4.357,7.504
			c0.485,1.575,0.728,3.391,0.363,5.206c-0.363,1.816-1.451,3.39-2.662,4.479c-1.695,1.815-3.874,3.39-6.537,3.753
			c-1.331,0.242-2.663,0.242-3.995-0.242c-0.605-0.242-1.332-0.484-1.938-0.968c-0.241-0.122-0.362-0.363-0.605-0.485
			c-0.727,0.363-1.452,0.605-1.816,0.605c-0.12,0-0.241,0-0.241,0c-1.09,0.242-2.18,0.122-3.268-0.242
			c-1.09-0.483-1.938-1.211-2.663-2.057c-0.484-0.485-0.726-1.091-1.09-1.575c-0.121,0-0.121,0-0.241,0.122
			c-0.484,0.242-0.97,0.362-1.332,0.483c-0.969,0.242-1.816,0.484-2.905,0.605c-0.363,0-0.604,0-0.969,0
			c-0.483,1.332-0.847,1.938-1.089,2.543c-0.605,0.847-1.211,1.693-1.815,2.421c-0.605,0.726-1.333,1.452-2.059,2.179
			c-0.362,0.362-0.726,0.726-1.09,0.968c-0.241,0.122-0.363,0.363-0.605,0.484c-0.12,0.121-0.241,0.121-0.362,0.243h-0.121l0,0l0,0
			c-2.421,3.267-5.569,7.021-9.441,10.651c1.331,0.605,2.784,1.089,4.115,1.574c24.573,7.868,50.721-5.933,56.288-9.079
			c-3.994-6.053-4.842-13.558-5.084-15.736C332.358,411.925,331.511,404.783,331.391,401.635z"/>
		<path fill="#D7147D" d="M288.296,428.267c-0.483-0.121-0.848-0.242-1.331-0.363c-1.09-0.362-2.059-0.726-3.148-1.21
			c-0.968-0.485-1.937-1.09-2.904-1.695c-0.969-0.605-1.816-1.331-2.543-2.058c-0.847-0.727-1.573-1.574-2.299-2.421
			c-0.727-0.848-1.333-1.815-1.938-2.785c-0.363-0.483-0.605-0.968-0.847-1.451c-0.242-0.484-0.485-0.97-0.728-1.453
			c-0.483-0.968-0.848-2.058-1.21-3.026c-0.242-1.09-0.605-2.058-0.848-3.148c-0.241-1.089-0.363-2.179-0.605-3.267
			c-0.12-1.09-0.241-2.18-0.363-3.269c0-1.09-0.12-2.179-0.12-3.268c0-1.091,0-2.179,0.12-3.269
			c0.122-1.089,0.122-2.179,0.243-3.148c0.12-0.605,0.12-1.211,0.242-1.937c-3.754-1.573-7.626-3.511-11.5-5.567
			c-0.969,0.968-3.026,2.905-5.205,4.962c-2.301,16.585,0.483,38.132,25.662,48.18l0,0l0,0
			C282.97,434.682,285.996,431.293,288.296,428.267z"/>
		<path fill="#D7147D" d="M236.002,401.03c-9.079,5.689-20.216,17.915-17.674,43.941c1.21,0.727,2.542,1.332,3.753,1.815
			c10.531,4.842,21.426,6.053,32.443,3.632C245.322,441.824,232.733,425.24,236.002,401.03z"/>
		<path fill="#D7147D" d="M243.144,374.762c-5.205-3.995-10.047-8.231-14.405-12.952c-2.058-2.18-3.995-4.358-5.69-6.657
			c-33.289,19.126-37.284,59.799-37.768,73.962c5.932,0.242,9.805,0,9.805,0h0.485l6.052,4.357
			C201.986,418.582,206.828,381.541,243.144,374.762z"/>
		<path fill="#D7147D" d="M157.681,113.412c1.453,40.188,27.6,57.741,39.463,63.672c1.089-0.726,2.3-1.331,3.51-1.936
			c0.364-0.121,0.727-0.364,1.089-0.485c0.121,0,0.243-0.121,0.243-0.121c0.363-0.242,0.848-0.363,1.21-0.484
			c0.242-0.121,0.605-0.242,0.848-0.363c0.242-0.121,0.363-0.121,0.605-0.242c0.363-0.121,0.726-0.242,1.21-0.363
			c0.363-0.122,0.726-0.243,1.21-0.363c0.363-0.121,0.726-0.242,1.089-0.363c1.453-0.363,2.905-0.727,4.358-0.968
			c0.484-0.121,0.968-0.121,1.331-0.242c0.605-0.121,1.332-0.242,1.937-0.242c0.121,0,0.242,0,0.242,0
			c-12.227-5.69-21.426-15.011-26.026-26.631c-5.931-14.769-4.358-31.837,4.358-49.511c14.284-28.81,47.936-32.079,60.283-32.32
			c0,0-0.12,0-0.12-0.121c-0.848-0.484-1.695-0.968-2.543-1.331c-1.816-0.968-3.632-1.816-5.568-2.663
			c-0.969-0.363-1.937-0.848-2.906-1.211c-0.968-0.363-1.936-0.726-2.905-1.09c0,0,0,0-0.121,0
			c-0.968-0.363-1.937-0.726-2.905-0.968c-0.847-0.242-1.573-0.605-2.421-0.848c-0.363-0.121-0.727-0.242-0.968-0.363
			c-0.848-0.242-1.695-0.484-2.664-0.727c-9.2-2.542-18.763-3.873-28.447-3.873c-1.089,0-2.179,0-3.389,0c-0.122,0-0.364,0-0.605,0
			c-0.484,0-1.089,0-1.574,0.121c-0.847,0-1.573,0.121-2.421,0.121C180.439,57.849,156.35,77.097,157.681,113.412z"/>
		<path fill="#D7147D" d="M208.886,329.004c-2.906-8.474-4.358-16.947-4.963-24.693c-13.194,6.294-30.626,19.368-43.094,46.726
			c-16.947,38.857-4.842,66.094-0.242,74.204c3.874,1.09,7.989,2.058,12.105,2.663c-0.726-6.295-1.452-17.31-0.968-35.831
			C172.571,363.141,197.265,338.931,208.886,329.004z"/>
		<path fill="#D7147D" d="M132.139,358.904c2.421-20.094,9.926-38.616,21.426-53.505c17.916-23,39.463-31.231,53.505-34.258
			c0.121-0.362,0.242-0.726,0.484-1.09c-0.121-1.089-0.121-2.179-0.121-3.268c0-0.604,0-1.21,0.121-1.815
			c0-0.605,0.121-1.211,0.242-1.815c0.363-2.422,1.09-4.722,2.3-6.9c0.605-1.09,1.21-2.059,1.936-3.026
			c-14.526,3.51-38.373,10.168-49.994,18.52c-5.447,4.116-53.142,41.521-46.483,95.268c2.542,20.941,7.021,33.289,14.647,41.036
			c0.121,0.121,0.242,0.242,0.363,0.364c2.421,2.421,5.205,4.72,8.231,6.657C132.139,403.572,129.477,381.419,132.139,358.904z"/>
		<path fill="#D7147D" d="M177.897,202.022V201.9c0.605-1.089,1.089-2.3,1.695-3.39l0,0c0.605-1.21,1.21-2.421,1.815-3.631l0,0
			c0.363-0.605,0.605-1.21,0.968-1.816c0.364-0.605,0.606-1.089,0.969-1.694c0,0,0-0.121,0.121-0.121
			c0.242-0.363,0.484-0.726,0.726-1.21c0.484-0.727,0.848-1.332,1.331-1.937c-9.32,0.121-25.542-3.873-44.789-26.752
			c-25.542-33.29-18.399-66.215-10.047-85.462l0,0c-0.605,0.484-1.089,0.968-1.695,1.452c-0.363,0.363-0.848,0.727-1.211,1.089
			c-0.727,0.727-1.453,1.332-2.179,2.058c-0.363,0.363-0.847,0.727-1.21,1.211c-0.484,0.484-0.847,0.848-1.332,1.331
			c-0.363,0.363-0.847,0.847-1.211,1.211c-1.21,1.332-2.421,2.784-3.631,4.116c-0.847,1.089-1.694,2.179-2.542,3.269l0,0
			c-0.485,0.605-0.848,1.089-1.211,1.695c-0.364,0.484-0.727,1.089-1.09,1.573c0,0.121-0.121,0.243-0.121,0.243
			c-0.364,0.484-0.727,0.968-0.969,1.573c0,0,0,0.121-0.122,0.121c-0.363,0.605-0.726,1.089-1.089,1.695
			c-0.363,0.605-0.726,1.21-1.089,1.815c-0.363,0.605-0.726,1.211-0.968,1.816c-0.364,0.484-0.605,1.089-0.848,1.695
			c-0.484,0.969-0.968,1.815-1.453,2.784c-0.363,0.727-0.726,1.453-1.089,2.3c-0.484,1.089-0.968,2.3-1.452,3.51l0,0
			c-0.242,0.605-0.485,1.21-0.727,1.815l0,0c-0.242,0.605-0.484,1.211-0.605,1.816l0,0c-0.243,0.605-0.364,1.211-0.605,1.816
			c-1.21,3.631-2.3,7.384-3.147,11.379l0,0c-0.121,0.605-0.242,1.332-0.363,1.937C102.603,185.801,166.518,201.295,177.897,202.022z
			"/>
		<path fill="#D7147D" d="M118.098,285.91c0.363-0.605,0.847-1.21,1.21-1.695c2.179-3.026,4.479-5.931,6.658-8.474
			c2.179-2.541,4.357-4.842,6.416-6.899c0.363-0.363,0.727-0.727,1.089-1.089c1.211-1.09,2.3-2.179,3.39-3.148
			c2.057-1.815,4.237-3.632,6.294-5.325c16.221-12.832,32.321-19.005,43.821-19.974l-1.937-0.605
			c-5.932-2.058-13.316-2.542-21.305-1.211c-0.605,0.121-1.332,0.242-2.058,0.363c-0.727,0.121-1.453,0.243-2.058,0.484
			c-6.053,1.453-12.468,3.873-19.005,7.505c-0.484,0.242-0.968,0.605-1.452,0.847c-0.484,0.242-0.969,0.605-1.453,0.847
			c-5.326,3.147-10.531,7.143-15.736,11.985c-0.363,0.363-0.605,0.605-0.968,0.968c-0.364,0.363-0.605,0.605-0.969,0.969
			c-5.568,5.447-11.015,11.984-15.979,19.488c-0.242,0.364-0.484,0.727-0.727,0.97c-0.242,0.363-0.484,0.726-0.605,0.968
			c-4.842,7.626-9.321,16.1-13.195,25.904c-0.848,2.181-1.694,4.358-2.421,6.537c-0.242,0.848-0.605,1.816-0.848,2.664
			c-0.242,0.848-0.484,1.693-0.726,2.541c-3.752,13.316-4.721,26.754-3.026,39.705c3.39,25.3,15.131,37.405,26.147,42.974
			c-6.295-7.869-11.378-23.363-13.315-41.764C94.855,328.278,105.872,303.221,118.098,285.91z"/>
		<path fill="#D7147D" d="M96.188,191.248c0,0.242,0,0.605,0,0.848c0.363,8.594,0.726,16.705,0.726,24.694c0,1.452,0,2.784,0,4.237
			c6.415,11.863,24.573,19.489,40.31,23.968c8.353-4.963,17.068-8.231,25.3-9.684l0.242-0.242c0.121-0.364,0.605-1.453,1.332-2.906
			c0-0.121,0.121-0.242,0.121-0.363c0.121-0.243,0.121-0.363,0.242-0.605c0-0.121,0.121-0.121,0.121-0.242
			c0.484-1.089,0.968-2.179,1.573-3.51c0.242-0.605,0.605-1.332,0.848-1.937c0.121-0.363,0.363-0.726,0.484-1.089
			c0.243-0.363,0.363-0.847,0.605-1.21C136.134,229.258,106.839,207.711,96.188,191.248z"/>
		<path fill="#D7147D" d="M101.876,279.615c5.084-7.747,10.411-14.041,15.616-19.247c-8.353-3.268-16.101-6.778-22.032-13.921
			c-0.242,2.3-0.363,4.601-0.605,6.899c-0.121,0.605-0.121,1.333-0.242,2.059c-0.363,3.026-0.605,6.173-0.968,9.441
			c-0.121,1.211-0.242,2.421-0.484,3.754c-0.121,0.968-0.243,1.935-0.364,2.904l0,0C93.887,274.41,97.64,277.194,101.876,279.615z"
			/>
	</g>
</g>
</svg>
