<svg width="499.99999999999994" height="499.99999999999994" xmlns="http://www.w3.org/2000/svg" version="1.0" enable-background="new -0.5 -0.5 500 500" xml:space="preserve">
 <g>
  <title>Layer 1</title>
  <g id="Layer_2_copy_3">
   <path d="m422.80691,337.67145c-0.122,-0.605 -0.242,-1.453 -0.484,-2.179c-0.242,-0.728 -0.485,-1.333 -0.726,-2.059c-0.364,-0.605 -0.605,-1.21 -1.091,-1.815c-1.573,-2.421 -3.631,-4.237 -5.932,-5.69c-2.299,-1.453 -4.72,-2.542 -7.142,-3.512c-1.21,-0.483 -2.542,-0.846 -3.753,-1.21c-0.12,0 -0.241,-0.121 -0.363,-0.121c0.363,-0.12 0.605,-0.242 0.969,-0.362l0.121,0l0.243,-0.122c0.605,-0.241 1.088,-0.968 1.088,-1.694c0,-0.727 -0.362,-1.452 -1.088,-1.695c-0.122,-0.12 -0.364,-0.12 -0.485,-0.12c-0.12,0 -0.12,0 -0.242,0l-0.605,0c-0.483,0 -1.089,0 -1.573,-0.122c-0.968,-0.12 -2.058,-0.241 -3.026,-0.362c-2.058,-0.363 -3.994,-0.848 -6.053,-1.331c-3.994,-1.09 -7.868,-2.543 -11.62,-4.359c-0.97,-0.362 -1.816,-0.846 -2.785,-1.331c-2.784,-1.331 -5.567,-2.905 -8.109,-4.6c-0.848,-0.604 -1.695,-1.09 -2.421,-1.815c-0.364,-0.363 -0.727,-0.605 -1.09,-0.968c-0.363,-0.364 -0.605,-0.606 -0.969,-1.091c-1.21,-1.452 -2.421,-3.146 -3.026,-4.842c-0.242,-0.848 -0.484,-1.695 -0.362,-2.421c0,-0.363 0.12,-0.726 0.362,-1.09c0.121,-0.241 0.363,-0.606 0.605,-0.847c1.089,-1.09 2.904,-1.332 4.237,-0.727c1.452,0.727 2.904,2.179 4.114,3.753c1.211,1.573 2.301,3.39 3.148,5.205c0.968,1.815 1.815,3.752 2.542,5.568l0.604,1.452l0.122,0.242c0,0.121 0.121,0.243 0.241,0.363c0.122,0.242 0.364,0.363 0.605,0.606c0.122,0 0.122,0.12 0.242,0.12c0.727,0.242 1.453,0 1.938,-0.483c0.241,-0.242 0.363,-0.605 0.363,-0.605l0.12,-0.242c0.122,-0.12 0.122,-0.242 0.122,-0.362c0.606,-1.211 0.847,-2.421 0.968,-3.512c0.242,-1.815 0.121,-3.631 0,-5.447c0.121,0.363 0.242,0.728 0.363,1.211c0.242,0.968 0.362,1.938 0.362,3.026l0,0.242c0.122,0.484 0.485,1.09 1.091,1.331c0.483,0.242 1.088,0.242 1.693,-0.12c0.242,-0.121 0.485,-0.363 0.605,-0.606c0.122,-0.121 0.122,-0.242 0.242,-0.363l0,-0.122l0.122,-0.362c0.12,-0.363 0.363,-0.848 0.483,-1.211c0.242,-0.968 0.484,-1.815 0.727,-2.783c0.363,-1.816 0.484,-3.753 0.241,-5.69c-0.12,-1.21 -0.483,-2.421 -0.846,-3.51c0.241,0.241 0.362,0.363 0.604,0.605c0.484,0.605 0.969,1.331 1.452,2.057l0,0.122c0.364,0.606 1.211,0.848 1.815,0.726c0.606,-0.12 1.211,-0.726 1.333,-1.452c0,-0.121 0,-0.121 0,-0.241l0,-0.848c0,-0.606 -0.122,-1.211 -0.122,-1.816c-0.121,-1.21 -0.363,-2.3 -0.847,-3.511c-0.364,-1.21 -0.969,-2.299 -1.695,-3.268c-0.726,-0.968 -1.573,-1.937 -2.541,-2.662c-1.938,-1.574 -3.996,-2.543 -6.053,-3.511c-0.364,-0.121 -0.727,-0.363 -1.211,-0.485l1.089,0c1.09,0.122 2.058,0.243 3.026,0.485c0.484,0.12 0.968,0.242 1.453,0.484c0.484,0.121 0.968,0.363 1.453,0.483l0.12,0.122c0.484,0.12 1.211,0.12 1.695,-0.242c0.483,-0.242 0.848,-0.728 1.089,-1.333c0.242,-0.483 0.242,-1.21 -0.121,-1.693c0,-0.122 -0.12,-0.242 -0.242,-0.363c0,-0.122 0,-0.122 -0.12,-0.242l-0.243,-0.242l-0.968,-1.09c-0.363,-0.363 -0.727,-0.727 -1.09,-1.089c-0.363,-0.363 -0.726,-0.605 -1.211,-0.969c-0.362,-0.363 -0.726,-0.604 -1.21,-0.969l-1.211,-0.847l-1.331,-0.727c-0.848,-0.483 -1.815,-0.969 -2.784,-1.211c-0.969,-0.363 -1.938,-0.605 -2.905,-0.968c-0.968,-0.242 -1.936,-0.485 -2.905,-0.606c-0.969,-0.121 -1.937,-0.242 -2.905,-0.363c-0.484,0 -0.968,-0.121 -1.452,-0.121c0.362,-4.237 0,-7.747 -1.816,-9.926c-1.09,-1.453 -2.663,-2.301 -4.6,-2.421c-7.263,-0.606 -18.885,8.837 -24.452,13.679c0.968,-7.99 2.058,-21.79 -1.936,-27.358c-1.09,-1.453 -2.421,-2.3 -3.996,-2.542c-3.51,-0.484 -8.109,2.3 -12.588,6.174c-0.848,-0.484 -1.816,-0.848 -2.664,-1.21c-0.484,-0.121 -0.968,-0.363 -1.573,-0.484c-0.242,0 -0.483,-0.121 -0.848,-0.121l-0.968,0c0,0 -0.122,0 -0.242,0l-0.121,0c-0.122,-0.121 -0.242,-0.364 -0.364,-0.484c-0.726,-0.969 -1.573,-1.937 -2.299,-2.906c-0.728,-0.968 -1.695,-1.815 -2.663,-2.663l-1.453,-1.21l-1.453,-1.211c-0.968,-0.726 -2.057,-1.453 -3.146,-2.058c-1.09,-0.605 -2.301,-1.21 -3.512,-1.574c-1.21,-0.484 -2.421,-0.848 -3.631,-1.089c-0.605,-0.121 -1.211,-0.242 -1.936,-0.363l-0.968,-0.121l-0.848,0c-0.121,0 -0.363,0.121 -0.485,0.242c-0.241,0.242 -0.483,0.484 -0.605,0.848c-0.12,0.363 -0.12,0.605 0,0.968c0.122,0.363 0.364,0.605 0.605,0.726l0.364,0.242c0.241,0.242 0.483,0.363 0.726,0.484c0.485,0.363 0.969,0.726 1.331,1.089c0.848,0.726 1.695,1.331 2.422,2.058c-0.605,-0.242 -1.211,-0.363 -1.694,-0.484c-3.148,-0.726 -6.537,-1.089 -9.806,-0.242c-0.847,0.242 -1.574,0.484 -2.422,0.847l-0.604,0.242l-0.121,0.121l-0.12,0l-0.122,0.121l-0.12,0.121c-0.122,0.121 -0.122,0.242 -0.243,0.242c-0.12,0.242 -0.242,0.363 -0.242,0.605c-0.12,0.484 0,0.847 0.242,1.211c0.243,0.363 0.727,0.605 1.091,0.726l0.726,0c0.848,0 1.453,0.122 2.179,0.242c0.242,0 0.484,0.121 0.606,0.121c-2.179,0.242 -4.237,0.726 -6.295,1.574c-0.363,0.121 -0.727,0.242 -0.969,0.484l-0.483,0.242l-0.122,0.121l-0.12,0.121c-0.242,0.121 -0.363,0.363 -0.484,0.484c-0.243,0.363 -0.243,0.726 -0.243,1.21c0.122,0.363 0.243,0.726 0.605,0.969c0.122,0.121 0.364,0.242 0.605,0.242c0.122,0 0.242,0 0.242,0l0.484,0c0.363,0 0.605,0.121 0.969,0.121c1.21,0.242 2.541,0.605 3.874,0.968c1.331,0.363 2.663,0.726 3.994,1.21c-0.606,0.242 -1.09,0.484 -1.695,0.727c-1.815,0.847 -3.51,1.816 -5.083,3.026c-1.574,1.211 -3.148,2.542 -4.358,4.117c-0.606,0.846 -1.211,1.573 -1.694,2.541c-0.243,0.485 -0.484,0.848 -0.727,1.331l-0.363,0.728l0,0.242c0,0.12 0,0.241 -0.12,0.363c0,0.362 0,0.604 0.12,0.968c0.242,0.484 0.726,0.848 1.331,0.97c0.364,0 0.605,0 0.848,-0.122c0.122,0 0.122,0 0.242,-0.122l0.121,0l0.364,-0.12l0.604,-0.363l1.211,-0.727l2.421,-1.331c1.694,-0.847 3.39,-1.695 5.083,-2.421c1.695,-0.727 3.391,-1.452 5.085,-1.816c0.848,-0.241 1.695,-0.362 2.3,-0.241c0.363,0 0.483,0.121 0.605,0.121c0,0 0,0 0,0.12c-0.484,1.937 -1.09,3.752 -1.938,5.447c-0.968,1.816 -2.179,3.391 -3.632,4.479c-1.573,1.21 -3.389,1.815 -5.205,2.179c-1.935,0.242 -3.994,0.12 -5.931,-0.363c-3.995,-0.848 -7.747,-2.784 -11.259,-5.084c-3.51,-2.301 -6.778,-5.083 -9.563,-8.11c-0.727,-0.727 -1.332,-1.574 -2.058,-2.421l-1.937,-2.542c-1.453,-1.815 -3.027,-3.268 -4.721,-4.842c-1.695,-1.453 -3.511,-2.785 -5.326,-3.995c-1.937,-1.211 -3.874,-2.179 -6.053,-3.026c-2.179,-0.726 -4.479,-1.21 -6.9,-1.21c-2.421,0.121 -4.842,0.848 -6.9,2.058l-0.242,0.121l-0.121,0.121l-0.121,0.121c-0.726,0.605 -0.847,1.332 -0.726,1.937c0.121,0.606 0.726,1.332 1.452,1.453l0.364,0.121c0.605,0.121 1.21,0.242 1.694,0.242c1.089,0.121 2.058,0.363 3.026,0.605c0.605,0.121 1.089,0.363 1.574,0.605c-1.089,0 -2.179,0.121 -3.147,0.242c-1.211,0.122 -2.421,0.363 -3.632,0.727c-1.21,0.363 -2.421,0.606 -3.51,1.089c-0.605,0.242 -1.211,0.484 -1.695,0.727c-0.605,0.242 -1.089,0.484 -1.694,0.847l-0.848,0.484l-0.121,0.121l-0.121,0l-0.242,0.121l-0.363,0.242c-0.242,0.242 -0.605,0.363 -0.848,0.727c-0.242,0.242 -0.605,0.605 -0.847,1.211c0,0.121 -0.121,0.242 -0.121,0.363c1.386,1.718 3.982,1.399 8.833,1.591c3.028,1.656 -5.971,1.271 -8.894,6.723c-2.483,4.632 -4.146,11.402 -5.328,16.28c-1.539,6.353 -3.808,12.443 -3.608,21.949c0.203,9.629 1.319,29.43 6.043,40.955c10.876,26.537 47.089,56.669 80.426,64.56c21.574,5.106 39.89,5.41 58.832,-0.766c34.743,-11.328 48.726,-29.572 48.542,-30.242c0.606,-0.727 1.211,-1.573 1.694,-2.299c2.784,-3.996 4.479,-8.596 4.964,-13.195c0.121,0 0.241,0 0.241,0c0.122,0 0.364,0.12 0.605,0.484c0.484,0.483 0.848,1.452 0.969,2.421c0.121,0.483 0.241,0.967 0.241,1.572l0.122,0.849l0.12,0.968c0,0 0.122,0.727 0.363,0.969c0.242,0.363 0.484,0.605 0.848,0.726c0.605,0.364 1.453,0.364 2.179,0.121c0.364,-0.121 0.727,-0.483 0.848,-0.726l0.122,-0.241c0,0 0,0 0.12,-0.122l0.121,-0.242l0.363,-0.726c0.241,-0.606 0.484,-1.211 0.605,-1.816c0.121,-0.606 0.241,-1.21 0.363,-1.815c0.242,-1.211 0.362,-2.301 0.362,-3.511l0,-2.179c0.485,0.483 0.969,0.848 1.574,1.332c0.242,0.12 0.604,0.361 1.09,0.483c0.483,0.122 1.089,0.242 1.815,-0.122c0.726,-0.361 1.089,-0.846 1.211,-1.331c0.242,-0.484 0.242,-0.846 0.362,-1.09c0,-0.241 0,-0.241 0.121,-0.605l0,-1.331c0,-0.604 -0.121,-1.21 -0.241,-1.815c-0.484,-2.301 -1.332,-4.236 -2.301,-6.173c-0.242,-0.485 -0.484,-0.97 -0.726,-1.453c0.241,0.122 0.483,0.242 0.726,0.363c0.726,0.484 1.573,0.969 2.179,1.452c0.363,0.243 0.606,0.483 0.969,0.848c0.363,0.241 0.484,0.606 0.727,0.847l0.121,0.243l0.121,0.121c0.606,0.605 1.694,0.605 2.3,0.12c0.362,-0.241 0.604,-0.604 0.727,-0.968c0.121,-0.242 0.121,-0.483 0.121,-0.605l0,-0.242l-0.117,-0.969z" id="svg_1"/>
   <path fill="none" d="m279.11791,242.16145l0,0l0,0l0,0z" id="svg_2"/>
   <path d="m353.07991,291.67145c-0.242,-1.09 -0.483,-2.058 -0.848,-3.148c-0.726,-2.179 -2.057,-4.236 -3.994,-6.052c-0.363,-0.363 -0.848,-0.605 -1.211,-0.969c-0.726,-0.483 -1.573,-0.848 -2.421,-1.21c-0.604,-0.242 -1.21,-0.363 -1.936,-0.483c-1.453,-0.364 -3.026,-0.364 -4.48,-0.243l0,0c-0.484,0 -1.09,0.121 -1.573,0.121c-5.811,0.848 -10.895,3.632 -11.258,3.874l-5.327,3.026l6.053,-0.848c0.121,0 16.342,-2.179 19.126,7.143c1.453,4.962 2.179,8.352 2.543,10.409c0.363,2.059 0.363,2.906 0.363,3.026l0,5.085l2.299,-4.479c0.242,-0.363 3.026,-6.173 2.785,-12.831c0.121,-0.848 0.121,-1.573 -0.121,-2.421zm-3.026,9.805c-0.483,-2.179 -1.21,-5.205 -2.299,-9.199c-2.059,-7.021 -9.685,-8.837 -15.253,-9.079c3.874,-1.332 9.078,-2.179 13.073,0.121c0.484,0.242 0.848,0.604 1.332,0.968c1.694,1.695 2.784,3.511 3.39,5.447c1.21,4.116 0.604,8.595 -0.243,11.742z" id="svg_3"/>
   <path fill="#BC4589" d="m348.23791,262.61845c0.968,-0.362 2.059,-0.727 3.148,-1.09c0.12,0 0.241,0 0.362,-0.12c4.843,-2.906 9.685,-5.085 11.983,-4.6c0.848,0.12 1.211,0.605 1.453,0.968c0.727,1.089 0.122,2.542 -0.968,4.115c0.12,0.242 0.242,0.364 0.242,0.605c0.12,0.605 0,1.332 -0.485,1.938c-0.242,0.242 -0.483,0.483 -0.726,0.605c0.726,-0.122 1.331,-0.122 2.059,-0.243c0.604,0 1.331,-0.12 1.936,-0.12c0.363,-3.753 0,-6.779 -1.331,-8.474c-0.727,-0.848 -1.694,-1.332 -2.905,-1.453c-4.6,-0.362 -12.225,4.6 -18.158,9.321c0.121,0 0.243,-0.121 0.363,-0.121c1.091,-0.483 2.059,-0.968 3.027,-1.331z" id="svg_4"/>
   <path d="m336.73791,391.65945c-1.453,0.121 -3.269,0.121 -5.205,0.242c-2.3,0.12 -4.962,0 -7.868,0c-1.453,0 -2.905,-0.121 -4.479,-0.121c-1.573,-0.121 -3.146,-0.121 -4.72,-0.242c-1.695,-0.121 -3.268,-0.242 -4.964,-0.362c-1.211,-0.122 -2.542,-0.242 -3.874,-0.485c-0.483,0 -0.847,-0.12 -1.331,-0.12c-0.605,-0.122 -1.331,-0.242 -1.936,-0.242c-1.09,-0.122 -2.3,-0.363 -3.391,-0.485c-0.12,0 -0.362,0 -0.483,-0.12c-1.573,-0.363 -3.269,-0.605 -4.964,-0.968c-1.815,-0.364 -3.631,-0.848 -5.447,-1.211c-1.815,-0.484 -3.631,-0.97 -5.447,-1.453c-1.089,-0.362 -2.299,-0.605 -3.389,-0.968c-0.848,-0.242 -1.694,-0.484 -2.421,-0.848c-0.605,-0.242 -1.331,-0.484 -1.937,-0.605c-0.969,-0.362 -1.938,-0.727 -3.026,-1.09c-3.511,-1.331 -6.9,-2.784 -10.047,-4.236c-3.148,-1.574 -6.295,-3.147 -9.079,-4.721c-2.785,-1.695 -5.448,-3.268 -7.748,-4.842c-4.721,-3.148 -8.474,-6.175 -10.895,-8.474c-2.3,-2.059 -3.631,-3.391 -3.752,-3.632c0,0.121 0.363,0.483 0.848,1.089c0.605,0.727 1.452,1.695 2.663,2.905c1.211,1.211 2.663,2.664 4.358,4.237c1.695,1.573 3.753,3.269 6.053,4.963c2.3,1.815 4.842,3.511 7.626,5.326c2.784,1.816 5.811,3.51 9.079,5.085c3.269,1.573 6.657,3.146 10.167,4.6c0.364,0.12 0.605,0.242 0.97,0.362c0.483,0.243 0.968,0.363 1.452,0.605c0.484,0.242 1.09,0.363 1.574,0.605c2.299,0.848 4.6,1.573 6.898,2.179c1.816,0.605 3.754,0.968 5.569,1.453c1.816,0.362 3.752,0.848 5.568,1.21c1.815,0.363 3.753,0.605 5.568,0.969c1.816,0.242 3.632,0.484 5.448,0.727l0.12,0c0.968,0.121 1.937,0.121 2.784,0.241c0.727,0.122 1.573,0.122 2.3,0.242c0.121,0 0.243,0 0.363,0c1.573,0.122 3.147,0.122 4.722,0.242c1.694,0.121 3.268,0 4.842,0c1.573,0 3.026,0 4.478,-0.12c2.905,-0.122 5.447,-0.242 7.868,-0.484c1.695,-0.121 3.147,-0.243 4.478,-0.485c0.605,-0.12 1.09,-0.12 1.574,-0.241c3.269,-0.484 5.206,-0.727 5.206,-0.727s-1.938,0.121 -5.206,0.362c-0.361,-0.362 -0.725,-0.362 -0.967,-0.362z" id="svg_5"/>
   <path fill="#440338" d="m342.42791,295.30345c-4.478,-5.205 -14.768,-7.02 -20.216,-3.754c2.543,-0.726 5.205,-0.968 7.506,-0.726c2.905,0.363 5.567,1.453 7.626,2.906c2.058,1.451 3.632,3.146 4.842,4.842c1.211,1.693 1.816,3.389 2.301,4.842c0.242,0.726 0.362,1.331 0.483,1.936c0.122,0.605 0.242,1.09 0.242,1.453c0,0.848 0.122,1.21 0.122,1.21l0,0c0,0 0,0.363 0,1.211c0,0.362 0,0.848 -0.122,1.453c0,0.604 -0.242,1.21 -0.363,1.936c-0.362,1.211 -0.847,2.664 -1.694,4.237c1.815,-1.936 4.116,-7.143 3.026,-13.195c-0.727,-2.542 -1.695,-5.447 -3.753,-8.351z" id="svg_6"/>
   <path d="m344.96991,310.79745c0.122,-0.605 0.122,-1.09 0.122,-1.453c0,-0.725 0,-1.21 0,-1.21l0,0c0,0 0,-0.483 -0.122,-1.211c0,-0.363 -0.121,-0.848 -0.241,-1.453c-0.122,-0.605 -0.242,-1.21 -0.484,-1.936c-0.485,-1.453 -1.09,-3.147 -2.301,-4.843c-1.089,-1.695 -2.662,-3.389 -4.842,-4.842c-2.058,-1.453 -4.721,-2.542 -7.626,-2.905c-2.421,-0.241 -4.963,-0.121 -7.506,0.727c-0.483,0.121 -0.968,0.363 -1.451,0.606c-1.453,0.605 -2.906,1.453 -4.237,2.541c-1.332,1.091 -2.421,2.301 -3.391,3.632c-0.241,0.363 -0.483,0.728 -0.726,1.09c-0.605,1.089 -1.21,2.3 -1.573,3.51c-0.484,1.575 -0.848,3.511 -0.848,5.085c0,0.727 0,1.452 0.121,2.058c0,0.605 0.121,1.09 0.242,1.573c0.121,0.485 0.242,1.09 0.362,1.574l0,0.121c0.485,1.573 1.211,3.147 2.18,4.6c0.969,1.453 2.058,2.784 3.39,3.874c1.331,1.089 2.784,1.936 4.237,2.664c1.573,0.604 3.025,1.088 4.72,1.331c0.848,0.12 1.575,0.12 2.301,0.12c0.848,0 1.573,-0.12 2.3,-0.12l0,0c0.605,-0.121 1.211,-0.243 1.694,-0.363c0.484,-0.122 1.09,-0.242 1.573,-0.484c1.695,-0.605 3.148,-1.331 4.479,-2.3c2.179,-1.453 3.753,-3.391 4.842,-5.084c0.122,-0.242 0.363,-0.485 0.485,-0.728c0.847,-1.451 1.331,-3.026 1.693,-4.236c0.365,-0.727 0.486,-1.333 0.607,-1.938zm-0.968,-1.573c0,0.362 -0.121,0.848 -0.243,1.331c-0.12,0.484 -0.241,1.09 -0.362,1.815c-0.121,0.242 -0.121,0.484 -0.242,0.848c-0.363,1.09 -0.969,2.421 -1.816,3.632c-1.089,1.573 -2.662,3.147 -4.6,4.479c-1.694,1.089 -3.632,1.816 -5.931,2.179c-0.364,0.121 -0.727,0.121 -1.211,0.121c-0.242,0 -0.484,0 -0.727,0l0,0c-0.363,0 -0.848,0 -1.211,0c-0.362,0 -0.726,0 -1.088,-0.121c-0.364,0 -0.728,-0.12 -0.97,-0.12c-1.331,-0.122 -2.662,-0.605 -3.994,-1.211c-2.664,-1.21 -4.963,-3.147 -6.658,-5.568c-0.242,-0.363 -0.483,-0.727 -0.605,-1.089c-0.362,-0.728 -0.726,-1.332 -0.968,-2.059c-0.121,-0.362 -0.242,-0.605 -0.363,-0.968c-0.122,-0.242 -0.122,-0.605 -0.242,-0.848c-0.363,-1.211 -0.484,-2.421 -0.484,-3.632c0,-1.695 0.121,-3.148 0.605,-4.6c0.485,-1.453 1.091,-2.905 1.938,-4.236c0.848,-1.333 1.816,-2.422 3.026,-3.512c1.211,-0.968 2.422,-1.815 3.753,-2.421c2.179,-1.09 4.6,-1.573 6.899,-1.573c0.485,0 0.969,0 1.574,0.121c2.663,0.242 5.204,1.21 7.263,2.542c2.058,1.331 3.511,3.026 4.6,4.6c1.09,1.694 1.695,3.27 2.059,4.601c0.121,0.726 0.362,1.331 0.362,1.815c0.122,0.605 0.122,0.968 0.122,1.331c0,0.605 0,0.97 0,1.09c-0.486,0.242 -0.486,0.725 -0.486,1.453z" id="svg_7"/>
   <path d="m320.51891,305.35045c2.205,0 3.994,1.788 3.994,3.994c0,2.207 -1.789,3.995 -3.994,3.995c-2.206,0 -3.996,-1.788 -3.996,-3.995c-0.001,-2.206 1.789,-3.994 3.996,-3.994z" id="svg_8"/>
   <path d="m322.09191,256.20345l0,0l0,0l0,0z" id="svg_9"/>
   <path d="m301.75491,293.60745c2.206,0 3.995,1.788 3.995,3.994c0,2.206 -1.789,3.996 -3.995,3.996c-2.205,0 -3.995,-1.79 -3.995,-3.996c0,-2.205 1.79,-3.994 3.995,-3.994z" id="svg_10"/>
   <path d="m312.04491,299.17745c0.726,-1.333 1.21,-2.543 1.451,-3.632c0,-0.122 0.122,-0.364 0.122,-0.484c0.12,-0.485 0.242,-0.969 0.242,-1.453c0.121,-0.605 0.121,-1.089 0.121,-1.453c0,-0.726 0,-1.21 0,-1.21l0,0c0,0 0,-0.363 -0.121,-1.211c0,-0.363 -0.122,-0.847 -0.242,-1.451c-0.122,-0.605 -0.242,-1.211 -0.484,-1.816c-0.484,-1.332 -1.211,-2.905 -2.422,-4.601c-1.21,-1.573 -2.783,-3.147 -4.842,-4.357c-2.058,-1.211 -4.6,-2.179 -7.384,-2.542c-2.783,-0.364 -5.81,0 -8.716,1.089c-1.453,0.605 -2.784,1.332 -4.116,2.179c-0.12,0.122 -0.241,0.122 -0.362,0.242c-1.211,0.848 -2.179,1.938 -3.148,3.148c-0.968,1.331 -1.815,2.784 -2.421,4.357c-0.484,1.21 -0.727,2.663 -0.848,3.994c0,0.363 0,0.605 -0.12,0.969c0,0.121 0,0.242 0,0.484c0,0.484 0,0.968 0.12,1.453c0.121,1.089 0.363,2.058 0.605,3.147c0.605,1.573 1.331,3.148 2.301,4.479c0.968,1.331 2.179,2.541 3.51,3.631c1.332,0.969 2.783,1.816 4.236,2.421c0.727,0.243 1.453,0.485 2.301,0.727c0.726,0.242 1.573,0.364 2.299,0.484c0.848,0.121 1.453,0.121 2.18,0.121c0.847,0 1.574,0 2.3,-0.121c0.848,-0.12 1.695,-0.242 2.543,-0.484c0.483,-0.121 1.089,-0.241 1.573,-0.483c0.483,-0.122 0.968,-0.363 1.331,-0.605c0.848,-0.363 1.573,-0.728 2.3,-1.211c2.18,-1.332 3.753,-3.026 4.843,-4.722c0.363,-0.364 0.606,-0.727 0.848,-1.089zm-6.658,4.357c-1.09,0.604 -2.18,1.09 -3.391,1.452c-0.483,0.121 -1.089,0.242 -1.573,0.363c-0.605,0.12 -1.21,0.242 -1.815,0.242l0,0c-0.605,0 -1.331,0 -1.936,0c-0.727,0 -1.453,0 -2.059,-0.242c-1.21,-0.121 -2.663,-0.605 -3.873,-1.09c-1.331,-0.605 -2.542,-1.211 -3.753,-2.057c-1.09,-0.848 -2.179,-1.939 -3.025,-3.026c-0.848,-1.211 -1.574,-2.422 -2.059,-3.874c-0.12,-0.242 -0.242,-0.605 -0.242,-0.848c-0.121,-0.484 -0.242,-1.09 -0.363,-1.695c-0.12,-0.483 -0.12,-1.089 -0.12,-1.573c0,-0.121 0,-0.121 0,-0.242c0,-1.574 0.241,-3.026 0.605,-4.478c0.483,-1.453 1.088,-2.785 1.936,-3.995c0.848,-1.211 1.937,-2.3 3.026,-3.268c1.211,-0.97 2.421,-1.695 3.752,-2.301c0.97,-0.363 1.938,-0.726 3.026,-0.968c1.816,-0.363 3.632,-0.485 5.327,-0.363c2.663,0.241 5.205,1.089 7.143,2.3c2.057,1.21 3.632,2.783 4.72,4.358c1.091,1.573 1.695,3.146 2.059,4.477c0.12,0.605 0.363,1.211 0.363,1.816c0.121,0.485 0.121,0.97 0.121,1.333c0,0.725 0,1.089 0,1.089l0,0c0,0 0,0.242 -0.121,0.605c0,0.122 0,0.364 0,0.485c0,0.362 -0.121,0.848 -0.243,1.331c-0.12,0.484 -0.241,1.09 -0.483,1.695c-0.484,1.21 -1.09,2.783 -2.179,4.236c-1.211,1.696 -2.787,3.027 -4.843,4.238z" id="svg_11"/>
   <g id="svg_12">
    <path fill="#DFCF6F" d="m343.88091,305.59245c0,-0.606 -0.122,-1.21 -0.363,-1.815c-0.363,-1.333 -0.969,-3.026 -2.058,-4.6c-1.09,-1.575 -2.543,-3.269 -4.6,-4.602c-2.059,-1.331 -4.601,-2.299 -7.264,-2.541c-0.484,0 -0.969,-0.121 -1.574,-0.121c-2.299,0 -4.721,0.483 -6.899,1.573c-1.332,0.605 -2.542,1.453 -3.753,2.422c-1.089,0.968 -2.179,2.179 -3.026,3.51c-0.848,1.332 -1.453,2.785 -1.937,4.236c-0.362,1.574 -0.89655,3.77964 -0.605,4.601c0.29155,0.82136 0.242,2.422 0.483,3.632c0,0.241 0.121,0.605 0.242,0.847c0.121,0.364 0.242,0.605 0.362,0.969c0.243,0.727 0.605,1.452 0.97,2.058c0.241,0.364 0.363,0.726 0.605,1.09c1.694,2.541 4.115,4.479 6.657,5.567c1.331,0.605 2.663,1.09 3.995,1.211c0.362,0.122 0.605,0.122 0.968,0.122c0.363,0 0.726,0 1.09,0.12c0.363,0 0.847,0 1.211,0l0,0c0.241,0 0.483,0 0.726,0c0.363,0 0.726,-0.12 1.211,-0.12c2.179,-0.363 4.236,-1.211 5.932,-2.179c1.936,-1.211 3.51,-2.785 4.6,-4.479c0.848,-1.211 1.453,-2.543 1.816,-3.632c0.12,-0.242 0.242,-0.605 0.242,-0.848c0.241,-0.726 0.362,-1.331 0.362,-1.815c0.121,-0.484 0.242,-0.968 0.242,-1.331c0,-0.728 0.121,-1.211 0.121,-1.211c0,-0.121 0,-0.484 0,-1.09c0.365,-0.606 0.365,-1.091 0.244,-1.574zm-23.362,7.747c-2.18,0 -15.36626,-15.81017 -5.16218,-2.53727c10.20408,13.2729 11.72854,3.87772 13.90854,3.87772c2.179,0 -4.75236,-7.51445 -4.75236,-5.33545c0.121,2.3 -1.696,3.995 -3.994,3.995z" id="svg_13"/>
    <path fill="#DFCF6F" d="m312.76991,293.48645c0.12,-0.484 0.242,-0.968 0.242,-1.332c0,-0.241 0,-0.362 0,-0.483c0,-0.363 0.121,-0.605 0.121,-0.605l0,0c0,0 0,-0.362 0,-1.09c0,-0.362 0,-0.848 -0.121,-1.331c0,-0.484 -0.242,-1.09 -0.363,-1.815c-0.363,-1.332 -0.969,-2.906 -2.058,-4.479c-1.09,-1.573 -2.663,-3.146 -4.722,-4.357c-2.058,-1.21 -4.479,-2.058 -7.142,-2.3c-1.694,-0.121 -3.511,0 -5.326,0.362c-0.968,0.242 -1.937,0.484 -3.026,0.969c-1.331,0.604 -2.542,1.332 -3.752,2.3c-1.09,0.969 -2.18,2.059 -3.026,3.269c-0.848,1.211 -1.453,2.664 -1.938,3.995c-0.363,1.452 -0.605,2.905 -0.605,4.478c0,0.121 0,0.121 0,0.242c0,0.484 0.122,1.089 0.122,1.574c0.12,0.605 0.241,1.089 0.362,1.693c0.121,0.364 0.121,0.605 0.243,0.848c0.483,1.332 1.21,2.664 2.057,3.874c0.848,1.211 1.938,2.179 3.026,3.026c1.21,0.848 2.421,1.573 3.753,2.059c1.331,0.483 2.663,0.847 3.874,1.088c0.605,0.122 1.331,0.122 2.057,0.243c0.605,0 1.333,0 1.938,0l0,0c0.605,0 1.211,-0.121 1.816,-0.243c0.483,-0.12 1.089,-0.241 1.573,-0.362c1.21,-0.363 2.421,-0.848 3.389,-1.453c1.938,-1.089 3.512,-2.542 4.722,-3.994c1.089,-1.453 1.816,-3.026 2.179,-4.237c0.363,-0.85 0.605,-1.454 0.605,-1.939zm-11.015,8.112c19.97743,-13.11953 -3.995,-1.816 -3.995,-3.996c0,-2.179 -4.59899,6.50163 -2.41899,6.50163c2.179,0 10.40899,-8.68063 10.40899,-6.50163c0.12,2.179 -23.97243,17.11553 -3.995,3.996z" id="svg_14"/>
   </g>
   <path d="m294.00791,336.94345c1.09,0.122 2.179,0.122 3.147,-0.12c0.484,-0.121 1.09,-0.242 1.574,-0.363c0.484,-0.242 1.089,-0.363 1.574,-0.727c0.362,-0.241 0.726,-0.484 1.089,-0.969c0.121,-0.242 0.242,-0.362 0.363,-0.725c0.121,-0.122 0.121,-0.363 0.121,-0.484c0,-0.363 0,-0.848 -0.121,-1.089c0,0 0,-0.122 -0.121,-0.122c-0.242,-0.363 -0.483,-0.605 -0.727,-0.848l-0.121,0l0,0l-0.725,-0.363c-0.243,-0.12 -0.485,-0.242 -0.727,-0.362c-0.243,-0.121 -0.484,-0.242 -0.849,-0.242c-0.12,0 -0.12,0 -0.241,0c-0.242,0 -0.484,0 -0.725,0l-0.849,0.121c0,0 -0.121,0 -0.241,0c-0.242,0 -0.364,0.121 -0.605,0.121c-0.242,0.12 -0.484,0.12 -0.726,0.242c0,0 0,0 -0.122,0c-0.242,0.12 -0.483,0.242 -0.727,0.363c-0.362,0.242 -0.847,0.604 -1.211,0.968c-0.361,0.363 -0.726,0.728 -0.967,1.09c-0.605,0.726 -1.09,1.573 -1.454,2.421c0.727,-0.606 1.454,-1.09 2.18,-1.573c0.363,-0.242 0.726,-0.484 1.09,-0.727c0.362,-0.243 0.726,-0.363 1.089,-0.483c0.242,0 0.363,-0.122 0.605,-0.243c0.122,0 0.363,-0.121 0.483,-0.121l0.484,-0.121l0,0l0.485,0c0.12,0 0.12,0 0.241,0s0.121,0 0.243,0c0.12,0 0.361,0.121 0.483,0.121c0.363,0.121 0.605,0.242 0.848,0.484l0,0c0,0.12 -0.242,0.242 -0.484,0.484c-0.605,0.483 -1.452,0.847 -2.301,1.211c-0.847,0.362 -1.815,0.605 -2.783,0.847c-0.484,0.121 -0.969,0.121 -1.454,0.121c-0.483,0 -0.967,0 -1.451,-0.121c0.363,0.363 0.847,0.605 1.331,0.848c1.333,0.12 1.816,0.241 2.302,0.361z" id="svg_15"/>
   <g id="svg_16">
    <path fill="#490859" d="m346.66491,284.28645c-0.484,-0.363 -0.848,-0.605 -1.331,-0.968c-3.996,-2.3 -9.079,-1.453 -13.074,-0.121c5.689,0.363 13.315,2.059 15.253,9.079c1.21,4.115 1.936,7.02 2.299,9.199c0.848,-3.147 1.575,-7.626 0.122,-11.862c-0.485,-1.816 -1.574,-3.753 -3.269,-5.327z" id="svg_17"/>
    <path fill="#490859" d="m314.22391,271.09245c1.331,1.694 2.179,3.874 2.783,5.69c0.969,-2.059 1.816,-5.085 0.848,-7.628c0,-0.12 -0.121,-0.241 -0.121,-0.362c-0.121,-0.363 -0.363,-0.727 -0.605,-0.969c-0.483,-0.604 -1.089,-1.21 -1.937,-1.573c-1.331,-0.727 -3.026,-1.21 -5.084,-1.453c-1.331,-0.12 -2.664,-0.242 -3.874,-0.242c-1.331,0 -2.542,0.122 -3.752,0.363c-0.605,0.122 -1.211,0.242 -1.816,0.364c-4.6,1.21 -7.988,3.51 -10.289,5.567c3.874,-1.331 9.685,-2.905 14.768,-2.905c3.631,0.121 7.02,0.848 9.079,3.148z" id="svg_18"/>
   </g>
   <path d="m315.55491,347.35545c-0.242,-0.362 -0.605,-0.606 -0.969,-0.968c-0.362,-0.364 -0.848,-0.728 -1.331,-0.97c-0.484,-0.363 -1.09,-0.605 -1.695,-0.968c-0.604,-0.242 -1.21,-0.483 -1.936,-0.727c-0.605,-0.121 -1.333,-0.362 -2.059,-0.484c-0.727,-0.12 -1.332,-0.242 -2.058,-0.242c-0.727,0 -1.331,0 -1.936,0s-1.211,0.122 -1.816,0.242c-0.604,0 -1.09,0.242 -1.574,0.242c-1.937,0.485 -3.268,1.09 -3.268,1.09s1.331,0.121 3.268,0.241c0.97,0.122 2.059,0.122 3.268,0.244c0.605,0 1.211,0.12 1.815,0.241c0.605,0 1.211,0.242 1.816,0.242c0.605,0.121 1.21,0.242 1.815,0.362c0.605,0.121 1.211,0.243 1.695,0.485c0.483,0.241 1.089,0.362 1.573,0.484c0.484,0.241 0.969,0.361 1.453,0.605c0.363,0.241 0.848,0.361 1.21,0.605c0.363,0.12 0.605,0.361 0.848,0.483c0.484,0.242 0.727,0.362 0.847,0.483c0,0 -0.241,-0.362 -0.483,-0.847c0.001,-0.238 -0.121,-0.601 -0.483,-0.843z" id="svg_19"/>
   <path d="m310.22791,351.83445c-0.363,-0.364 -0.727,-0.605 -1.21,-0.848c-0.484,-0.363 -0.97,-0.605 -1.453,-0.848c-0.484,-0.242 -1.09,-0.484 -1.695,-0.726c-0.605,-0.242 -1.21,-0.364 -1.815,-0.485c-1.211,-0.242 -2.421,-0.484 -3.632,-0.604c-1.21,-0.121 -2.179,0 -3.146,0c-1.816,0.12 -3.026,0.604 -3.026,0.604s1.21,0.363 2.904,0.727c1.695,0.363 3.996,0.969 6.295,1.452c0.605,0.122 1.09,0.242 1.695,0.363c0.483,0.242 1.089,0.242 1.573,0.484c0.484,0.242 0.969,0.242 1.453,0.485c0.483,0.12 0.968,0.241 1.331,0.483c0.363,0.121 0.848,0.242 1.09,0.362c0.363,0.122 0.605,0.242 0.848,0.364c0.483,0.121 0.725,0.241 0.847,0.241c0,0 -0.241,-0.363 -0.483,-0.605c-0.244,-0.36 -0.849,-0.844 -1.576,-1.449z" id="svg_20"/>
   <path d="m302.96591,358.37045c-0.122,-0.363 -0.364,-0.605 -0.605,-0.969c-0.484,-0.604 -1.09,-1.21 -1.815,-1.695c-0.728,-0.483 -1.453,-0.846 -2.18,-1.088c-0.727,-0.243 -1.452,-0.363 -2.058,-0.485c-1.21,-0.12 -2.058,0 -2.058,0s0.605,0.605 1.573,1.211c0.968,0.727 2.179,1.453 3.269,2.3c0.363,0.243 0.605,0.363 0.848,0.605c0.241,0.242 0.483,0.363 0.725,0.606c0.242,0.242 0.485,0.363 0.727,0.605c0.242,0.242 0.484,0.362 0.605,0.605c0.122,0.242 0.364,0.362 0.485,0.605c0.12,0.121 0.242,0.363 0.362,0.483c0.242,0.243 0.363,0.485 0.363,0.485s0.122,-0.242 0.122,-0.605c0,-0.242 0.12,-0.484 0,-0.726c0,-0.242 -0.122,-0.605 -0.122,-0.848c0.122,-0.362 0,-0.727 -0.241,-1.089z" id="svg_21"/>
   <g id="svg_22">
    <path fill="#BC4589" d="m325.23791,246.39745c1.333,1.574 2.301,3.511 3.026,5.447c0.122,0.484 0.363,0.968 0.484,1.453c0.121,-7.143 0.243,-10.29 1.453,-11.5c0.363,-0.363 0.847,-0.484 1.331,-0.484c4.237,0.121 3.874,15.979 3.752,19.126c0,1.211 -0.241,4.479 -0.604,7.869c0.484,0 1.09,-0.122 1.574,-0.243c1.211,-8.23 2.421,-22.999 -1.09,-27.962c-0.605,-0.969 -1.453,-1.453 -2.421,-1.574c-2.663,-0.363 -6.295,1.816 -10.169,5.206c0.849,0.726 1.817,1.694 2.664,2.662z" id="svg_23"/>
    <g id="svg_24">
     <path fill="#BC4589" d="m418.32691,334.52345c-1.21,-1.937 -3.025,-3.51 -4.963,-4.842c-2.058,-1.331 -4.237,-2.3 -6.536,-3.268c-1.091,-0.364 -2.301,-0.728 -3.512,-1.09c-0.604,-0.121 -1.21,-0.363 -1.815,-0.485c-0.606,-0.12 -1.211,-0.24 -1.815,-0.362l-3.147,-0.483l2.3,-2.059c0.242,-0.242 0.364,-0.362 0.604,-0.484l0.485,-0.363c-0.485,-0.12 -0.969,-0.12 -1.453,-0.242c-2.179,-0.362 -4.236,-0.848 -6.415,-1.453c-4.116,-1.21 -8.231,-2.662 -12.105,-4.478c-3.874,-1.815 -7.748,-3.753 -11.379,-6.175c-0.969,-0.604 -1.816,-1.21 -2.663,-1.936c-0.484,-0.363 -0.847,-0.727 -1.332,-1.09c-0.483,-0.363 -0.848,-0.848 -1.21,-1.211c-1.453,-1.694 -2.784,-3.51 -3.632,-5.811c-0.121,-0.362 -0.242,-0.604 -0.242,-0.968l0,0c-0.241,-0.848 -0.241,-1.695 -0.121,-2.663c0,-0.121 0,-0.121 0,-0.243c0.121,-0.726 0.363,-1.331 0.605,-1.936c0.121,-0.363 0.363,-0.727 0.605,-0.969c0.242,-0.242 0.362,-0.484 0.605,-0.727c0.362,-0.363 0.848,-0.727 1.331,-0.969c1.938,-1.09 4.236,-1.21 6.295,-0.242c2.3,1.211 3.874,2.906 5.205,4.6c1.332,1.816 2.421,3.632 3.511,5.569c0.726,1.453 1.453,2.904 2.058,4.357l0,-0.12c0.242,-1.938 0.121,-3.874 -0.242,-5.933c-0.362,-1.936 -0.725,-3.994 -1.331,-5.931l-1.332,-3.996l3.511,2.181c0.363,0.241 0.605,0.362 0.848,0.604c0.241,0.241 0.483,0.363 0.725,0.605c0.485,0.483 0.848,0.847 1.211,1.331c0.362,0.485 0.726,0.969 0.968,1.573c0.363,0.485 0.605,1.091 0.848,1.574c0.242,0.484 0.363,0.969 0.605,1.452c0.12,-1.21 0.12,-2.421 0,-3.631c-0.363,-3.148 -2.059,-5.931 -4.357,-8.111c-0.606,-0.483 -1.211,-1.089 -1.938,-1.451c-0.363,-0.242 -0.726,-0.485 -0.968,-0.605l-0.243,-0.122l-0.12,0l0,0l-0.122,0l0,0l-0.12,-0.12l0,0c0,0 -0.121,-0.122 -0.242,-0.122c-0.483,-0.483 -0.605,-0.968 -0.483,-1.451c0.12,-0.485 0.362,-0.848 0.846,-1.09c0.242,-0.121 0.605,-0.243 0.848,-0.121c0.242,0 0.363,0.121 0.485,0.121l0.12,0l0.363,0.12c1.695,0.727 3.39,1.574 4.964,2.543c1.573,0.968 3.026,2.179 4.357,3.51c0.362,0.364 0.604,0.605 0.968,0.97c-0.121,-0.364 -0.241,-0.848 -0.363,-1.211c-0.604,-1.815 -1.815,-3.511 -3.268,-4.722c-1.573,-1.21 -3.389,-2.3 -5.447,-3.146c-1.693,-0.728 -3.51,-1.575 -5.205,-2.301c-0.242,-0.12 -0.483,-0.242 -0.848,-0.363l-3.631,-1.573l3.874,-1.09c0.362,-0.12 0.604,-0.12 0.968,-0.242l0.848,-0.12c0.605,-0.122 1.21,-0.122 1.815,-0.243c1.211,-0.12 2.421,-0.12 3.511,0c1.211,0.121 2.422,0.243 3.51,0.605c0.485,0.121 0.97,0.242 1.453,0.484l-0.968,-0.847c-0.363,-0.363 -0.605,-0.605 -0.969,-0.848c-0.362,-0.243 -0.727,-0.605 -1.09,-0.848l-1.089,-0.727l-1.21,-0.605c-0.848,-0.363 -1.575,-0.848 -2.421,-1.09c-0.848,-0.363 -1.695,-0.605 -2.543,-0.848c-0.848,-0.241 -1.815,-0.484 -2.663,-0.605c-0.847,-0.121 -1.816,-0.241 -2.662,-0.363c-0.485,0 -1.091,-0.12 -1.575,-0.12c-0.363,0 -0.726,0 -1.089,0l-0.121,0c-0.363,0 -0.847,0 -1.211,0c-0.483,0 -0.968,0 -1.452,0c-1.815,0.12 -3.631,0.362 -5.568,0.726c-0.969,0.242 -1.937,0.363 -2.905,0.605c-0.847,0.242 -1.694,0.484 -2.421,0.605c-0.242,0.121 -0.364,0.121 -0.604,0.242c-0.728,0.242 -1.333,0.362 -2.059,0.604c-0.727,0.243 -1.453,0.485 -2.179,0.848c-0.122,0.121 -0.242,0.121 -0.364,0.121l-6.173,2.663l4.722,-4.842c0.12,-0.121 0.241,-0.242 0.362,-0.363c0.363,-0.362 0.605,-0.605 0.969,-0.848c0.484,-0.362 0.968,-0.604 1.452,-0.968c0.969,-0.605 1.936,-1.09 2.905,-1.573c1.938,-0.97 3.995,-1.695 6.053,-2.301l0.121,0l0.121,0l-0.121,0c-1.573,-0.12 -3.269,0 -4.842,0.242c-0.968,0.121 -1.938,0.363 -2.784,0.605l-0.121,0c-0.969,0.242 -1.936,0.605 -2.905,0.968c-0.604,0.243 -1.21,0.485 -1.815,0.848c-0.364,0.121 -0.605,0.243 -0.97,0.363c-0.483,0.242 -0.968,0.484 -1.331,0.726l-0.362,0.122l-0.122,0.12l-0.121,0.122l-0.725,0.363c-0.727,0.483 -1.574,0.848 -2.421,1.21c-0.122,0.121 -0.364,0.121 -0.484,0.242c-0.726,0.363 -1.453,0.605 -2.301,0.847c-0.12,0 -0.12,0 -0.241,0.122c-0.242,0.12 -0.484,0.12 -0.727,0.242c-0.121,0 -0.242,0 -0.363,0.12c-0.12,0 -0.242,0 -0.242,0.121c-0.363,0.122 -0.726,0.122 -1.089,0.242c-0.605,0.122 -1.09,0.122 -1.695,0.122c0,0 0,0 -0.12,0c-0.364,0 -0.728,0 -1.09,-0.122c-0.243,0 -0.485,-0.12 -0.727,-0.12c-0.121,0 -0.363,-0.122 -0.484,-0.122l0,0c-0.12,-0.121 -0.363,-0.121 -0.484,-0.121c-0.363,-0.12 -0.483,-0.242 -0.969,-0.484l0,0l0,0c-0.362,-0.241 -0.483,-0.362 -0.726,-0.605c-0.122,-0.12 -0.122,-0.12 -0.242,-0.241c-0.121,-0.121 -0.242,-0.242 -0.242,-0.242c-0.121,0 -0.121,-0.121 -0.121,-0.242c-0.362,-0.484 -0.605,-0.968 -0.848,-1.453c0,0 0,-0.12 -0.12,-0.12c-0.242,-0.484 -0.364,-0.968 -0.484,-1.453c-0.121,-0.484 -0.243,-0.968 -0.363,-1.573c-0.242,-1.09 -0.242,-2.058 -0.363,-3.026c0,-0.484 0,-0.968 0,-1.573l0,-1.453l0,0c-0.364,-3.632 -1.452,-7.143 -3.631,-9.805c-0.848,-0.969 -1.695,-1.816 -2.785,-2.542c-0.363,-0.243 -0.727,-0.484 -1.089,-0.727c-0.122,-0.121 -0.242,-0.121 -0.242,-0.242c-0.243,-0.121 -0.605,-0.364 -0.848,-0.485c-0.483,-0.242 -0.969,-0.484 -1.574,-0.605c0.243,0.363 0.485,0.848 0.605,1.21c0,0.121 0,0.121 0.121,0.121c0.242,0.363 0.364,0.848 0.605,1.21c0.242,0.364 0.363,0.727 0.604,1.089c0.242,0.485 0.364,0.848 0.605,1.332c1.09,2.542 2.059,5.084 2.785,7.747l0,0l0,0l0,0l0,0l0,0c-1.574,-2.299 -3.026,-4.6 -4.358,-7.02l-0.363,-0.605l-0.605,-1.089l-0.604,-1.089l-0.485,-0.727l-0.968,-1.695c-0.363,-0.605 -0.726,-1.09 -1.089,-1.574l-0.122,-0.121l0,-0.121l0,-0.121c-0.242,-0.364 -0.604,-0.605 -0.848,-0.969c-0.726,-0.968 -1.573,-1.815 -2.421,-2.663c-0.846,-0.848 -1.693,-1.694 -2.541,-2.421l-1.331,-1.089l-1.453,-0.969c-0.968,-0.605 -1.937,-1.211 -3.026,-1.816c-1.09,-0.484 -2.058,-0.968 -3.148,-1.452c-0.968,-0.364 -2.057,-0.605 -3.146,-0.848c0.968,0.727 1.815,1.573 2.784,2.3c1.815,1.574 3.51,3.147 5.205,4.721c0,0 0.12,0.122 0.242,0.122l8.231,7.747l-9.805,-5.81c-0.121,0 -0.121,-0.122 -0.242,-0.122c-0.484,-0.363 -1.089,-0.605 -1.694,-0.847c-0.728,-0.364 -1.332,-0.605 -2.06,-0.969c-1.331,-0.606 -2.782,-1.089 -4.236,-1.332c-2.422,-0.605 -5.084,-0.847 -7.505,-0.484c0.485,0.121 0.847,0.121 1.331,0.242c1.575,0.363 3.147,0.847 4.602,1.452c0.726,0.243 1.451,0.605 2.177,0.969c0.605,0.363 1.211,0.605 1.938,1.09c0.122,0 0.243,0.121 0.243,0.121l9.441,5.81l-10.531,-3.51c-0.121,0 -0.241,0 -0.241,-0.121c-0.485,-0.122 -1.091,-0.363 -1.575,-0.363c-0.605,-0.121 -1.331,-0.242 -1.937,-0.363c-1.331,-0.242 -2.541,-0.363 -3.874,-0.363c-1.938,0 -3.994,0.242 -5.81,0.847c0.847,0.242 1.573,0.363 2.421,0.605c2.421,0.726 4.842,1.452 7.263,2.3c0.241,0.121 0.485,0.121 0.727,0.242l4.236,1.453l-4.357,1.089c-0.848,0.242 -1.695,0.484 -2.542,0.848c-0.849,0.363 -1.694,0.726 -2.542,1.089c-1.694,0.726 -3.269,1.694 -4.721,2.784c-1.454,1.09 -2.785,2.301 -3.875,3.632c-0.241,0.242 -0.361,0.484 -0.605,0.727l1.454,-0.848c1.694,-0.968 3.389,-1.815 5.204,-2.543c1.815,-0.846 3.632,-1.573 5.569,-2.057c0.968,-0.242 2.058,-0.484 3.268,-0.363c0.604,0.121 1.331,0.242 2.057,0.727c0.727,0.605 1.09,1.452 1.211,2.179l0,0.242l0,0.242c-0.484,2.179 -1.211,4.357 -2.3,6.416c-1.089,2.058 -2.543,3.994 -4.479,5.447c-0.484,0.362 -0.968,0.726 -1.573,0.968c-1.573,0.968 -3.389,1.453 -5.084,1.695c-2.301,0.362 -4.722,0.12 -6.899,-0.364c-4.48,-0.968 -8.595,-3.026 -12.349,-5.447c-1.815,-1.211 -3.631,-2.542 -5.325,-3.994c-1.694,-1.453 -3.268,-3.026 -4.842,-4.6c-0.727,-0.848 -1.453,-1.695 -2.179,-2.542l-1.937,-2.543c-1.332,-1.573 -2.785,-3.026 -4.359,-4.479c-1.573,-1.332 -3.147,-2.663 -4.963,-3.753c-1.816,-1.089 -3.632,-2.058 -5.448,-2.784c-1.937,-0.726 -3.873,-1.09 -5.81,-0.969c-0.727,0 -1.574,0.121 -2.3,0.364c0.484,0.12 0.968,0.242 1.452,0.363c1.089,0.363 2.3,0.726 3.39,1.453c1.089,0.726 2.057,1.695 2.784,2.784l1.573,2.542l-3.026,-0.242c-0.484,0 -1.089,0 -1.574,-0.121c-0.605,0 -1.089,0 -1.694,0c-1.089,0 -2.3,0.121 -3.39,0.242c-1.089,0.121 -2.179,0.363 -3.268,0.605c-1.089,0.242 -2.179,0.605 -3.147,0.968c-0.484,0.243 -1.089,0.364 -1.573,0.605c-0.485,0.242 -0.969,0.485 -1.453,0.727l-0.727,0.363l0,0l-0.121,0l-0.121,0.121c0.121,0 0.363,0 0.484,0c0.968,0 1.937,0 2.905,-0.121c0.121,0 0.242,0 0.363,0l10.532,-1.09l-9.805,3.874c-0.484,0.242 -0.968,0.484 -1.452,0.726c-0.122,0 -0.122,0.122 -0.243,0.122c-0.363,0.242 -0.726,0.362 -0.968,0.605l-0.122,0.12c-0.363,0.242 -0.726,0.484 -1.089,0.727c-0.121,0.121 -0.363,0.241 -0.484,0.363c-0.242,0.242 -0.484,0.483 -0.847,0.726c-1.574,1.453 -2.785,3.026 -3.752,4.964c-0.968,1.816 -1.574,3.873 -1.937,5.931c0,0.243 -0.122,0.485 -0.122,0.848c2.664,-4.116 6.174,-7.505 10.411,-10.047c0.121,-0.121 0.364,-0.242 0.484,-0.242c0.363,-0.242 0.848,-0.484 1.21,-0.605l1.21,-0.604c2.3,-1.091 4.6,-1.816 6.9,-2.301c7.505,-2.179 14.284,-1.574 19.973,1.938c2.421,1.453 4.6,3.389 6.536,5.689c4.48,5.326 7.99,13.073 10.533,23.12c0.12,0.605 0.241,1.09 0.361,1.695c0.122,0.605 0.244,1.089 0.364,1.694c0.12,0.363 0.12,0.605 0.241,0.968c2.18,10.653 7.868,17.069 13.56,20.943c2.782,-0.848 6.414,-0.728 10.409,0.362c0.847,0.243 1.695,0.484 2.542,0.848c7.748,2.905 15.374,8.595 18.884,14.526c7.264,3.026 13.558,4.237 19.489,4.479l0,0c0.727,0 1.574,0 2.301,0c0.726,0 1.452,0 2.179,0c5.69,-0.241 11.258,-1.211 17.311,-2.3c6.052,-1.09 12.226,-2.179 19.488,-2.784c11.259,-0.848 19.732,2.784 25.301,10.652c3.511,4.963 5.084,10.895 4.962,16.947c0.243,0 0.485,0 0.728,0.121c0.968,0.242 1.694,0.848 2.179,1.452c0.484,0.605 0.848,1.211 1.09,1.816c0.241,0.605 0.363,1.21 0.605,1.815c0.12,0.363 0.12,0.605 0.241,0.969l0,0c0.121,-0.484 0.242,-0.969 0.364,-1.574c0.12,-0.968 0.24,-2.058 0.362,-3.146c0,-1.09 0,-2.18 0,-3.268c0,-0.484 0,-1.09 -0.122,-1.573c0,-0.364 0,-0.605 -0.12,-0.97c0,-0.241 0,-0.483 -0.12,-0.605l-0.848,-6.293l3.631,5.204c0.121,0.121 0.242,0.363 0.363,0.484c0.483,0.605 0.968,1.21 1.453,1.816c0.605,0.726 1.21,1.453 1.815,1.815c0,-0.12 0,-0.12 0,-0.12l0,-0.363c0,-0.242 0,-0.362 0,-0.606c0,-0.362 -0.122,-0.848 -0.122,-1.332c-0.362,-1.815 -1.21,-3.632 -2.058,-5.447c-0.483,-0.847 -0.969,-1.815 -1.452,-2.662c-0.484,-0.848 -1.09,-1.695 -1.574,-2.543l-2.542,-3.632l4.237,1.333c0.484,0.12 0.968,0.362 1.452,0.483c0.484,0.242 0.969,0.362 1.331,0.605c0.969,0.362 1.816,0.848 2.784,1.332c0.728,0.362 1.333,0.726 1.938,1.21c-0.121,-0.242 -0.121,-0.484 -0.242,-0.604c-1.091,0.005 -1.334,-0.48 -1.697,-0.964zm-133.156,-61.495c0.121,-0.242 2.3,-3.389 6.416,-6.173c2.783,-1.938 6.537,-3.753 11.257,-4.479c0.605,-0.12 1.09,-0.12 1.695,-0.242c0.483,0 1.089,-0.12 1.573,-0.12c1.453,0 2.906,0 4.48,0.242c4.479,0.605 7.506,2.179 9.079,4.72c0.12,0.243 0.242,0.485 0.362,0.728c0.121,0.241 0.121,0.362 0.243,0.605c0.12,0.362 0.242,0.846 0.362,1.331c0.969,5.084 -2.663,10.773 -2.784,11.015l-1.573,2.421l-0.605,-2.904c0,0 -0.969,-4.842 -3.147,-7.626c-3.51,-3.874 -13.073,-2.058 -19.974,0.121c-2.421,0.726 -4.479,1.573 -5.811,2.179l-3.874,1.573l2.301,-3.391zm21.184,32.079c-0.727,0.484 -1.452,0.848 -2.3,1.21c-0.483,0.242 -0.848,0.363 -1.331,0.605c-0.484,0.122 -0.969,0.363 -1.573,0.484c-0.848,0.243 -1.695,0.363 -2.543,0.484c-0.726,0.121 -1.453,0.121 -2.3,0.121c-0.727,0 -1.332,0 -2.18,-0.121c-0.847,-0.121 -1.573,-0.241 -2.299,-0.484c-0.727,-0.242 -1.453,-0.484 -2.301,-0.727c-1.453,-0.605 -2.904,-1.452 -4.236,-2.421c-1.331,-0.969 -2.542,-2.179 -3.51,-3.632c-0.97,-1.331 -1.695,-2.904 -2.301,-4.477c-0.363,-0.97 -0.484,-2.059 -0.605,-3.148c0,-0.483 -0.12,-0.968 -0.12,-1.453c0,-0.12 0,-0.241 0,-0.483c0,-0.362 0,-0.605 0.12,-0.968c0.121,-1.332 0.363,-2.785 0.848,-3.996c0.605,-1.573 1.453,-3.026 2.421,-4.358c0.969,-1.21 2.059,-2.179 3.149,-3.146c-0.244,0.12 -0.364,0.241 -0.485,0.363c1.452,-2.301 4.478,-4.237 7.748,-5.205c4.599,-1.453 10.046,-1.575 13.678,0.362c10.169,6.778 8.958,18.4 7.143,21.063c0,0 0,0 0,-0.12c0,0.12 -0.121,0.362 -0.121,0.484c-0.364,1.089 -0.727,2.299 -1.452,3.632c-0.243,0.362 -0.485,0.726 -0.727,1.088c-0.971,1.817 -2.544,3.39 -4.723,4.843zm36.558,11.863c-0.122,0.242 -0.242,0.485 -0.485,0.728c-1.09,1.815 -2.663,3.631 -4.842,5.084c-1.331,0.969 -2.905,1.694 -4.479,2.3c-0.483,0.121 -0.968,0.362 -1.573,0.484c-0.605,0.12 -1.09,0.242 -1.695,0.363l0,0c-0.726,0.12 -1.451,0.12 -2.299,0.12c-0.728,0 -1.453,0 -2.301,-0.12c-1.693,-0.121 -3.146,-0.727 -4.72,-1.331c-1.575,-0.605 -2.906,-1.575 -4.237,-2.664c-1.332,-1.09 -2.421,-2.421 -3.391,-3.874c-0.968,-1.452 -1.693,-3.026 -2.179,-4.6l0,-0.121c-0.12,-0.484 -0.242,-1.089 -0.362,-1.574c-0.121,-0.483 -0.242,-1.088 -0.242,-1.573c-0.121,-0.726 -0.121,-1.331 -0.121,-2.058c0,-1.574 0.363,-3.51 0.848,-5.085c0.363,-1.21 0.969,-2.421 1.573,-3.51c0.242,-0.362 0.483,-0.727 0.727,-1.09c0.968,-1.453 2.179,-2.663 3.389,-3.632c1.332,-0.968 2.785,-1.936 4.237,-2.541c0.484,-0.242 0.969,-0.363 1.452,-0.606c5.569,-3.269 15.737,-1.453 20.216,3.752c2.059,2.906 3.026,5.689 3.512,8.474c0.966,5.933 -1.213,11.137 -3.028,13.074zm7.626,-10.047l-2.301,4.479l0,-5.085c0,0 0,-0.848 -0.363,-3.026c-0.362,-2.058 -1.09,-5.447 -2.541,-10.409c-2.663,-9.321 -18.885,-7.143 -19.127,-7.143l-6.053,0.848l5.326,-3.026c0.363,-0.242 5.447,-3.147 11.258,-3.874c0.484,-0.121 1.09,-0.121 1.573,-0.121l0,0c1.453,-0.121 3.026,0 4.479,0.243c0.605,0.12 1.332,0.362 1.938,0.483c0.847,0.362 1.694,0.727 2.421,1.21c0.483,0.242 0.847,0.605 1.211,0.969c1.936,1.938 3.146,3.995 3.994,6.052c0.363,1.091 0.605,2.058 0.848,3.148c0.12,0.848 0.241,1.573 0.241,2.421c0.243,6.658 -2.662,12.468 -2.904,12.831z" id="svg_25"/>
     <path fill="#A42574" d="m278.14991,313.09845c-0.242,0.362 -0.364,0.726 -0.484,1.21c-4.479,11.378 6.415,22.03 7.626,23.241c4.478,2.301 14.163,4.236 20.941,1.21c1.453,-0.605 2.785,-1.451 3.753,-2.541c0.363,-0.363 0.605,-0.726 0.969,-1.09c0.242,-0.363 0.484,-0.726 0.726,-1.089c0.484,-0.848 0.848,-1.695 1.09,-2.663c0.484,-1.816 0,-3.995 -1.09,-6.174c-0.363,-0.604 -0.726,-1.21 -1.211,-1.815c-0.483,-0.728 -1.089,-1.453 -1.815,-2.18c-3.752,-4.115 -9.441,-7.989 -15.132,-10.168c-1.693,-0.605 -5.567,-1.938 -9.078,-1.573c-0.605,0 -1.331,0.12 -1.936,0.363c-0.485,0.12 -0.969,0.242 -1.331,0.483c-0.848,0.364 -1.575,0.969 -2.18,1.815c-0.364,0.123 -0.606,0.485 -0.848,0.971l0,0zm14.405,20.214c0.242,-0.362 0.605,-0.726 0.968,-1.088c0.364,-0.363 0.728,-0.605 1.211,-0.969c0.242,-0.122 0.484,-0.242 0.727,-0.364c0,0 0,0 0.121,0c0.242,-0.12 0.484,-0.241 0.727,-0.241c0.241,-0.121 0.363,-0.121 0.605,-0.121c0.121,0 0.121,0 0.241,0l0.848,-0.121c0.242,0 0.484,0 0.727,0c0,0 0.121,0 0.241,0c0.243,0 0.605,0.121 0.848,0.242c0.243,0.121 0.605,0.121 0.728,0.363l0.726,0.363l0,0l0.121,0c0.243,0.242 0.484,0.484 0.727,0.848c0,0 0,0.12 0.122,0.12c0.12,0.363 0.241,0.728 0.12,1.09c0,0.121 0,0.363 -0.12,0.483c-0.122,0.242 -0.244,0.485 -0.364,0.727c-0.363,0.483 -0.726,0.726 -1.09,0.968c-0.483,0.363 -1.089,0.605 -1.572,0.726c-0.485,0.243 -1.09,0.364 -1.575,0.364c-1.09,0.241 -2.179,0.241 -3.146,0.121c-0.484,-0.121 -1.09,-0.121 -1.574,-0.363c-0.483,-0.122 -0.968,-0.484 -1.331,-0.848c-0.125,-0.725 0.358,-1.573 0.964,-2.3zm-10.289,-8.594c0,-0.605 0.121,-1.09 0.362,-1.695c0.242,-0.605 0.485,-1.21 1.211,-1.816c0.242,-0.121 0.484,-0.241 0.848,-0.363c0.242,0 0.484,-0.12 0.727,0c0.483,0.122 0.847,0.363 1.211,0.484l0.12,0l0,0l0.605,0.605c0.242,0.242 0.363,0.363 0.484,0.605c0.121,0.242 0.363,0.483 0.363,0.725c0.12,0.242 0.242,0.485 0.242,0.848l0,0.121l0.121,0.727c0,0.242 0,0.605 0,0.848c0,0.241 -0.121,0.483 -0.121,0.847c0,0.243 -0.122,0.484 -0.242,0.727c-0.122,0.483 -0.363,0.969 -0.605,1.333c-0.242,0.361 -0.484,0.846 -0.848,1.21c-0.604,0.726 -1.21,1.452 -2.058,1.937c-0.483,-0.242 -0.848,-0.605 -1.211,-1.09c-0.362,-0.484 -0.605,-0.969 -0.726,-1.452c-0.363,-0.969 -0.606,-2.059 -0.606,-3.148c0.123,-0.363 0.123,-0.848 0.123,-1.453z" id="svg_26"/>
    </g>
   </g>
   <path d="m292.43491,272.78645c6.899,-2.179 16.342,-3.994 19.973,-0.12c2.179,2.783 3.147,7.626 3.147,7.626l0.605,2.905l1.573,-2.421c0.242,-0.242 3.874,-5.932 2.785,-11.017c-0.122,-0.483 -0.242,-0.847 -0.364,-1.331c-0.121,-0.242 -0.121,-0.363 -0.241,-0.605c-0.122,-0.242 -0.242,-0.484 -0.364,-0.726c-1.573,-2.543 -4.6,-4.116 -9.079,-4.722c-1.573,-0.242 -3.026,-0.242 -4.478,-0.242c-0.484,0 -1.09,0 -1.575,0.122c-0.605,0 -1.088,0.12 -1.693,0.241c-4.6,0.727 -8.353,2.543 -11.258,4.479c-4.116,2.784 -6.295,5.933 -6.417,6.175l-2.299,3.389l3.874,-1.573c1.331,-0.727 3.51,-1.452 5.811,-2.18zm8.23,-7.504c0.605,-0.122 1.211,-0.242 1.816,-0.364c1.21,-0.241 2.421,-0.363 3.752,-0.363c1.21,0 2.543,0 3.874,0.242c2.058,0.243 3.753,0.727 5.084,1.453c0.726,0.483 1.453,0.969 1.937,1.573c0.242,0.363 0.484,0.605 0.605,0.969c0.121,0.121 0.121,0.242 0.121,0.362c0.969,2.422 0.121,5.447 -0.848,7.628c-0.604,-1.816 -1.452,-3.996 -2.783,-5.69c-2.059,-2.3 -5.447,-3.026 -9.079,-3.026c-5.084,0 -10.774,1.574 -14.768,2.905c2.301,-2.179 5.689,-4.479 10.289,-5.689z" id="svg_27"/>
   <path d="m282.99191,329.43945c0.241,0.483 0.483,0.968 0.726,1.451c0.243,0.485 0.727,0.848 1.211,1.09c-0.242,-0.484 -0.363,-0.968 -0.484,-1.331c-0.121,-0.484 -0.121,-0.969 -0.241,-1.452c0,-0.969 0,-1.938 0.12,-2.784c0.121,-0.97 0.242,-1.815 0.605,-2.543c0.12,-0.242 0.242,-0.483 0.363,-0.605l0,0l0,0l0,0c0.242,0.242 0.484,0.485 0.604,0.728c0.122,0.12 0.243,0.241 0.243,0.362c0,0.121 0.12,0.243 0.242,0.483l0.12,0.485l0.122,0.484c0,0.121 0,0.363 0,0.605c0,0.241 0,0.363 0,0.605c0,0.362 -0.122,0.726 -0.242,1.21c-0.122,0.363 -0.242,0.847 -0.363,1.211c-0.242,0.847 -0.727,1.693 -1.09,2.541c0.726,-0.604 1.453,-1.21 2.058,-1.936c0.363,-0.364 0.605,-0.728 0.848,-1.211c0.241,-0.364 0.483,-0.848 0.605,-1.332c0.121,-0.242 0.121,-0.483 0.241,-0.726c0,-0.243 0.122,-0.485 0.122,-0.848c0,-0.243 0,-0.605 0,-0.848l-0.122,-0.727l0,-0.12c0,-0.241 -0.12,-0.485 -0.241,-0.847c-0.122,-0.243 -0.242,-0.484 -0.364,-0.728c-0.12,-0.242 -0.361,-0.483 -0.483,-0.604l-0.605,-0.605l0,0l-0.121,0c-0.362,-0.242 -0.605,-0.363 -1.211,-0.483c-0.241,0 -0.483,0 -0.726,0c-0.363,0 -0.605,0.12 -0.848,0.361c-0.848,0.605 -1.089,1.211 -1.211,1.816c-0.242,0.604 -0.242,1.21 -0.362,1.694c0,0.485 -0.121,1.091 0,1.575c-0.121,0.971 0.12,2.06 0.484,3.029z" id="svg_28"/>
   <path fill="#440338" d="m290.01291,276.17745c2.905,-1.09 5.932,-1.332 8.716,-1.09c2.784,0.362 5.326,1.331 7.384,2.541c2.059,1.211 3.753,2.785 4.843,4.359c1.21,1.573 1.936,3.147 2.421,4.6c0.242,0.726 0.362,1.331 0.484,1.815c0.121,0.605 0.241,0.968 0.241,1.453c0,0.725 0.122,1.21 0.122,1.21l0,0c0,0 0,0.363 0,1.211c0,0.362 0,0.848 -0.122,1.453c0,0.483 -0.12,0.968 -0.241,1.451c0,0 0,0 0,0.122c1.815,-2.784 3.026,-14.284 -7.143,-21.063c-3.632,-1.937 -9.079,-1.816 -13.679,-0.363c-3.389,1.09 -6.295,2.906 -7.747,5.205c0.121,-0.12 0.362,-0.242 0.484,-0.363c0.12,-0.12 0.242,-0.12 0.363,-0.242c0.968,-0.968 2.422,-1.694 3.874,-2.299z" id="svg_29"/>
   <g id="svg_30">
    <path fill="#600039" d="m294.00791,335.73345c0.968,-0.241 1.815,-0.484 2.783,-0.847c0.848,-0.364 1.695,-0.728 2.301,-1.211c0.242,-0.121 0.363,-0.364 0.483,-0.484l0,0c-0.241,-0.12 -0.605,-0.363 -0.847,-0.484c-0.121,0 -0.363,-0.121 -0.484,-0.121c-0.12,0 -0.12,0 -0.242,0c-0.12,0 -0.12,0 -0.242,0l-0.483,0l0,0l-0.485,0.121c-0.12,0 -0.362,0.121 -0.483,0.121c-0.242,0 -0.363,0.121 -0.604,0.243c-0.364,0.12 -0.728,0.362 -1.091,0.483c-0.362,0.242 -0.726,0.484 -1.09,0.727c-0.726,0.483 -1.451,1.089 -2.179,1.573c0.485,0.121 0.969,0.121 1.453,0.121c0.241,-0.12 0.724,-0.242 1.21,-0.242z" id="svg_31"/>
    <path fill="#600039" d="m286.25991,328.22945c0.122,-0.364 0.242,-0.848 0.242,-1.21c0,-0.242 0,-0.364 0,-0.605c0,-0.242 0,-0.364 0,-0.605l-0.12,-0.484l-0.122,-0.485c0,-0.12 -0.12,-0.24 -0.241,-0.483c0,-0.121 -0.122,-0.242 -0.242,-0.362c-0.122,-0.242 -0.484,-0.485 -0.605,-0.728l0,0l0,0l0,0c0,0.122 -0.242,0.363 -0.363,0.605c-0.363,0.728 -0.484,1.695 -0.604,2.543c-0.122,0.968 -0.122,1.815 -0.122,2.784c0,0.483 0.122,0.968 0.242,1.452c0.121,0.483 0.242,0.969 0.484,1.331c0.363,-0.848 0.727,-1.694 1.089,-2.541c0.121,-0.366 0.242,-0.729 0.362,-1.212z" id="svg_32"/>
   </g>
   <path d="m261.68691,317.45545c0.363,0.362 0.727,0.726 1.09,1.09c0.363,0.362 0.848,0.846 1.211,1.331c0.483,0.484 0.848,0.968 1.331,1.573c0.484,0.484 0.968,1.09 1.452,1.573c0.485,0.605 1.091,1.09 1.574,1.695c1.09,1.09 2.179,2.179 3.147,3.268c0.969,0.968 2.058,1.937 2.904,2.663c1.574,1.452 2.784,2.422 3.026,2.422c-0.12,-0.122 -0.726,-1.575 -1.936,-3.391c-0.605,-0.969 -1.453,-2.058 -2.301,-3.268c-0.848,-1.211 -1.936,-2.301 -2.904,-3.391c-1.09,-1.089 -2.181,-2.179 -3.269,-3.147c-1.091,-0.969 -2.179,-1.816 -3.148,-2.421c-0.483,-0.363 -0.968,-0.605 -1.452,-0.848c-0.484,-0.243 -0.847,-0.363 -1.21,-0.483c-0.605,-0.243 -0.97,-0.243 -0.97,-0.364c0,0 0.364,0.364 0.727,0.726c0.122,0.367 0.364,0.729 0.728,0.972z" id="svg_33"/>
   <path d="m257.32891,336.33845c0.242,0 0.606,0.243 0.968,0.243c0.363,0.121 0.727,0.242 1.211,0.362c0.363,0.122 0.848,0.242 1.331,0.364c0.848,0.241 1.815,0.605 2.785,0.847c1.937,0.484 3.994,0.969 5.447,1.21c1.573,0.242 2.662,0.242 2.662,0.242s-0.847,-0.725 -2.179,-1.573c-1.331,-0.848 -3.269,-1.695 -5.325,-2.3c-2.059,-0.605 -4.237,-0.847 -5.811,-0.605c-0.363,0 -0.726,0.121 -1.089,0.242c-0.363,0.122 -0.605,0.242 -0.848,0.242c-0.484,0.242 -0.605,0.363 -0.605,0.363s0.242,0 0.726,0c0.122,0.243 0.364,0.363 0.727,0.363z" id="svg_34"/>
   <path d="m257.57091,327.62345c0.363,0.121 0.726,0.363 1.211,0.484c0.483,0.242 0.846,0.484 1.451,0.727c0.485,0.241 0.97,0.483 1.575,0.726c1.089,0.605 2.179,1.211 3.268,1.695c1.09,0.605 2.3,1.211 3.39,1.816c1.089,0.604 2.058,1.088 2.905,1.573c1.573,0.848 2.905,1.331 3.025,1.452c-0.12,-0.121 -0.847,-1.21 -2.179,-2.542c-0.726,-0.727 -1.573,-1.453 -2.663,-2.179c-0.968,-0.727 -2.179,-1.453 -3.269,-2.179c-1.21,-0.606 -2.421,-1.211 -3.632,-1.574c-1.21,-0.363 -2.421,-0.604 -3.389,-0.847c-0.483,0 -0.969,-0.122 -1.331,-0.122c-0.363,0 -0.728,0 -1.09,0c-0.605,0 -0.969,0.122 -0.969,0.122s0.363,0.12 0.848,0.362c0.123,0.244 0.485,0.365 0.849,0.486z" id="svg_35"/>
   <g id="svg_36">
    <path fill="#E8E8E8" d="m372.56991,352.07545c0.121,-0.363 0.241,-0.847 0.363,-1.211c0.242,-1.089 0.483,-2.057 0.726,-2.904c0.122,-0.484 0.122,-0.968 0.242,-1.332c0.121,-0.483 0.121,-0.969 0.121,-1.331c0,-0.605 0,-0.969 0,-1.09c-0.241,-1.574 -0.847,-2.422 -1.452,-2.784c-0.727,1.09 -1.453,2.179 -2.18,3.269c-0.241,0.362 -0.605,0.848 -0.847,1.21c-0.242,0.363 -0.606,0.848 -0.969,1.211c-0.121,0.242 -0.363,0.484 -0.605,0.726c-0.241,0.364 -0.483,0.605 -0.727,0.97c-0.242,0.363 -0.484,0.605 -0.847,0.968c-0.727,0.848 -1.453,1.694 -2.3,2.421l0,15.615c3.994,-4.963 6.416,-10.168 7.868,-14.284c0.365,-0.727 0.485,-1.09 0.607,-1.454z" id="svg_37"/>
    <path fill="#E8E8E8" d="m361.79591,354.37545c-3.146,2.906 -6.778,5.568 -10.773,7.869l-2.784,17.915c5.205,-2.542 9.685,-5.811 13.558,-9.805l0,-15.979l-0.001,0z" id="svg_38"/>
    <path fill="#E8E8E8" d="m327.65891,385.72945c6.658,-0.728 12.59,-2.181 18.037,-4.359l2.784,-17.794c-4.842,2.421 -10.047,4.236 -15.857,5.326l-4.964,16.827z" id="svg_39"/>
    <path fill="#E8E8E8" d="m310.59191,369.38645l-4.964,16.101c1.695,0.242 3.269,0.362 4.964,0.483c5.084,0.363 9.927,0.363 14.404,0l4.842,-16.583c-5.931,0.725 -12.346,0.845 -19.246,-0.001z" id="svg_40"/>
    <path fill="#E8E8E8" d="m281.65991,379.91745c7.021,2.421 14.163,4.236 21.547,5.206l4.964,-16.1c-6.175,-0.969 -12.832,-2.662 -19.731,-5.326l-6.78,16.22z" id="svg_41"/>
    <path fill="#E8E8E8" d="m267.25591,353.77145l-7.99,15.131c2.058,1.331 4.116,2.542 6.174,3.632c4.479,2.542 9.079,4.722 13.921,6.537l6.658,-16.222c-4.116,-1.695 -8.474,-3.631 -12.832,-5.932c-2.059,-0.968 -4.116,-2.057 -5.931,-3.146z" id="svg_42"/>
    <path fill="#E8E8E8" d="m265.19691,352.43945c-5.69,-3.512 -10.289,-7.264 -14.163,-11.38l-8.111,15.132c4.48,4.236 9.442,8.11 14.406,11.257l7.868,-15.009z" id="svg_43"/>
    <path fill="#E8E8E8" d="m249.21791,339.24445c-3.148,-3.632 -5.81,-7.264 -7.868,-11.137l-10.652,13.315c2.905,4.722 6.415,9.079 10.29,13.073l8.23,-15.251z" id="svg_44"/>
    <path fill="#E8E8E8" d="m240.13991,325.80845c-2.3,-4.722 -3.995,-9.321 -5.084,-13.921l-11.379,11.016c0.969,5.932 3.026,11.379 5.69,16.342l10.773,-13.437z" id="svg_45"/>
    <path fill="#E8E8E8" d="m222.94991,315.03345c0,1.695 0.121,3.27 0.242,4.843l11.258,-10.774c-0.968,-4.842 -1.331,-9.441 -1.331,-13.557l-9.805,7.504c-0.848,6.658 -0.364,11.864 -0.364,11.984z" id="svg_46"/>
    <path fill="#E8E8E8" d="m234.57091,279.32345c-6.415,5.205 -9.321,13.195 -10.652,20.216l9.2,-7.143c0.12,-5.689 0.847,-10.289 1.452,-13.073z" id="svg_47"/>
   </g>
   <g id="svg_48">
    <g id="svg_49">
     <g id="svg_50">
      <path fill="#DB8FAD" d="m361.43391,260.19745l0.726,0.121c0.605,-0.726 0.968,-1.211 1.09,-1.573c0,0 0,0 -0.122,0c-0.726,0 -2.179,0.362 -4.357,1.331c0.846,0 1.815,0 2.663,0.121z" id="svg_51"/>
      <path fill="#DB8FAD" d="m331.29091,252.81345c0,2.059 -0.12,4.48 -0.12,6.9c-0.122,2.059 -0.243,4.116 -0.243,5.932c0.121,0.243 0.363,0.483 0.485,0.727c0.12,0.121 0.241,0.242 0.362,0.362c0,0.122 0.243,0.242 0.243,0.242l0,0l0.241,0.122c0,0 0.121,0 0.242,0.121c0.242,-2.179 0.484,-4.722 0.604,-7.626c0.363,-8.474 -0.604,-13.921 -1.21,-15.858c-0.482,1.936 -0.604,5.688 -0.604,9.078z" id="svg_52"/>
     </g>
     <g id="svg_53">
      <path fill="#F6B7BF" d="m374.38591,324.47645c-7.143,0.605 -13.315,1.695 -19.247,2.784c-4.963,0.848 -9.563,1.815 -14.284,2.18c-0.605,0.12 -1.332,0.12 -1.938,0.12c-0.726,0 -1.331,0.121 -2.057,0.121c-6.779,0.242 -13.801,-0.605 -21.789,-3.752c0.604,1.936 0.726,3.752 0.241,5.447c-0.241,0.848 -0.484,1.695 -0.969,2.421c-0.242,0.362 -0.362,0.726 -0.605,1.09c-0.242,0.362 -0.483,0.726 -0.726,1.089c-1.332,1.815 -3.269,3.268 -5.569,4.236c-2.783,1.211 -6.052,1.695 -9.199,1.695c-4.963,0 -9.805,-1.21 -13.073,-2.663c-1.573,2.421 -5.689,9.321 -6.415,16.584l-0.605,-0.122c40.915,20.096 70.572,9.565 86.43,-8.351c0.242,-0.362 0.485,-0.606 0.848,-0.968c0.242,-0.242 0.484,-0.485 0.605,-0.848l0.12,-0.122c0.243,-0.363 0.605,-0.726 0.848,-1.089c0.363,-0.362 0.605,-0.848 0.969,-1.21c1.21,-1.574 2.3,-3.269 3.269,-4.964c-0.483,-0.241 -0.969,-0.483 -1.573,-0.727c-1.211,-0.484 -2.301,-0.968 -3.268,-1.331c-1.936,-0.727 -3.39,-1.09 -3.39,-1.09s1.453,-0.362 3.632,-0.242c0.605,0 1.09,0.122 1.815,0.242c0.605,0.121 1.331,0.242 1.937,0.485c0.605,0.241 1.332,0.361 2.058,0.726c0.728,0.242 1.333,0.605 1.938,0.968c0.605,0.363 1.211,0.848 1.816,1.211c0.605,0.362 1.089,0.968 1.693,1.332c0.485,0.483 0.969,0.967 1.333,1.452c0.483,0.484 0.726,0.969 1.089,1.452c0.362,0.485 0.604,0.848 0.848,1.211c0.242,0.363 0.362,0.727 0.484,1.09c0.12,0.363 0.241,0.605 0.362,0.726c0,0.122 0,0.122 0,0.122s-0.121,-0.122 -0.242,-0.122c-0.12,-0.12 -0.362,-0.242 -0.604,-0.483c-0.243,-0.242 -0.485,-0.484 -0.848,-0.727c-0.363,-0.363 -0.727,-0.605 -1.089,-0.969c-0.364,-0.362 -0.848,-0.726 -1.333,-1.09c-0.483,-0.362 -0.968,-0.726 -1.452,-1.089c-0.121,0 -0.121,-0.121 -0.241,-0.121c0.12,0.484 0.241,0.969 0.362,1.574c0,0.241 0,0.968 -0.121,1.815c0,0.363 -0.121,0.847 -0.241,1.331c0,0.363 -0.122,0.848 -0.242,1.331c-0.243,1.091 -0.485,2.422 -0.969,3.874c-0.121,0.363 -0.242,0.848 -0.364,1.211c-0.12,0.363 -0.241,0.727 -0.362,1.21c-1.694,4.964 -4.721,10.896 -9.685,16.464c-0.242,0.363 -0.605,0.605 -0.848,0.969c-10.652,11.137 -25.904,16.704 -45.757,16.704c-2.421,0 -4.963,-0.12 -7.506,-0.242c-4.115,-0.242 -8.23,-0.726 -12.226,-1.573c-2.905,-0.484 -5.81,-1.21 -8.716,-1.936l-0.12,0c-2.664,-0.727 -5.205,-1.452 -7.748,-2.421c-6.053,-2.058 -11.863,-4.722 -17.431,-7.748c-19.732,-11.015 -43.337,-30.263 -43.701,-59.557c0,-0.484 -0.726,-7.384 0.848,-15.737c0,-0.362 0.121,-0.848 0.243,-1.21c0.242,-1.453 0.605,-2.784 1.089,-4.237c1.815,-5.931 4.842,-11.983 10.168,-16.463c-0.484,-0.121 -0.968,-0.242 -1.453,-0.242c-2.058,-0.362 -3.632,-0.604 -3.632,-0.604s1.453,-0.605 3.632,-0.848c1.09,-0.121 2.421,-0.121 3.874,0c0.484,0 0.968,0.121 1.453,0.121c0.242,0 0.484,0.121 0.726,0.121c0.727,0.12 1.332,0.242 2.058,0.484l0.121,0c0.727,0.241 1.453,0.483 2.179,0.726c0.484,0.121 0.848,0.363 1.332,0.605c0.242,0.121 0.484,0.242 0.726,0.363c0.605,0.242 1.211,0.727 1.695,1.09c0.605,0.362 0.968,0.725 1.453,1.089c0.847,0.727 1.453,1.452 1.937,1.938c0.364,0.483 0.605,0.726 0.605,0.726c-0.121,0 -0.363,-0.12 -0.968,-0.363c-0.242,-0.12 -0.484,-0.242 -0.727,-0.362c-0.121,0 -0.242,-0.122 -0.242,-0.122c-0.363,-0.241 -0.848,-0.363 -1.331,-0.605c-0.484,-0.241 -0.969,-0.483 -1.574,-0.726c-0.242,-0.12 -0.484,-0.242 -0.726,-0.363c-0.364,-0.121 -0.727,-0.242 -1.09,-0.362c-0.605,-0.242 -1.21,-0.485 -1.936,-0.728c-0.121,0 -0.243,-0.12 -0.485,-0.12c-0.484,-0.122 -0.968,-0.363 -1.573,-0.484c-0.605,-0.243 -1.21,-0.363 -1.816,-0.484l0,0.121c-1.937,8.716 -9.442,53.625 37.163,76.02c0.605,0.363 1.331,0.605 1.936,0.969c0.968,-7.747 5.205,-14.768 6.779,-17.068c-2.905,-2.905 -12.71,-14.163 -7.263,-26.146c0.12,-0.121 0.12,-0.364 0.241,-0.484c0.121,-0.242 0.242,-0.484 0.364,-0.726c0.24,-0.364 0.483,-0.728 0.726,-1.09c0.484,-0.605 1.09,-1.211 1.815,-1.574c-5.69,-4.236 -11.258,-10.895 -13.437,-21.668c-0.242,-1.089 -0.484,-2.3 -0.727,-3.39c-0.121,-0.605 -0.242,-1.21 -0.483,-1.695c-0.122,-0.605 -0.364,-1.21 -0.484,-1.693c-3.512,-12.469 -8.595,-20.821 -15.253,-24.816c-5.084,-3.025 -11.258,-3.631 -18.158,-1.694c-1.695,0.362 -3.389,0.848 -5.084,1.573c-0.485,0.121 -0.848,0.364 -1.331,0.606c-0.364,0.121 -0.848,0.363 -1.211,0.604c-0.484,0.243 -1.089,0.606 -1.574,0.848c0,0 0,0 -0.121,0l0,0c0,0 0,0 -0.121,0c-0.364,0.242 -0.848,0.485 -1.211,0.728c-0.364,0.241 -0.727,0.483 -1.089,0.847l0,0c-0.605,0.484 -1.21,0.969 -1.816,1.574c-3.026,2.662 -5.568,6.053 -7.384,9.684c-0.121,0.121 -0.121,0.241 -0.121,0.363c-0.121,0.242 -0.242,0.483 -0.363,0.848c0,0.12 -0.121,0.241 -0.121,0.363c-0.122,0.362 -0.243,0.605 -0.364,0.968c-0.121,0.242 -0.121,0.363 -0.242,0.605c-0.121,0.242 -0.242,0.484 -0.242,0.848c-0.726,1.937 -1.21,3.874 -1.453,5.931c-0.847,5.811 -1.574,13.195 -1.21,21.548c0,0.363 0,0.847 0,1.211c0,0.483 0,0.968 0.121,1.331c0.485,7.505 1.816,15.736 4.601,24.09c0.121,0.362 0.242,0.846 0.363,1.21c0.121,0.363 0.242,0.847 0.484,1.211c2.664,7.504 6.538,15.01 11.864,22.272c0.242,0.363 0.484,0.605 0.726,0.969c0.242,0.363 0.484,0.604 0.726,0.969c1.574,2.057 3.39,4.115 5.327,6.173c4.842,5.085 10.168,9.805 15.979,14.042c0.484,0.364 0.969,0.727 1.453,1.09c3.631,2.542 7.384,4.842 11.378,7.143c0.121,0 0.121,0.12 0.243,0.12c0.362,0.243 0.726,0.363 1.088,0.605c3.391,1.816 6.78,3.511 10.169,4.963c0.363,0.122 0.727,0.364 1.09,0.484c0.363,0.242 0.727,0.363 1.211,0.485c13.921,5.809 26.994,8.714 36.436,10.167c0.604,0.122 1.331,0.242 1.936,0.242c2.059,0.243 4.116,0.485 6.175,0.485c0.726,0 1.331,0 2.058,0c0.605,0 1.331,0 1.936,0c3.511,0 7.143,-0.364 10.652,-0.97c0.484,-0.12 0.848,-0.12 1.332,-0.241c0.483,-0.122 0.969,-0.122 1.452,-0.243c0.727,-0.121 1.453,-0.362 2.18,-0.483c8.352,-1.938 20.094,-5.326 31.474,-10.773c1.21,-0.605 2.541,-1.21 3.752,-1.938c1.09,-0.605 2.179,-1.21 3.269,-1.815c7.506,-4.358 14.526,-9.685 19.852,-16.342c0.364,-0.363 0.605,-0.728 0.848,-1.089c0.242,-0.364 0.484,-0.605 0.728,-0.97c0.241,-0.362 0.483,-0.726 0.726,-1.089c2.421,-3.631 3.994,-7.626 4.6,-11.742c0,-0.484 0.122,-0.968 0.122,-1.452c0,-0.484 0.12,-0.969 0.12,-1.453c0.242,-5.447 -1.331,-11.016 -4.479,-15.494c-4.847,-6.542 -12.593,-9.811 -22.883,-9.085zm-70.815,35.952c0,0.363 -0.122,0.605 -0.122,0.605s-0.12,-0.12 -0.363,-0.484c-0.12,-0.121 -0.242,-0.363 -0.362,-0.483c-0.122,-0.122 -0.363,-0.363 -0.484,-0.605c-0.243,-0.242 -0.363,-0.363 -0.605,-0.605c-0.242,-0.242 -0.483,-0.363 -0.727,-0.606c-0.242,-0.242 -0.484,-0.362 -0.727,-0.605c-0.241,-0.242 -0.605,-0.362 -0.847,-0.604c-1.09,-0.848 -2.3,-1.574 -3.269,-2.301c-0.968,-0.605 -1.573,-1.211 -1.573,-1.211s0.847,-0.242 2.057,0c0.605,0.122 1.333,0.243 2.059,0.485c0.727,0.242 1.453,0.605 2.179,1.089c0.727,0.484 1.332,1.09 1.816,1.695c0.242,0.362 0.484,0.726 0.605,0.968c0.122,0.363 0.242,0.727 0.364,0.968c0.12,0.364 0.12,0.605 0.12,0.848c-0.001,0.361 -0.001,0.604 -0.121,0.846zm8.232,-7.143c-0.243,-0.12 -0.485,-0.241 -0.848,-0.362c-0.363,-0.121 -0.727,-0.242 -1.09,-0.363c-0.363,-0.12 -0.847,-0.242 -1.331,-0.484c-0.485,-0.121 -0.969,-0.241 -1.453,-0.483c-0.483,-0.122 -1.089,-0.243 -1.573,-0.485c-0.605,-0.12 -1.091,-0.242 -1.695,-0.362c-2.3,-0.485 -4.6,-1.09 -6.294,-1.453c-1.695,-0.363 -2.906,-0.726 -2.906,-0.726s1.211,-0.485 3.026,-0.605c0.969,-0.122 1.937,-0.122 3.147,0c1.21,0.12 2.421,0.242 3.631,0.605c0.605,0.12 1.211,0.362 1.816,0.483c0.605,0.242 1.09,0.364 1.695,0.727c0.484,0.242 1.09,0.483 1.452,0.848c0.484,0.241 0.848,0.605 1.211,0.847c0.726,0.605 1.331,1.09 1.573,1.574c0.363,0.363 0.484,0.605 0.484,0.605c-0.12,-0.124 -0.483,-0.244 -0.845,-0.366zm4.236,-5.325c-0.242,-0.122 -0.484,-0.363 -0.848,-0.484c-0.363,-0.121 -0.726,-0.363 -1.21,-0.605c-0.485,-0.242 -0.969,-0.363 -1.453,-0.605c-0.483,-0.242 -1.089,-0.363 -1.573,-0.483c-0.605,-0.242 -1.211,-0.242 -1.695,-0.484c-0.605,-0.121 -1.211,-0.243 -1.816,-0.363c-0.604,-0.122 -1.21,-0.242 -1.815,-0.242c-0.605,-0.121 -1.211,-0.121 -1.815,-0.242c-1.211,-0.121 -2.3,-0.242 -3.268,-0.242c-1.938,-0.121 -3.268,-0.241 -3.268,-0.241s1.21,-0.605 3.268,-1.09c0.483,-0.121 1.089,-0.243 1.573,-0.243c0.605,-0.12 1.211,-0.12 1.815,-0.242c0.605,0 1.331,0 1.936,0c0.728,0 1.332,0.122 2.059,0.242c0.726,0.122 1.331,0.243 2.058,0.485c0.605,0.242 1.331,0.483 1.937,0.725c0.605,0.242 1.211,0.605 1.695,0.968c0.483,0.364 0.968,0.605 1.331,0.97c0.363,0.363 0.727,0.726 0.968,0.968c0.243,0.363 0.485,0.606 0.605,0.848c0.242,0.483 0.484,0.727 0.484,0.847c-0.242,-0.004 -0.485,-0.124 -0.968,-0.487zm-54.836,-32.2c0.363,0.121 0.726,0.242 1.21,0.484s0.847,0.484 1.452,0.848c0.97,0.605 2.058,1.453 3.148,2.421c1.088,0.969 2.299,2.059 3.269,3.146c1.089,1.091 2.057,2.301 2.904,3.39c0.848,1.09 1.695,2.18 2.301,3.269c1.21,1.815 1.815,3.148 1.936,3.39c-0.12,-0.121 -1.331,-0.969 -3.026,-2.421c-0.847,-0.727 -1.815,-1.694 -2.904,-2.663c-0.969,-0.969 -2.058,-2.058 -3.147,-3.268c-0.483,-0.605 -1.089,-1.09 -1.574,-1.695c-0.484,-0.483 -0.968,-1.088 -1.452,-1.573c-0.483,-0.484 -0.969,-1.09 -1.331,-1.573c-0.485,-0.484 -0.848,-0.968 -1.211,-1.332c-0.363,-0.363 -0.727,-0.847 -1.09,-1.089c-0.363,-0.363 -0.605,-0.606 -0.848,-0.848c-0.483,-0.363 -0.726,-0.605 -0.726,-0.726c0.119,-0.123 0.484,-0.001 1.089,0.24zm-4.358,10.411c0.362,0 0.727,0 1.09,0c0.362,0 0.848,0 1.331,0.12c0.968,0.122 2.179,0.363 3.389,0.848c1.211,0.363 2.422,0.969 3.632,1.573c1.211,0.605 2.301,1.333 3.269,2.179c0.969,0.728 1.938,1.575 2.663,2.181c1.332,1.331 2.059,2.421 2.179,2.541c-0.12,0 -1.331,-0.605 -3.025,-1.453c-0.848,-0.483 -1.937,-0.968 -2.905,-1.573c-1.09,-0.605 -2.18,-1.21 -3.39,-1.815c-1.089,-0.605 -2.3,-1.211 -3.268,-1.695c-0.485,-0.241 -1.09,-0.605 -1.575,-0.726c-0.483,-0.242 -0.968,-0.485 -1.451,-0.727c-0.485,-0.121 -0.848,-0.363 -1.211,-0.484c-0.364,-0.12 -0.727,-0.242 -0.969,-0.362c-0.605,-0.243 -0.847,-0.363 -0.847,-0.363s0.482,-0.124 1.088,-0.244zm-0.243,8.957c0.242,-0.121 0.484,-0.241 0.848,-0.241c0.362,-0.122 0.727,-0.122 1.09,-0.242c1.693,-0.242 3.873,0.12 5.81,0.604c2.059,0.606 3.995,1.453 5.327,2.3c1.331,0.848 2.179,1.574 2.179,1.574s-1.09,0 -2.663,-0.242c-1.574,-0.242 -3.512,-0.727 -5.447,-1.21c-0.969,-0.243 -1.936,-0.605 -2.784,-0.848c-0.485,-0.121 -0.848,-0.242 -1.333,-0.363c-0.362,-0.122 -0.846,-0.242 -1.21,-0.363c-0.363,-0.121 -0.726,-0.242 -0.968,-0.242c-0.243,0 -0.605,-0.121 -0.727,-0.121c-0.484,0 -0.726,0 -0.726,0s0.12,-0.364 0.604,-0.606zm81.226,56.41c-0.484,0.121 -1.09,0.121 -1.573,0.242c-1.332,0.121 -2.785,0.241 -4.479,0.484c-2.3,0.242 -4.964,0.362 -7.868,0.484c-1.453,0.12 -2.905,0.12 -4.479,0.12c-1.574,0 -3.147,0 -4.843,0c-1.573,-0.12 -3.146,-0.12 -4.721,-0.242c-0.121,0 -0.241,0 -0.363,0c-0.726,-0.12 -1.573,-0.12 -2.3,-0.241c-0.969,-0.121 -1.815,-0.121 -2.785,-0.242l-0.12,0c-1.815,-0.242 -3.632,-0.484 -5.447,-0.727c-1.815,-0.241 -3.632,-0.605 -5.568,-0.969c-1.815,-0.362 -3.753,-0.848 -5.568,-1.21c-1.816,-0.483 -3.752,-0.969 -5.568,-1.453c-2.3,-0.726 -4.6,-1.452 -6.9,-2.179c-0.484,-0.12 -1.09,-0.363 -1.573,-0.605c-0.484,-0.12 -0.968,-0.362 -1.453,-0.605c-0.362,-0.12 -0.604,-0.242 -0.968,-0.362c-3.511,-1.331 -6.9,-2.906 -10.169,-4.6c-3.269,-1.695 -6.295,-3.39 -9.079,-5.085c-2.784,-1.695 -5.447,-3.511 -7.626,-5.326c-2.3,-1.694 -4.358,-3.39 -6.053,-4.963c-1.694,-1.573 -3.147,-3.026 -4.358,-4.237c-1.21,-1.21 -2.058,-2.179 -2.663,-2.905c-0.485,-0.605 -0.848,-0.968 -0.848,-1.089c0.121,0.121 1.453,1.573 3.752,3.632c2.421,2.179 6.174,5.205 10.895,8.474c2.421,1.573 4.963,3.268 7.747,4.842c2.784,1.694 5.933,3.146 9.079,4.721c3.269,1.574 6.537,3.026 10.047,4.236c0.969,0.364 1.938,0.728 3.026,1.09c0.605,0.242 1.333,0.485 1.938,0.605c0.847,0.242 1.573,0.484 2.421,0.848c1.089,0.363 2.3,0.726 3.39,0.968c1.815,0.485 3.632,0.969 5.447,1.453c1.815,0.363 3.632,0.848 5.447,1.211c1.694,0.362 3.39,0.605 4.963,0.968c0.121,0 0.362,0 0.484,0.121c1.089,0.121 2.3,0.363 3.39,0.484c0.604,0.12 1.331,0.242 1.936,0.242c0.485,0 0.848,0.12 1.333,0.12c1.331,0.122 2.663,0.243 3.874,0.485c1.693,0.12 3.389,0.242 4.962,0.362c1.574,0.121 3.269,0.121 4.722,0.243c1.573,0.12 3.026,0.12 4.478,0.12c2.905,0 5.447,0.122 7.868,0c1.938,0 3.631,-0.12 5.206,-0.242c0.241,0 0.605,0 0.847,0c3.39,-0.241 5.206,-0.363 5.206,-0.363s-1.817,0.606 -5.086,1.09z" id="svg_54"/>
     </g>
    </g>
   </g>
  </g>
 </g>

</svg>